<ttFont>
    <TTGlyph name=".notdef" xMin="0" yMin="0" xMax="500" yMax="700">
      <contour>
        <pt x="0" y="700" on="1"/>
        <pt x="500" y="700" on="1"/>
        <pt x="500" y="0" on="1"/>
        <pt x="0" y="0" on="1"/>
      </contour>
      <contour>
        <pt x="50" y="650" on="1"/>
        <pt x="50" y="50" on="1"/>
        <pt x="450" y="50" on="1"/>
        <pt x="450" y="650" on="1"/>
      </contour>
      <contour>
        <pt x="229" y="278" on="1"/>
        <pt x="229" y="307" on="0"/>
        <pt x="256" y="345" on="0"/>
        <pt x="283" y="367" on="1"/>
        <pt x="311" y="390" on="0"/>
        <pt x="339" y="431" on="0"/>
        <pt x="339" y="465" on="1"/>
        <pt x="339" y="496" on="0"/>
        <pt x="301" y="552" on="0"/>
        <pt x="250" y="552" on="1"/>
        <pt x="192" y="552" on="0"/>
        <pt x="152" y="485" on="0"/>
        <pt x="152" y="452" on="1"/>
        <pt x="152" y="424" on="1"/>
        <pt x="103" y="424" on="1"/>
        <pt x="103" y="425" on="0"/>
        <pt x="99" y="442" on="0"/>
        <pt x="99" y="455" on="1"/>
        <pt x="99" y="478" on="0"/>
        <pt x="120" y="544" on="0"/>
        <pt x="187" y="602" on="0"/>
        <pt x="250" y="602" on="1"/>
        <pt x="313" y="602" on="0"/>
        <pt x="376" y="546" on="0"/>
        <pt x="393" y="486" on="0"/>
        <pt x="393" y="467" on="1"/>
        <pt x="393" y="422" on="0"/>
        <pt x="356" y="364" on="0"/>
        <pt x="326" y="338" on="1"/>
        <pt x="304" y="320" on="0"/>
        <pt x="282" y="290" on="0"/>
        <pt x="282" y="268" on="1"/>
        <pt x="282" y="215" on="1"/>
        <pt x="229" y="215" on="1"/>
      </contour>
      <contour>
        <pt x="225" y="169" on="1"/>
        <pt x="285" y="169" on="1"/>
        <pt x="285" y="99" on="1"/>
        <pt x="225" y="99" on="1"/>
      </contour>
    </TTGlyph>
    <TTGlyph name="A" xMin="15" yMin="0" xMax="672" yMax="688">
      <contour>
        <pt x="475" y="148" on="1"/>
        <pt x="207" y="148" on="1"/>
        <pt x="158" y="0" on="1"/>
        <pt x="15" y="0" on="1"/>
        <pt x="248" y="688" on="1"/>
        <pt x="439" y="688" on="1"/>
        <pt x="672" y="0" on="1"/>
        <pt x="525" y="0" on="1"/>
      </contour>
      <contour>
        <pt x="338" y="554" on="1"/>
        <pt x="245" y="272" on="1"/>
        <pt x="437" y="272" on="1"/>
        <pt x="343" y="554" on="1"/>
      </contour>
    </TTGlyph>
    <TTGlyph name="A.ss01" xMin="76" yMin="0" xMax="619" yMax="696">
      <contour>
        <pt x="477" y="201" on="1"/>
        <pt x="218" y="201" on="1"/>
        <pt x="218" y="0" on="1"/>
        <pt x="76" y="0" on="1"/>
        <pt x="76" y="380" on="1"/>
        <pt x="76" y="516" on="0"/>
        <pt x="112" y="644" on="0"/>
        <pt x="224" y="696" on="0"/>
        <pt x="347" y="696" on="1"/>
        <pt x="471" y="696" on="0"/>
        <pt x="583" y="644" on="0"/>
        <pt x="619" y="517" on="0"/>
        <pt x="619" y="380" on="1"/>
        <pt x="619" y="0" on="1"/>
        <pt x="477" y="0" on="1"/>
      </contour>
      <contour>
        <pt x="477" y="493" on="0"/>
        <pt x="463" y="553" on="0"/>
        <pt x="412" y="575" on="0"/>
        <pt x="347" y="575" on="1"/>
        <pt x="283" y="575" on="0"/>
        <pt x="232" y="553" on="0"/>
        <pt x="218" y="493" on="0"/>
        <pt x="218" y="416" on="1"/>
        <pt x="218" y="326" on="1"/>
        <pt x="477" y="326" on="1"/>
        <pt x="477" y="416" on="1"/>
      </contour>
    </TTGlyph>
    <TTGlyph name="AE" xMin="-14" yMin="0" xMax="912" yMax="688">
      <contour>
        <pt x="465" y="148" on="1"/>
        <pt x="198" y="148" on="1"/>
        <pt x="128" y="0" on="1"/>
        <pt x="-14" y="0" on="1"/>
        <pt x="308" y="688" on="1"/>
        <pt x="912" y="688" on="1"/>
        <pt x="912" y="565" on="1"/>
        <pt x="524" y="565" on="1"/>
        <pt x="558" y="408" on="1"/>
        <pt x="865" y="408" on="1"/>
        <pt x="865" y="286" on="1"/>
        <pt x="581" y="286" on="1"/>
        <pt x="616" y="123" on="1"/>
        <pt x="912" y="123" on="1"/>
        <pt x="912" y="0" on="1"/>
        <pt x="496" y="0" on="1"/>
      </contour>
      <contour>
        <pt x="381" y="553" on="1"/>
        <pt x="250" y="271" on="1"/>
        <pt x="443" y="271" on="1"/>
        <pt x="386" y="553" on="1"/>
      </contour>
    </TTGlyph>
    <TTGlyph name="AEacute" xMin="-14" yMin="0" xMax="912" yMax="888">
      <component glyphName="AE" x="0" y="0" flags="0x0"/>
      <component glyphName="acutecomb.case" x="679" y="0" flags="0x0"/>
    </TTGlyph>
    <TTGlyph name="Aacute" xMin="15" yMin="0" xMax="672" yMax="894">
      <component glyphName="A" x="0" y="0" flags="0x0"/>
      <component glyphName="acute" x="243" y="151" flags="0x4"/>
    </TTGlyph>
    <TTGlyph name="Aacute.ss01" xMin="76" yMin="0" xMax="619" yMax="894">
      <component glyphName="A.ss01" x="0" y="0" flags="0x0"/>
      <component glyphName="acute" x="275" y="151" flags="0x4"/>
    </TTGlyph>
    <TTGlyph name="Abreve" xMin="15" yMin="0" xMax="672" yMax="888">
      <component glyphName="A" x="0" y="0" flags="0x0"/>
      <component glyphName="uni0306.case" x="511" y="0" flags="0x0"/>
    </TTGlyph>
    <TTGlyph name="Abreve.ss01" xMin="76" yMin="0" xMax="619" yMax="888">
      <component glyphName="A.ss01" x="0" y="0" flags="0x0"/>
      <component glyphName="uni0306.case" x="515" y="0" flags="0x0"/>
    </TTGlyph>
    <TTGlyph name="Acircumflex" xMin="15" yMin="0" xMax="672" yMax="895">
      <component glyphName="A" x="0" y="0" flags="0x0"/>
      <component glyphName="circumflex" x="162" y="152" flags="0x4"/>
    </TTGlyph>
    <TTGlyph name="Acircumflex.ss01" xMin="76" yMin="0" xMax="619" yMax="895">
      <component glyphName="A.ss01" x="0" y="0" flags="0x0"/>
      <component glyphName="circumflex" x="169" y="152" flags="0x4"/>
    </TTGlyph>
    <TTGlyph name="Adieresis" xMin="15" yMin="0" xMax="672" yMax="880">
      <component glyphName="A" x="0" y="0" flags="0x0"/>
      <component glyphName="dieresis" x="166" y="150" flags="0x4"/>
    </TTGlyph>
    <TTGlyph name="Adieresis.ss01" xMin="76" yMin="0" xMax="619" yMax="880">
      <component glyphName="A.ss01" x="0" y="0" flags="0x0"/>
      <component glyphName="dieresis" x="177" y="150" flags="0x4"/>
    </TTGlyph>
    <TTGlyph name="Agrave" xMin="15" yMin="0" xMax="672" yMax="894">
      <component glyphName="A" x="0" y="0" flags="0x0"/>
      <component glyphName="grave" x="168" y="151" flags="0x4"/>
    </TTGlyph>
    <TTGlyph name="Agrave.ss01" xMin="76" yMin="0" xMax="619" yMax="894">
      <component glyphName="A.ss01" x="0" y="0" flags="0x0"/>
      <component glyphName="grave" x="161" y="151" flags="0x4"/>
    </TTGlyph>
    <TTGlyph name="Amacron" xMin="15" yMin="0" xMax="672" yMax="887">
      <component glyphName="A" x="0" y="0" flags="0x0"/>
      <component glyphName="uni0304.case" x="529" y="0" flags="0x0"/>
    </TTGlyph>
    <TTGlyph name="Amacron.ss01" xMin="76" yMin="0" xMax="619" yMax="887">
      <component glyphName="A.ss01" x="0" y="0" flags="0x0"/>
      <component glyphName="uni0304.case" x="533" y="0" flags="0x0"/>
    </TTGlyph>
    <TTGlyph name="Aogonek" xMin="15" yMin="-196" xMax="670" yMax="688">
      <contour>
        <pt x="576" y="-100" on="0"/>
        <pt x="597" y="-119" on="0"/>
        <pt x="623" y="-119" on="1"/>
        <pt x="640" y="-118" on="1"/>
        <pt x="640" y="-193" on="1"/>
        <pt x="602" y="-196" on="0"/>
        <pt x="581" y="-196" on="1"/>
        <pt x="516" y="-196" on="0"/>
        <pt x="465" y="-151" on="0"/>
        <pt x="465" y="-113" on="1"/>
        <pt x="465" y="-85" on="0"/>
        <pt x="497" y="-25" on="0"/>
        <pt x="524" y="1" on="1"/>
        <pt x="474" y="148" on="1"/>
        <pt x="206" y="148" on="1"/>
        <pt x="157" y="0" on="1"/>
        <pt x="15" y="0" on="1"/>
        <pt x="246" y="688" on="1"/>
        <pt x="438" y="688" on="1"/>
        <pt x="670" y="0" on="1"/>
        <pt x="633" y="0" on="1"/>
        <pt x="611" y="-16" on="0"/>
        <pt x="576" y="-64" on="0"/>
        <pt x="576" y="-83" on="1"/>
      </contour>
      <contour>
        <pt x="437" y="267" on="1"/>
        <pt x="342" y="554" on="1"/>
        <pt x="337" y="554" on="1"/>
        <pt x="242" y="267" on="1"/>
      </contour>
    </TTGlyph>
    <TTGlyph name="Aogonek.ss01" xMin="76" yMin="-196" xMax="619" yMax="696">
      <contour>
        <pt x="564" y="-16" on="0"/>
        <pt x="529" y="-64" on="0"/>
        <pt x="529" y="-83" on="1"/>
        <pt x="529" y="-100" on="0"/>
        <pt x="550" y="-119" on="0"/>
        <pt x="576" y="-119" on="1"/>
        <pt x="587" y="-119" on="0"/>
        <pt x="593" y="-117" on="1"/>
        <pt x="593" y="-193" on="1"/>
        <pt x="567" y="-196" on="0"/>
        <pt x="534" y="-196" on="1"/>
        <pt x="469" y="-196" on="0"/>
        <pt x="418" y="-151" on="0"/>
        <pt x="418" y="-113" on="1"/>
        <pt x="418" y="-86" on="0"/>
        <pt x="450" y="-26" on="0"/>
        <pt x="477" y="1" on="1"/>
        <pt x="477" y="201" on="1"/>
        <pt x="218" y="201" on="1"/>
        <pt x="218" y="0" on="1"/>
        <pt x="76" y="0" on="1"/>
        <pt x="76" y="380" on="1"/>
        <pt x="76" y="516" on="0"/>
        <pt x="112" y="644" on="0"/>
        <pt x="224" y="696" on="0"/>
        <pt x="347" y="696" on="1"/>
        <pt x="471" y="696" on="0"/>
        <pt x="583" y="644" on="0"/>
        <pt x="619" y="517" on="0"/>
        <pt x="619" y="380" on="1"/>
        <pt x="619" y="0" on="1"/>
        <pt x="586" y="0" on="1"/>
      </contour>
      <contour>
        <pt x="477" y="326" on="1"/>
        <pt x="477" y="416" on="1"/>
        <pt x="477" y="493" on="0"/>
        <pt x="463" y="553" on="0"/>
        <pt x="412" y="575" on="0"/>
        <pt x="347" y="575" on="1"/>
        <pt x="283" y="575" on="0"/>
        <pt x="232" y="553" on="0"/>
        <pt x="218" y="493" on="0"/>
        <pt x="218" y="416" on="1"/>
        <pt x="218" y="326" on="1"/>
      </contour>
    </TTGlyph>
    <TTGlyph name="Aring" xMin="15" yMin="0" xMax="672" yMax="909">
      <contour>
        <pt x="672" y="0" on="1"/>
        <pt x="525" y="0" on="1"/>
        <pt x="475" y="148" on="1"/>
        <pt x="207" y="148" on="1"/>
        <pt x="158" y="0" on="1"/>
        <pt x="15" y="0" on="1"/>
        <pt x="251" y="689" on="1"/>
        <pt x="219" y="701" on="0"/>
        <pt x="201" y="746" on="0"/>
        <pt x="201" y="791" on="1"/>
        <pt x="201" y="838" on="0"/>
        <pt x="217" y="885" on="0"/>
        <pt x="277" y="909" on="0"/>
        <pt x="342" y="909" on="1"/>
        <pt x="409" y="909" on="0"/>
        <pt x="470" y="885" on="0"/>
        <pt x="486" y="838" on="0"/>
        <pt x="486" y="791" on="1"/>
        <pt x="486" y="746" on="0"/>
        <pt x="468" y="701" on="0"/>
        <pt x="436" y="689" on="1"/>
      </contour>
      <contour>
        <pt x="310" y="847" on="0"/>
        <pt x="283" y="837" on="0"/>
        <pt x="276" y="816" on="0"/>
        <pt x="276" y="791" on="1"/>
        <pt x="276" y="766" on="0"/>
        <pt x="283" y="744" on="0"/>
        <pt x="310" y="735" on="0"/>
        <pt x="342" y="735" on="1"/>
        <pt x="376" y="735" on="0"/>
        <pt x="404" y="744" on="0"/>
        <pt x="410" y="765" on="0"/>
        <pt x="410" y="791" on="1"/>
        <pt x="410" y="816" on="0"/>
        <pt x="404" y="837" on="0"/>
        <pt x="376" y="847" on="0"/>
        <pt x="342" y="847" on="1"/>
      </contour>
      <contour>
        <pt x="437" y="272" on="1"/>
        <pt x="343" y="554" on="1"/>
        <pt x="338" y="554" on="1"/>
        <pt x="245" y="272" on="1"/>
      </contour>
    </TTGlyph>
    <TTGlyph name="Aring.ss01" xMin="76" yMin="0" xMax="619" yMax="965">
      <component glyphName="A.ss01" x="0" y="0" flags="0x0"/>
      <component glyphName="ring" x="190" y="138" flags="0x4"/>
    </TTGlyph>
    <TTGlyph name="Aringacute" xMin="15" yMin="0" xMax="672" yMax="1109">
      <component glyphName="Aring" x="0" y="0" flags="0x0"/>
      <component glyphName="acutecomb.case" x="536" y="221" flags="0x4"/>
    </TTGlyph>
    <TTGlyph name="Aringacute.ss01" xMin="76" yMin="0" xMax="619" yMax="1112">
      <component glyphName="A.ss01" x="0" y="0" flags="0x0"/>
      <component glyphName="uni030A.case" x="509" y="0" flags="0x0"/>
      <component glyphName="acutecomb.case" x="544" y="224" flags="0x4"/>
    </TTGlyph>
    <TTGlyph name="Atilde" xMin="15" yMin="0" xMax="672" yMax="898">
      <component glyphName="A" x="0" y="0" flags="0x0"/>
      <component glyphName="tilde" x="132" y="154" flags="0x4"/>
    </TTGlyph>
    <TTGlyph name="Atilde.ss01" xMin="76" yMin="0" xMax="619" yMax="897">
      <component glyphName="A.ss01" x="0" y="0" flags="0x0"/>
      <component glyphName="tilde" x="140" y="153" flags="0x4"/>
    </TTGlyph>
    <TTGlyph name="B" xMin="83" yMin="0" xMax="620" yMax="688">
      <contour>
        <pt x="83" y="688" on="1"/>
        <pt x="419" y="688" on="1"/>
        <pt x="519" y="688" on="0"/>
        <pt x="613" y="601" on="0"/>
        <pt x="613" y="515" on="1"/>
        <pt x="613" y="443" on="0"/>
        <pt x="557" y="367" on="0"/>
        <pt x="495" y="353" on="1"/>
        <pt x="495" y="349" on="1"/>
        <pt x="563" y="335" on="0"/>
        <pt x="620" y="259" on="0"/>
        <pt x="620" y="183" on="1"/>
        <pt x="620" y="94" on="0"/>
        <pt x="529" y="0" on="0"/>
        <pt x="419" y="0" on="1"/>
        <pt x="83" y="0" on="1"/>
      </contour>
      <contour>
        <pt x="426" y="409" on="0"/>
        <pt x="469" y="442" on="0"/>
        <pt x="469" y="486" on="1"/>
        <pt x="469" y="519" on="0"/>
        <pt x="453" y="552" on="0"/>
        <pt x="411" y="565" on="0"/>
        <pt x="368" y="565" on="1"/>
        <pt x="225" y="565" on="1"/>
        <pt x="225" y="409" on="1"/>
        <pt x="368" y="409" on="1"/>
      </contour>
      <contour>
        <pt x="415" y="123" on="0"/>
        <pt x="459" y="137" on="0"/>
        <pt x="476" y="171" on="0"/>
        <pt x="476" y="204" on="1"/>
        <pt x="476" y="237" on="0"/>
        <pt x="458" y="272" on="0"/>
        <pt x="415" y="286" on="0"/>
        <pt x="373" y="286" on="1"/>
        <pt x="225" y="286" on="1"/>
        <pt x="225" y="123" on="1"/>
        <pt x="373" y="123" on="1"/>
      </contour>
    </TTGlyph>
    <TTGlyph name="C" xMin="62" yMin="-8" xMax="525" yMax="696">
      <contour>
        <pt x="491" y="1" on="0"/>
        <pt x="392" y="-8" on="0"/>
        <pt x="350" y="-8" on="1"/>
        <pt x="223" y="-8" on="0"/>
        <pt x="102" y="54" on="0"/>
        <pt x="62" y="198" on="0"/>
        <pt x="62" y="344" on="1"/>
        <pt x="62" y="488" on="0"/>
        <pt x="102" y="633" on="0"/>
        <pt x="223" y="696" on="0"/>
        <pt x="350" y="696" on="1"/>
        <pt x="393" y="696" on="0"/>
        <pt x="489" y="686" on="0"/>
        <pt x="521" y="678" on="1"/>
        <pt x="521" y="563" on="1"/>
        <pt x="434" y="573" on="0"/>
        <pt x="386" y="573" on="1"/>
        <pt x="295" y="573" on="0"/>
        <pt x="225" y="546" on="0"/>
        <pt x="205" y="458" on="0"/>
        <pt x="205" y="344" on="1"/>
        <pt x="205" y="230" on="0"/>
        <pt x="225" y="142" on="0"/>
        <pt x="295" y="115" on="0"/>
        <pt x="386" y="115" on="1"/>
        <pt x="462" y="115" on="0"/>
        <pt x="525" y="125" on="1"/>
        <pt x="525" y="8" on="1"/>
      </contour>
    </TTGlyph>
    <TTGlyph name="Cacute" xMin="62" yMin="-8" xMax="525" yMax="888">
      <component glyphName="C" x="0" y="0" flags="0x0"/>
      <component glyphName="acutecomb.case" x="481" y="0" flags="0x0"/>
    </TTGlyph>
    <TTGlyph name="Cacute.loclPLK" xMin="62" yMin="-8" xMax="525" yMax="888">
      <component glyphName="C" x="0" y="0" flags="0x0"/>
      <component glyphName="acute.case.loclPLK" x="214" y="0" flags="0x0"/>
    </TTGlyph>
    <TTGlyph name="Ccaron" xMin="62" yMin="-8" xMax="525" yMax="888">
      <component glyphName="C" x="0" y="0" flags="0x0"/>
      <component glyphName="uni030C.case" x="468" y="0" flags="0x0"/>
    </TTGlyph>
    <TTGlyph name="Ccedilla" xMin="62" yMin="-190" xMax="525" yMax="696">
      <contour>
        <pt x="462" y="115" on="0"/>
        <pt x="525" y="125" on="1"/>
        <pt x="525" y="8" on="1"/>
        <pt x="491" y="1" on="0"/>
        <pt x="392" y="-8" on="0"/>
        <pt x="350" y="-8" on="1"/>
        <pt x="330" y="-8" on="1"/>
        <pt x="295" y="-190" on="1"/>
        <pt x="170" y="-190" on="1"/>
        <pt x="170" y="-185" on="1"/>
        <pt x="239" y="0" on="1"/>
        <pt x="163" y="12" on="0"/>
        <pt x="88" y="87" on="0"/>
        <pt x="62" y="222" on="0"/>
        <pt x="62" y="344" on="1"/>
        <pt x="62" y="488" on="0"/>
        <pt x="102" y="633" on="0"/>
        <pt x="223" y="696" on="0"/>
        <pt x="350" y="696" on="1"/>
        <pt x="393" y="696" on="0"/>
        <pt x="489" y="686" on="0"/>
        <pt x="521" y="678" on="1"/>
        <pt x="521" y="563" on="1"/>
        <pt x="434" y="573" on="0"/>
        <pt x="386" y="573" on="1"/>
        <pt x="295" y="573" on="0"/>
        <pt x="225" y="546" on="0"/>
        <pt x="205" y="458" on="0"/>
        <pt x="205" y="344" on="1"/>
        <pt x="205" y="230" on="0"/>
        <pt x="225" y="142" on="0"/>
        <pt x="295" y="115" on="0"/>
        <pt x="386" y="115" on="1"/>
      </contour>
    </TTGlyph>
    <TTGlyph name="Ccircumflex" xMin="62" yMin="-8" xMax="525" yMax="888">
      <component glyphName="C" x="0" y="0" flags="0x0"/>
      <component glyphName="uni0302.case" x="468" y="0" flags="0x0"/>
    </TTGlyph>
    <TTGlyph name="Cdotaccent" xMin="62" yMin="-8" xMax="525" yMax="875">
      <component glyphName="C" x="0" y="0" flags="0x0"/>
      <component glyphName="uni0307.case" x="363" y="0" flags="0x0"/>
    </TTGlyph>
    <TTGlyph name="D" xMin="83" yMin="0" xMax="624" yMax="688">
      <contour>
        <pt x="83" y="688" on="1"/>
        <pt x="317" y="688" on="1"/>
        <pt x="465" y="688" on="0"/>
        <pt x="592" y="629" on="0"/>
        <pt x="624" y="497" on="0"/>
        <pt x="624" y="344" on="1"/>
        <pt x="624" y="191" on="0"/>
        <pt x="592" y="59" on="0"/>
        <pt x="465" y="0" on="0"/>
        <pt x="317" y="0" on="1"/>
        <pt x="83" y="0" on="1"/>
      </contour>
      <contour>
        <pt x="310" y="123" on="1"/>
        <pt x="401" y="123" on="0"/>
        <pt x="463" y="143" on="0"/>
        <pt x="480" y="225" on="0"/>
        <pt x="480" y="344" on="1"/>
        <pt x="480" y="462" on="0"/>
        <pt x="462" y="545" on="0"/>
        <pt x="401" y="565" on="0"/>
        <pt x="310" y="565" on="1"/>
        <pt x="225" y="565" on="1"/>
        <pt x="225" y="123" on="1"/>
      </contour>
    </TTGlyph>
    <TTGlyph name="Dcaron" xMin="83" yMin="0" xMax="624" yMax="888">
      <component glyphName="D" x="0" y="0" flags="0x0"/>
      <component glyphName="uni030C.case" x="524" y="0" flags="0x0"/>
    </TTGlyph>
    <TTGlyph name="Dcroat" xMin="16" yMin="0" xMax="624" yMax="688">
      <component glyphName="Eth" x="0" y="0" flags="0x0"/>
    </TTGlyph>
    <TTGlyph name="E" xMin="83" yMin="0" xMax="556" yMax="688">
      <contour>
        <pt x="83" y="688" on="1"/>
        <pt x="556" y="688" on="1"/>
        <pt x="556" y="565" on="1"/>
        <pt x="225" y="565" on="1"/>
        <pt x="225" y="409" on="1"/>
        <pt x="509" y="409" on="1"/>
        <pt x="509" y="286" on="1"/>
        <pt x="225" y="286" on="1"/>
        <pt x="225" y="123" on="1"/>
        <pt x="556" y="123" on="1"/>
        <pt x="556" y="0" on="1"/>
        <pt x="83" y="0" on="1"/>
      </contour>
    </TTGlyph>
    <TTGlyph name="Eacute" xMin="83" yMin="0" xMax="556" yMax="894">
      <component glyphName="E" x="0" y="0" flags="0x0"/>
      <component glyphName="acute" x="250" y="151" flags="0x4"/>
    </TTGlyph>
    <TTGlyph name="Ebreve" xMin="83" yMin="0" xMax="556" yMax="888">
      <component glyphName="E" x="0" y="0" flags="0x0"/>
      <component glyphName="uni0306.case" x="482" y="0" flags="0x0"/>
    </TTGlyph>
    <TTGlyph name="Ecaron" xMin="83" yMin="0" xMax="556" yMax="888">
      <component glyphName="E" x="0" y="0" flags="0x0"/>
      <component glyphName="uni030C.case" x="496" y="0" flags="0x0"/>
    </TTGlyph>
    <TTGlyph name="Ecircumflex" xMin="83" yMin="0" xMax="556" yMax="895">
      <component glyphName="E" x="0" y="0" flags="0x0"/>
      <component glyphName="circumflex" x="133" y="152" flags="0x4"/>
    </TTGlyph>
    <TTGlyph name="Edieresis" xMin="83" yMin="0" xMax="556" yMax="875">
      <component glyphName="E" x="0" y="0" flags="0x0"/>
      <component glyphName="dieresis" x="143" y="145" flags="0x4"/>
    </TTGlyph>
    <TTGlyph name="Edotaccent" xMin="83" yMin="0" xMax="556" yMax="875">
      <component glyphName="E" x="0" y="0" flags="0x0"/>
      <component glyphName="uni0307.case" x="391" y="0" flags="0x0"/>
    </TTGlyph>
    <TTGlyph name="Egrave" xMin="83" yMin="0" xMax="556" yMax="894">
      <component glyphName="E" x="0" y="0" flags="0x0"/>
      <component glyphName="grave" x="141" y="151" flags="0x4"/>
    </TTGlyph>
    <TTGlyph name="Emacron" xMin="83" yMin="0" xMax="556" yMax="887">
      <component glyphName="E" x="0" y="0" flags="0x0"/>
      <component glyphName="uni0304.case" x="500" y="0" flags="0x0"/>
    </TTGlyph>
    <TTGlyph name="Eng" xMin="82" yMin="-200" xMax="640" yMax="688">
      <contour>
        <pt x="640" y="688" on="1"/>
        <pt x="640" y="-15" on="1"/>
        <pt x="640" y="-101" on="0"/>
        <pt x="603" y="-177" on="0"/>
        <pt x="514" y="-200" on="0"/>
        <pt x="416" y="-200" on="1"/>
        <pt x="416" y="-98" on="1"/>
        <pt x="456" y="-98" on="0"/>
        <pt x="493" y="-88" on="0"/>
        <pt x="503" y="-67" on="0"/>
        <pt x="503" y="-45" on="1"/>
        <pt x="503" y="3" on="1"/>
        <pt x="223" y="437" on="1"/>
        <pt x="219" y="437" on="1"/>
        <pt x="219" y="0" on="1"/>
        <pt x="82" y="0" on="1"/>
        <pt x="82" y="688" on="1"/>
        <pt x="229" y="688" on="1"/>
        <pt x="498" y="276" on="1"/>
        <pt x="503" y="276" on="1"/>
        <pt x="503" y="688" on="1"/>
      </contour>
    </TTGlyph>
    <TTGlyph name="Eogonek" xMin="82" yMin="-196" xMax="551" yMax="688">
      <contour>
        <pt x="370" y="-196" on="0"/>
        <pt x="370" y="-116" on="1"/>
        <pt x="370" y="-60" on="0"/>
        <pt x="439" y="0" on="1"/>
        <pt x="82" y="0" on="1"/>
        <pt x="82" y="688" on="1"/>
        <pt x="551" y="688" on="1"/>
        <pt x="551" y="568" on="1"/>
        <pt x="224" y="568" on="1"/>
        <pt x="224" y="407" on="1"/>
        <pt x="504" y="407" on="1"/>
        <pt x="504" y="287" on="1"/>
        <pt x="224" y="287" on="1"/>
        <pt x="224" y="120" on="1"/>
        <pt x="551" y="120" on="1"/>
        <pt x="551" y="0" on="1"/>
        <pt x="524" y="-15" on="0"/>
        <pt x="481" y="-63" on="0"/>
        <pt x="481" y="-86" on="1"/>
        <pt x="481" y="-100" on="0"/>
        <pt x="502" y="-119" on="0"/>
        <pt x="526" y="-119" on="1"/>
        <pt x="545" y="-118" on="1"/>
        <pt x="545" y="-193" on="1"/>
        <pt x="543" y="-193" on="0"/>
        <pt x="506" y="-196" on="0"/>
        <pt x="487" y="-196" on="1"/>
      </contour>
    </TTGlyph>
    <TTGlyph name="Eth" xMin="16" yMin="0" xMax="624" yMax="688">
      <contour>
        <pt x="83" y="295" on="1"/>
        <pt x="16" y="295" on="1"/>
        <pt x="16" y="401" on="1"/>
        <pt x="83" y="401" on="1"/>
        <pt x="83" y="688" on="1"/>
        <pt x="317" y="688" on="1"/>
        <pt x="465" y="688" on="0"/>
        <pt x="592" y="629" on="0"/>
        <pt x="624" y="497" on="0"/>
        <pt x="624" y="344" on="1"/>
        <pt x="624" y="191" on="0"/>
        <pt x="592" y="59" on="0"/>
        <pt x="465" y="0" on="0"/>
        <pt x="317" y="0" on="1"/>
        <pt x="83" y="0" on="1"/>
      </contour>
      <contour>
        <pt x="401" y="123" on="0"/>
        <pt x="463" y="143" on="0"/>
        <pt x="480" y="225" on="0"/>
        <pt x="480" y="344" on="1"/>
        <pt x="480" y="462" on="0"/>
        <pt x="462" y="545" on="0"/>
        <pt x="401" y="565" on="0"/>
        <pt x="310" y="565" on="1"/>
        <pt x="225" y="565" on="1"/>
        <pt x="225" y="401" on="1"/>
        <pt x="318" y="401" on="1"/>
        <pt x="318" y="295" on="1"/>
        <pt x="225" y="295" on="1"/>
        <pt x="225" y="123" on="1"/>
        <pt x="310" y="123" on="1"/>
      </contour>
    </TTGlyph>
    <TTGlyph name="Euro" xMin="33" yMin="-8" xMax="564" yMax="696">
      <contour>
        <pt x="286" y="-8" on="0"/>
        <pt x="171" y="33" on="0"/>
        <pt x="120" y="133" on="0"/>
        <pt x="114" y="229" on="1"/>
        <pt x="33" y="229" on="1"/>
        <pt x="33" y="308" on="1"/>
        <pt x="111" y="308" on="1"/>
        <pt x="111" y="382" on="1"/>
        <pt x="33" y="382" on="1"/>
        <pt x="33" y="460" on="1"/>
        <pt x="114" y="460" on="1"/>
        <pt x="121" y="550" on="0"/>
        <pt x="173" y="651" on="0"/>
        <pt x="289" y="696" on="0"/>
        <pt x="393" y="696" on="1"/>
        <pt x="452" y="696" on="0"/>
        <pt x="548" y="683" on="0"/>
        <pt x="560" y="679" on="1"/>
        <pt x="560" y="568" on="1"/>
        <pt x="544" y="570" on="0"/>
        <pt x="462" y="577" on="0"/>
        <pt x="428" y="577" on="1"/>
        <pt x="357" y="577" on="0"/>
        <pt x="291" y="562" on="0"/>
        <pt x="260" y="514" on="0"/>
        <pt x="256" y="460" on="1"/>
        <pt x="512" y="460" on="1"/>
        <pt x="512" y="382" on="1"/>
        <pt x="253" y="382" on="1"/>
        <pt x="253" y="308" on="1"/>
        <pt x="512" y="308" on="1"/>
        <pt x="512" y="229" on="1"/>
        <pt x="256" y="229" on="1"/>
        <pt x="260" y="175" on="0"/>
        <pt x="291" y="126" on="0"/>
        <pt x="357" y="111" on="0"/>
        <pt x="428" y="111" on="1"/>
        <pt x="474" y="111" on="0"/>
        <pt x="554" y="118" on="0"/>
        <pt x="564" y="120" on="1"/>
        <pt x="564" y="7" on="1"/>
        <pt x="554" y="4" on="0"/>
        <pt x="452" y="-8" on="0"/>
        <pt x="393" y="-8" on="1"/>
      </contour>
    </TTGlyph>
    <TTGlyph name="F" xMin="83" yMin="0" xMax="536" yMax="688">
      <contour>
        <pt x="83" y="688" on="1"/>
        <pt x="536" y="688" on="1"/>
        <pt x="536" y="565" on="1"/>
        <pt x="225" y="565" on="1"/>
        <pt x="225" y="390" on="1"/>
        <pt x="499" y="390" on="1"/>
        <pt x="499" y="267" on="1"/>
        <pt x="225" y="267" on="1"/>
        <pt x="225" y="0" on="1"/>
        <pt x="83" y="0" on="1"/>
      </contour>
    </TTGlyph>
    <TTGlyph name="G" xMin="62" yMin="-8" xMax="595" yMax="696">
      <contour>
        <pt x="346" y="276" on="1"/>
        <pt x="346" y="394" on="1"/>
        <pt x="595" y="394" on="1"/>
        <pt x="595" y="15" on="1"/>
        <pt x="542" y="5" on="0"/>
        <pt x="414" y="-8" on="0"/>
        <pt x="365" y="-8" on="1"/>
        <pt x="235" y="-8" on="0"/>
        <pt x="110" y="47" on="0"/>
        <pt x="62" y="193" on="0"/>
        <pt x="62" y="344" on="1"/>
        <pt x="62" y="487" on="0"/>
        <pt x="110" y="634" on="0"/>
        <pt x="238" y="696" on="0"/>
        <pt x="365" y="696" on="1"/>
        <pt x="411" y="696" on="0"/>
        <pt x="500" y="686" on="0"/>
        <pt x="563" y="677" on="1"/>
        <pt x="592" y="673" on="1"/>
        <pt x="592" y="558" on="1"/>
        <pt x="555" y="562" on="1"/>
        <pt x="460" y="573" on="0"/>
        <pt x="421" y="573" on="1"/>
        <pt x="315" y="573" on="0"/>
        <pt x="234" y="551" on="0"/>
        <pt x="205" y="460" on="0"/>
        <pt x="205" y="344" on="1"/>
        <pt x="205" y="239" on="0"/>
        <pt x="227" y="146" on="0"/>
        <pt x="294" y="112" on="0"/>
        <pt x="370" y="112" on="1"/>
        <pt x="426" y="112" on="0"/>
        <pt x="459" y="115" on="1"/>
        <pt x="459" y="276" on="1"/>
      </contour>
    </TTGlyph>
    <TTGlyph name="G.ss01" xMin="62" yMin="-8" xMax="625" yMax="696">
      <contour>
        <pt x="233" y="-8" on="0"/>
        <pt x="106" y="52" on="0"/>
        <pt x="62" y="196" on="0"/>
        <pt x="62" y="344" on="1"/>
        <pt x="62" y="489" on="0"/>
        <pt x="112" y="636" on="0"/>
        <pt x="243" y="696" on="0"/>
        <pt x="372" y="696" on="1"/>
        <pt x="422" y="696" on="0"/>
        <pt x="549" y="684" on="0"/>
        <pt x="599" y="674" on="1"/>
        <pt x="599" y="561" on="1"/>
        <pt x="482" y="576" on="0"/>
        <pt x="427" y="576" on="1"/>
        <pt x="317" y="576" on="0"/>
        <pt x="234" y="553" on="0"/>
        <pt x="204" y="462" on="0"/>
        <pt x="204" y="344" on="1"/>
        <pt x="204" y="233" on="0"/>
        <pt x="226" y="139" on="0"/>
        <pt x="286" y="111" on="0"/>
        <pt x="357" y="111" on="1"/>
        <pt x="423" y="111" on="0"/>
        <pt x="472" y="128" on="0"/>
        <pt x="485" y="183" on="0"/>
        <pt x="485" y="258" on="1"/>
        <pt x="485" y="286" on="1"/>
        <pt x="363" y="286" on="1"/>
        <pt x="363" y="401" on="1"/>
        <pt x="625" y="401" on="1"/>
        <pt x="625" y="283" on="1"/>
        <pt x="625" y="153" on="0"/>
        <pt x="600" y="43" on="0"/>
        <pt x="492" y="-8" on="0"/>
        <pt x="365" y="-8" on="1"/>
      </contour>
    </TTGlyph>
    <TTGlyph name="G_tilde.loclGUA" xMin="62" yMin="-8" xMax="595" yMax="889">
      <component glyphName="G" x="0" y="0" flags="0x0"/>
      <component glyphName="tildecomb.case" x="546" y="0" flags="0x0"/>
    </TTGlyph>
    <TTGlyph name="Gbreve" xMin="62" yMin="-8" xMax="595" yMax="888">
      <component glyphName="G" x="0" y="0" flags="0x0"/>
      <component glyphName="uni0306.case" x="502" y="0" flags="0x0"/>
    </TTGlyph>
    <TTGlyph name="Gbreve.ss01" xMin="62" yMin="-8" xMax="625" yMax="888">
      <component glyphName="G.ss01" x="0" y="0" flags="0x0"/>
      <component glyphName="uni0306.case" x="511" y="0" flags="0x0"/>
    </TTGlyph>
    <TTGlyph name="Gcaron" xMin="62" yMin="-8" xMax="595" yMax="888">
      <component glyphName="G" x="0" y="0" flags="0x0"/>
      <component glyphName="uni030C.case" x="516" y="0" flags="0x0"/>
    </TTGlyph>
    <TTGlyph name="Gcaron.ss01" xMin="62" yMin="-8" xMax="625" yMax="888">
      <component glyphName="G.ss01" x="0" y="0" flags="0x0"/>
      <component glyphName="uni030C.case" x="525" y="0" flags="0x0"/>
    </TTGlyph>
    <TTGlyph name="Gcircumflex" xMin="62" yMin="-8" xMax="595" yMax="888">
      <component glyphName="G" x="0" y="0" flags="0x0"/>
      <component glyphName="uni0302.case" x="516" y="0" flags="0x0"/>
    </TTGlyph>
    <TTGlyph name="Gcircumflex.ss01" xMin="62" yMin="-8" xMax="625" yMax="888">
      <component glyphName="G.ss01" x="0" y="0" flags="0x0"/>
      <component glyphName="uni0302.case" x="525" y="0" flags="0x0"/>
    </TTGlyph>
    <TTGlyph name="Gcommaaccent" xMin="62" yMin="-289" xMax="595" yMax="696">
      <component glyphName="G" x="0" y="0" flags="0x0"/>
      <component glyphName="uni0326" x="474" y="0" flags="0x0"/>
    </TTGlyph>
    <TTGlyph name="Gcommaaccent.ss01" xMin="62" yMin="-289" xMax="625" yMax="696">
      <component glyphName="G.ss01" x="0" y="0" flags="0x0"/>
      <component glyphName="uni0326" x="483" y="0" flags="0x0"/>
    </TTGlyph>
    <TTGlyph name="Gdotaccent" xMin="62" yMin="-8" xMax="595" yMax="875">
      <component glyphName="G" x="0" y="0" flags="0x0"/>
      <component glyphName="uni0307.case" x="411" y="0" flags="0x0"/>
    </TTGlyph>
    <TTGlyph name="Gdotaccent.ss01" xMin="62" yMin="-8" xMax="625" yMax="875">
      <component glyphName="G.ss01" x="0" y="0" flags="0x0"/>
      <component glyphName="uni0307.case" x="420" y="0" flags="0x0"/>
    </TTGlyph>
    <TTGlyph name="Gtilde.loclGUA.ss01" xMin="62" yMin="-8" xMax="625" yMax="889">
      <component glyphName="G.ss01" x="0" y="0" flags="0x0"/>
      <component glyphName="tildecomb.case" x="555" y="0" flags="0x0"/>
    </TTGlyph>
    <TTGlyph name="H" xMin="82" yMin="0" xMax="639" yMax="688">
      <contour>
        <pt x="496" y="282" on="1"/>
        <pt x="224" y="282" on="1"/>
        <pt x="224" y="0" on="1"/>
        <pt x="82" y="0" on="1"/>
        <pt x="82" y="688" on="1"/>
        <pt x="224" y="688" on="1"/>
        <pt x="224" y="410" on="1"/>
        <pt x="496" y="410" on="1"/>
        <pt x="496" y="688" on="1"/>
        <pt x="639" y="688" on="1"/>
        <pt x="639" y="0" on="1"/>
        <pt x="496" y="0" on="1"/>
      </contour>
    </TTGlyph>
    <TTGlyph name="Hbar" xMin="82" yMin="0" xMax="639" yMax="688">
      <contour>
        <pt x="639" y="688" on="1"/>
        <pt x="639" y="0" on="1"/>
        <pt x="496" y="0" on="1"/>
        <pt x="496" y="242" on="1"/>
        <pt x="224" y="242" on="1"/>
        <pt x="224" y="0" on="1"/>
        <pt x="82" y="0" on="1"/>
        <pt x="82" y="688" on="1"/>
        <pt x="224" y="688" on="1"/>
        <pt x="224" y="578" on="1"/>
        <pt x="496" y="578" on="1"/>
        <pt x="496" y="688" on="1"/>
      </contour>
      <contour>
        <pt x="496" y="370" on="1"/>
        <pt x="496" y="472" on="1"/>
        <pt x="224" y="472" on="1"/>
        <pt x="224" y="370" on="1"/>
      </contour>
    </TTGlyph>
    <TTGlyph name="Hcircumflex" xMin="82" yMin="0" xMax="639" yMax="888">
      <component glyphName="H" x="0" y="0" flags="0x0"/>
      <component glyphName="uni0302.case" x="541" y="0" flags="0x0"/>
    </TTGlyph>
    <TTGlyph name="I" xMin="82" yMin="0" xMax="224" yMax="688">
      <contour>
        <pt x="82" y="688" on="1"/>
        <pt x="224" y="688" on="1"/>
        <pt x="224" y="0" on="1"/>
        <pt x="82" y="0" on="1"/>
      </contour>
    </TTGlyph>
    <TTGlyph name="IJ" xMin="82" yMin="0" xMax="617" yMax="688">
      <component glyphName="I" x="0" y="0" flags="0x0"/>
      <component glyphName="J" x="306" y="0" flags="0x0"/>
    </TTGlyph>
    <TTGlyph name="Iacute" xMin="82" yMin="0" xMax="314" yMax="894">
      <component glyphName="I" x="0" y="0" flags="0x0"/>
      <component glyphName="acute" x="66" y="151" flags="0x4"/>
    </TTGlyph>
    <TTGlyph name="Iacute_J.loclNLD" xMin="82" yMin="0" xMax="720" yMax="888">
      <component glyphName="I" x="0" y="0" flags="0x0"/>
      <component glyphName="acutecomb.case" x="347" y="0" flags="0x0"/>
      <component glyphName="J" x="306" y="0" flags="0x0"/>
      <component glyphName="acutecomb.case" x="739" y="0" flags="0x0"/>
    </TTGlyph>
    <TTGlyph name="Ibreve" xMin="5" yMin="0" xMax="300" yMax="888">
      <component glyphName="I" x="0" y="0" flags="0x0"/>
      <component glyphName="uni0306.case" x="320" y="0" flags="0x0"/>
    </TTGlyph>
    <TTGlyph name="Icircumflex" xMin="-7" yMin="0" xMax="314" yMax="895">
      <component glyphName="I" x="0" y="0" flags="0x0"/>
      <component glyphName="circumflex" x="-27" y="152" flags="0x4"/>
    </TTGlyph>
    <TTGlyph name="Idieresis" xMin="-3" yMin="0" xMax="310" yMax="880">
      <component glyphName="I" x="0" y="0" flags="0x0"/>
      <component glyphName="dieresis" x="-22" y="150" flags="0x4"/>
    </TTGlyph>
    <TTGlyph name="Idotaccent" xMin="82" yMin="0" xMax="224" yMax="875">
      <component glyphName="I" x="0" y="0" flags="0x0"/>
      <component glyphName="uni0307.case" x="229" y="0" flags="0x0"/>
    </TTGlyph>
    <TTGlyph name="Igrave" xMin="-1" yMin="0" xMax="227" yMax="894">
      <component glyphName="I" x="0" y="0" flags="0x0"/>
      <component glyphName="grave" x="-21" y="151" flags="0x4"/>
    </TTGlyph>
    <TTGlyph name="Imacron" xMin="21" yMin="0" xMax="284" yMax="887">
      <component glyphName="I" x="0" y="0" flags="0x0"/>
      <component glyphName="uni0304.case" x="338" y="0" flags="0x0"/>
    </TTGlyph>
    <TTGlyph name="Iogonek" xMin="50" yMin="-196" xMax="225" yMax="688">
      <contour>
        <pt x="50" y="-196" on="0"/>
        <pt x="50" y="-114" on="1"/>
        <pt x="50" y="-86" on="0"/>
        <pt x="84" y="-27" on="0"/>
        <pt x="112" y="0" on="1"/>
        <pt x="82" y="0" on="1"/>
        <pt x="82" y="688" on="1"/>
        <pt x="224" y="688" on="1"/>
        <pt x="224" y="0" on="1"/>
        <pt x="202" y="-14" on="0"/>
        <pt x="162" y="-63" on="0"/>
        <pt x="162" y="-84" on="1"/>
        <pt x="162" y="-101" on="0"/>
        <pt x="182" y="-119" on="0"/>
        <pt x="208" y="-119" on="1"/>
        <pt x="225" y="-118" on="1"/>
        <pt x="225" y="-193" on="1"/>
        <pt x="223" y="-193" on="0"/>
        <pt x="186" y="-196" on="0"/>
        <pt x="167" y="-196" on="1"/>
      </contour>
    </TTGlyph>
    <TTGlyph name="Itilde" xMin="-38" yMin="0" xMax="343" yMax="889">
      <component glyphName="I" x="0" y="0" flags="0x0"/>
      <component glyphName="tildecomb.case" x="364" y="0" flags="0x0"/>
    </TTGlyph>
    <TTGlyph name="J" xMin="26" yMin="0" xMax="311" yMax="688">
      <contour>
        <pt x="101" y="115" on="0"/>
        <pt x="155" y="131" on="0"/>
        <pt x="168" y="184" on="0"/>
        <pt x="168" y="261" on="1"/>
        <pt x="168" y="688" on="1"/>
        <pt x="311" y="688" on="1"/>
        <pt x="311" y="301" on="1"/>
        <pt x="311" y="143" on="0"/>
        <pt x="281" y="31" on="0"/>
        <pt x="176" y="1" on="0"/>
        <pt x="26" y="0" on="1"/>
        <pt x="26" y="114" on="1"/>
      </contour>
    </TTGlyph>
    <TTGlyph name="Jcircumflex" xMin="26" yMin="0" xMax="400" yMax="888">
      <component glyphName="J" x="0" y="0" flags="0x0"/>
      <component glyphName="uni0302.case" x="420" y="0" flags="0x0"/>
    </TTGlyph>
    <TTGlyph name="K" xMin="83" yMin="0" xMax="667" yMax="688">
      <contour>
        <pt x="294" y="289" on="1"/>
        <pt x="225" y="289" on="1"/>
        <pt x="225" y="0" on="1"/>
        <pt x="83" y="0" on="1"/>
        <pt x="83" y="688" on="1"/>
        <pt x="225" y="688" on="1"/>
        <pt x="225" y="412" on="1"/>
        <pt x="294" y="412" on="1"/>
        <pt x="507" y="688" on="1"/>
        <pt x="664" y="688" on="1"/>
        <pt x="408" y="360" on="1"/>
        <pt x="667" y="0" on="1"/>
        <pt x="503" y="0" on="1"/>
      </contour>
    </TTGlyph>
    <TTGlyph name="Kcommaaccent" xMin="83" yMin="-289" xMax="667" yMax="688">
      <component glyphName="K" x="0" y="0" flags="0x0"/>
      <component glyphName="uni0326" x="479" y="0" flags="0x0"/>
    </TTGlyph>
    <TTGlyph name="L" xMin="83" yMin="0" xMax="516" yMax="688">
      <contour>
        <pt x="83" y="688" on="1"/>
        <pt x="225" y="688" on="1"/>
        <pt x="225" y="129" on="1"/>
        <pt x="516" y="129" on="1"/>
        <pt x="516" y="0" on="1"/>
        <pt x="83" y="0" on="1"/>
      </contour>
    </TTGlyph>
    <TTGlyph name="Lacute" xMin="83" yMin="0" xMax="516" yMax="888">
      <component glyphName="L" x="0" y="0" flags="0x0"/>
      <component glyphName="acutecomb.case" x="394" y="0" flags="0x0"/>
    </TTGlyph>
    <TTGlyph name="Lcaron" xMin="83" yMin="0" xMax="557" yMax="804">
      <component glyphName="L" x="0" y="0" flags="0x0"/>
      <component glyphName="caron.loclCSY" x="370" y="116" flags="0x4"/>
    </TTGlyph>
    <TTGlyph name="Lcommaaccent" xMin="83" yMin="-289" xMax="516" yMax="688">
      <component glyphName="L" x="0" y="0" flags="0x0"/>
      <component glyphName="uni0326" x="422" y="0" flags="0x0"/>
    </TTGlyph>
    <TTGlyph name="Ldot" xMin="83" yMin="0" xMax="516" yMax="688">
      <component glyphName="L" x="0" y="0" flags="0x0"/>
      <component glyphName="periodcentered" x="287" y="77" flags="0x4"/>
    </TTGlyph>
    <TTGlyph name="Lslash" xMin="23" yMin="0" xMax="516" yMax="688">
      <contour>
        <pt x="516" y="129" on="1"/>
        <pt x="516" y="0" on="1"/>
        <pt x="83" y="0" on="1"/>
        <pt x="83" y="269" on="1"/>
        <pt x="23" y="246" on="1"/>
        <pt x="23" y="351" on="1"/>
        <pt x="83" y="374" on="1"/>
        <pt x="83" y="688" on="1"/>
        <pt x="225" y="688" on="1"/>
        <pt x="225" y="427" on="1"/>
        <pt x="387" y="488" on="1"/>
        <pt x="387" y="384" on="1"/>
        <pt x="225" y="323" on="1"/>
        <pt x="225" y="129" on="1"/>
      </contour>
    </TTGlyph>
    <TTGlyph name="M" xMin="82" yMin="0" xMax="815" yMax="688">
      <contour>
        <pt x="678" y="470" on="1"/>
        <pt x="673" y="470" on="1"/>
        <pt x="495" y="0" on="1"/>
        <pt x="397" y="0" on="1"/>
        <pt x="220" y="470" on="1"/>
        <pt x="215" y="470" on="1"/>
        <pt x="215" y="0" on="1"/>
        <pt x="82" y="0" on="1"/>
        <pt x="82" y="688" on="1"/>
        <pt x="278" y="688" on="1"/>
        <pt x="446" y="247" on="1"/>
        <pt x="452" y="247" on="1"/>
        <pt x="620" y="688" on="1"/>
        <pt x="815" y="688" on="1"/>
        <pt x="815" y="0" on="1"/>
        <pt x="678" y="0" on="1"/>
      </contour>
    </TTGlyph>
    <TTGlyph name="N" xMin="82" yMin="0" xMax="640" yMax="688">
      <contour>
        <pt x="223" y="437" on="1"/>
        <pt x="219" y="437" on="1"/>
        <pt x="219" y="0" on="1"/>
        <pt x="82" y="0" on="1"/>
        <pt x="82" y="688" on="1"/>
        <pt x="229" y="688" on="1"/>
        <pt x="498" y="276" on="1"/>
        <pt x="503" y="276" on="1"/>
        <pt x="503" y="688" on="1"/>
        <pt x="640" y="688" on="1"/>
        <pt x="640" y="0" on="1"/>
        <pt x="504" y="0" on="1"/>
      </contour>
    </TTGlyph>
    <TTGlyph name="Nacute" xMin="82" yMin="0" xMax="640" yMax="888">
      <component glyphName="N" x="0" y="0" flags="0x0"/>
      <component glyphName="acutecomb.case" x="555" y="0" flags="0x0"/>
    </TTGlyph>
    <TTGlyph name="Nacute.loclPLK" xMin="82" yMin="0" xMax="640" yMax="888">
      <component glyphName="N" x="0" y="0" flags="0x0"/>
      <component glyphName="acute.case.loclPLK" x="288" y="0" flags="0x0"/>
    </TTGlyph>
    <TTGlyph name="Ncaron" xMin="82" yMin="0" xMax="640" yMax="888">
      <component glyphName="N" x="0" y="0" flags="0x0"/>
      <component glyphName="uni030C.case" x="542" y="0" flags="0x0"/>
    </TTGlyph>
    <TTGlyph name="Ncommaaccent" xMin="82" yMin="-289" xMax="640" yMax="688">
      <component glyphName="N" x="0" y="0" flags="0x0"/>
      <component glyphName="uni0326" x="500" y="0" flags="0x0"/>
    </TTGlyph>
    <TTGlyph name="Ntilde" xMin="82" yMin="0" xMax="640" yMax="899">
      <component glyphName="N" x="0" y="0" flags="0x0"/>
      <component glyphName="tilde" x="150" y="155" flags="0x4"/>
    </TTGlyph>
    <TTGlyph name="O" xMin="62" yMin="-8" xMax="647" yMax="696">
      <contour>
        <pt x="213" y="-8" on="0"/>
        <pt x="93" y="52" on="0"/>
        <pt x="62" y="188" on="0"/>
        <pt x="62" y="344" on="1"/>
        <pt x="62" y="500" on="0"/>
        <pt x="93" y="636" on="0"/>
        <pt x="213" y="696" on="0"/>
        <pt x="354" y="696" on="1"/>
        <pt x="495" y="696" on="0"/>
        <pt x="616" y="636" on="0"/>
        <pt x="647" y="500" on="0"/>
        <pt x="647" y="344" on="1"/>
        <pt x="647" y="188" on="0"/>
        <pt x="616" y="52" on="0"/>
        <pt x="495" y="-8" on="0"/>
        <pt x="354" y="-8" on="1"/>
      </contour>
      <contour>
        <pt x="433" y="115" on="0"/>
        <pt x="488" y="137" on="0"/>
        <pt x="503" y="222" on="0"/>
        <pt x="503" y="344" on="1"/>
        <pt x="503" y="466" on="0"/>
        <pt x="488" y="551" on="0"/>
        <pt x="433" y="573" on="0"/>
        <pt x="354" y="573" on="1"/>
        <pt x="275" y="573" on="0"/>
        <pt x="221" y="551" on="0"/>
        <pt x="205" y="465" on="0"/>
        <pt x="205" y="344" on="1"/>
        <pt x="205" y="223" on="0"/>
        <pt x="221" y="137" on="0"/>
        <pt x="275" y="115" on="0"/>
        <pt x="354" y="115" on="1"/>
      </contour>
    </TTGlyph>
    <TTGlyph name="OE" xMin="62" yMin="0" xMax="963" yMax="688">
      <contour>
        <pt x="213" y="0" on="0"/>
        <pt x="93" y="59" on="0"/>
        <pt x="62" y="191" on="0"/>
        <pt x="62" y="344" on="1"/>
        <pt x="62" y="497" on="0"/>
        <pt x="93" y="629" on="0"/>
        <pt x="213" y="688" on="0"/>
        <pt x="354" y="688" on="1"/>
        <pt x="963" y="688" on="1"/>
        <pt x="963" y="565" on="1"/>
        <pt x="691" y="565" on="1"/>
        <pt x="654" y="565" on="0"/>
        <pt x="619" y="573" on="1"/>
        <pt x="633" y="543" on="0"/>
        <pt x="645" y="465" on="0"/>
        <pt x="647" y="409" on="1"/>
        <pt x="916" y="409" on="1"/>
        <pt x="916" y="286" on="1"/>
        <pt x="647" y="286" on="1"/>
        <pt x="646" y="227" on="0"/>
        <pt x="634" y="145" on="0"/>
        <pt x="619" y="115" on="1"/>
        <pt x="656" y="123" on="0"/>
        <pt x="691" y="123" on="1"/>
        <pt x="963" y="123" on="1"/>
        <pt x="963" y="0" on="1"/>
        <pt x="354" y="0" on="1"/>
      </contour>
      <contour>
        <pt x="433" y="123" on="0"/>
        <pt x="488" y="145" on="0"/>
        <pt x="503" y="226" on="0"/>
        <pt x="503" y="344" on="1"/>
        <pt x="503" y="462" on="0"/>
        <pt x="488" y="543" on="0"/>
        <pt x="433" y="565" on="0"/>
        <pt x="354" y="565" on="1"/>
        <pt x="275" y="565" on="0"/>
        <pt x="221" y="543" on="0"/>
        <pt x="205" y="461" on="0"/>
        <pt x="205" y="344" on="1"/>
        <pt x="205" y="227" on="0"/>
        <pt x="221" y="145" on="0"/>
        <pt x="275" y="123" on="0"/>
        <pt x="354" y="123" on="1"/>
      </contour>
    </TTGlyph>
    <TTGlyph name="Oacute" xMin="62" yMin="-8" xMax="647" yMax="894">
      <component glyphName="O" x="0" y="0" flags="0x0"/>
      <component glyphName="acute" x="271" y="151" flags="0x4"/>
    </TTGlyph>
    <TTGlyph name="Oacute.loclPLK" xMin="62" yMin="-8" xMax="647" yMax="888">
      <component glyphName="O" x="0" y="0" flags="0x0"/>
      <component glyphName="acute.case.loclPLK" x="282" y="0" flags="0x0"/>
    </TTGlyph>
    <TTGlyph name="Obreve" xMin="62" yMin="-8" xMax="647" yMax="888">
      <component glyphName="O" x="0" y="0" flags="0x0"/>
      <component glyphName="uni0306.case" x="522" y="0" flags="0x0"/>
    </TTGlyph>
    <TTGlyph name="Ocircumflex" xMin="62" yMin="-8" xMax="647" yMax="895">
      <component glyphName="O" x="0" y="0" flags="0x0"/>
      <component glyphName="circumflex" x="172" y="152" flags="0x4"/>
    </TTGlyph>
    <TTGlyph name="Odieresis" xMin="62" yMin="-8" xMax="647" yMax="880">
      <component glyphName="O" x="0" y="0" flags="0x0"/>
      <component glyphName="dieresis" x="178" y="150" flags="0x4"/>
    </TTGlyph>
    <TTGlyph name="Ograve" xMin="62" yMin="-8" xMax="647" yMax="894">
      <component glyphName="O" x="0" y="0" flags="0x0"/>
      <component glyphName="grave" x="162" y="151" flags="0x4"/>
    </TTGlyph>
    <TTGlyph name="Ohorn" xMin="62" yMin="-8" xMax="704" yMax="780">
      <contour>
        <pt x="704" y="780" on="1"/>
        <pt x="704" y="760" on="1"/>
        <pt x="704" y="714" on="0"/>
        <pt x="688" y="664" on="0"/>
        <pt x="642" y="638" on="0"/>
        <pt x="596" y="635" on="1"/>
        <pt x="629" y="599" on="0"/>
        <pt x="647" y="473" on="0"/>
        <pt x="647" y="344" on="1"/>
        <pt x="647" y="188" on="0"/>
        <pt x="616" y="52" on="0"/>
        <pt x="495" y="-8" on="0"/>
        <pt x="354" y="-8" on="1"/>
        <pt x="213" y="-8" on="0"/>
        <pt x="93" y="52" on="0"/>
        <pt x="62" y="188" on="0"/>
        <pt x="62" y="344" on="1"/>
        <pt x="62" y="500" on="0"/>
        <pt x="93" y="636" on="0"/>
        <pt x="213" y="696" on="0"/>
        <pt x="354" y="696" on="1"/>
        <pt x="434" y="696" on="0"/>
        <pt x="488" y="687" on="1"/>
        <pt x="488" y="688" on="1"/>
        <pt x="553" y="688" on="1"/>
        <pt x="581" y="688" on="0"/>
        <pt x="607" y="699" on="0"/>
        <pt x="615" y="725" on="0"/>
        <pt x="615" y="752" on="1"/>
        <pt x="615" y="780" on="1"/>
      </contour>
      <contour>
        <pt x="433" y="115" on="0"/>
        <pt x="488" y="137" on="0"/>
        <pt x="503" y="222" on="0"/>
        <pt x="503" y="344" on="1"/>
        <pt x="503" y="466" on="0"/>
        <pt x="488" y="551" on="0"/>
        <pt x="433" y="573" on="0"/>
        <pt x="354" y="573" on="1"/>
        <pt x="275" y="573" on="0"/>
        <pt x="221" y="551" on="0"/>
        <pt x="205" y="465" on="0"/>
        <pt x="205" y="344" on="1"/>
        <pt x="205" y="223" on="0"/>
        <pt x="221" y="137" on="0"/>
        <pt x="275" y="115" on="0"/>
        <pt x="354" y="115" on="1"/>
      </contour>
    </TTGlyph>
    <TTGlyph name="Ohungarumlaut" xMin="62" yMin="-8" xMax="647" yMax="879">
      <component glyphName="O" x="0" y="0" flags="0x0"/>
      <component glyphName="uni030B.case" x="621" y="0" flags="0x0"/>
    </TTGlyph>
    <TTGlyph name="Omacron" xMin="62" yMin="-8" xMax="647" yMax="887">
      <component glyphName="O" x="0" y="0" flags="0x0"/>
      <component glyphName="uni0304.case" x="540" y="0" flags="0x0"/>
    </TTGlyph>
    <TTGlyph name="Oslash" xMin="62" yMin="-55" xMax="647" yMax="743">
      <contour>
        <pt x="613" y="622" on="0"/>
        <pt x="640" y="544" on="0"/>
        <pt x="647" y="436" on="0"/>
        <pt x="647" y="344" on="1"/>
        <pt x="647" y="188" on="0"/>
        <pt x="616" y="52" on="0"/>
        <pt x="495" y="-8" on="0"/>
        <pt x="354" y="-8" on="1"/>
        <pt x="262" y="-8" on="0"/>
        <pt x="210" y="3" on="1"/>
        <pt x="176" y="-55" on="1"/>
        <pt x="62" y="-55" on="1"/>
        <pt x="120" y="45" on="1"/>
        <pt x="94" y="69" on="0"/>
        <pt x="69" y="147" on="0"/>
        <pt x="62" y="252" on="0"/>
        <pt x="62" y="344" on="1"/>
        <pt x="62" y="500" on="0"/>
        <pt x="93" y="636" on="0"/>
        <pt x="213" y="696" on="0"/>
        <pt x="354" y="696" on="1"/>
        <pt x="440" y="696" on="0"/>
        <pt x="493" y="686" on="1"/>
        <pt x="526" y="743" on="1"/>
        <pt x="642" y="743" on="1"/>
        <pt x="585" y="646" on="1"/>
      </contour>
      <contour>
        <pt x="205" y="240" on="0"/>
        <pt x="210" y="199" on="1"/>
        <pt x="426" y="571" on="1"/>
        <pt x="407" y="573" on="0"/>
        <pt x="354" y="573" on="1"/>
        <pt x="275" y="573" on="0"/>
        <pt x="221" y="551" on="0"/>
        <pt x="205" y="465" on="0"/>
        <pt x="205" y="344" on="1"/>
      </contour>
      <contour>
        <pt x="433" y="115" on="0"/>
        <pt x="488" y="137" on="0"/>
        <pt x="503" y="222" on="0"/>
        <pt x="503" y="344" on="1"/>
        <pt x="503" y="392" on="0"/>
        <pt x="501" y="473" on="0"/>
        <pt x="498" y="496" on="1"/>
        <pt x="277" y="118" on="1"/>
        <pt x="297" y="115" on="0"/>
        <pt x="354" y="115" on="1"/>
      </contour>
    </TTGlyph>
    <TTGlyph name="Oslashacute" xMin="62" yMin="-55" xMax="647" yMax="888">
      <component glyphName="Oslash" x="0" y="0" flags="0x0"/>
      <component glyphName="acutecomb.case" x="546" y="0" flags="0x0"/>
    </TTGlyph>
    <TTGlyph name="Otilde" xMin="62" yMin="-8" xMax="647" yMax="898">
      <component glyphName="O" x="0" y="0" flags="0x0"/>
      <component glyphName="tilde" x="144" y="154" flags="0x4"/>
    </TTGlyph>
    <TTGlyph name="P" xMin="83" yMin="0" xMax="610" yMax="688">
      <contour>
        <pt x="83" y="688" on="1"/>
        <pt x="400" y="688" on="1"/>
        <pt x="486" y="688" on="0"/>
        <pt x="578" y="634" on="0"/>
        <pt x="610" y="536" on="0"/>
        <pt x="610" y="459" on="1"/>
        <pt x="610" y="385" on="0"/>
        <pt x="579" y="287" on="0"/>
        <pt x="485" y="229" on="0"/>
        <pt x="397" y="229" on="1"/>
        <pt x="225" y="229" on="1"/>
        <pt x="225" y="0" on="1"/>
        <pt x="83" y="0" on="1"/>
      </contour>
      <contour>
        <pt x="339" y="352" on="1"/>
        <pt x="399" y="352" on="0"/>
        <pt x="451" y="368" on="0"/>
        <pt x="467" y="411" on="0"/>
        <pt x="467" y="459" on="1"/>
        <pt x="467" y="507" on="0"/>
        <pt x="452" y="549" on="0"/>
        <pt x="401" y="565" on="0"/>
        <pt x="341" y="565" on="1"/>
        <pt x="225" y="565" on="1"/>
        <pt x="225" y="352" on="1"/>
      </contour>
    </TTGlyph>
    <TTGlyph name="Q" xMin="62" yMin="-115" xMax="670" yMax="696">
      <contour>
        <pt x="670" y="-110" on="1"/>
        <pt x="670" y="-115" on="1"/>
        <pt x="514" y="-115" on="1"/>
        <pt x="439" y="-5" on="1"/>
        <pt x="401" y="-8" on="0"/>
        <pt x="354" y="-8" on="1"/>
        <pt x="213" y="-8" on="0"/>
        <pt x="93" y="52" on="0"/>
        <pt x="62" y="188" on="0"/>
        <pt x="62" y="344" on="1"/>
        <pt x="62" y="500" on="0"/>
        <pt x="93" y="636" on="0"/>
        <pt x="213" y="696" on="0"/>
        <pt x="354" y="696" on="1"/>
        <pt x="495" y="696" on="0"/>
        <pt x="616" y="636" on="0"/>
        <pt x="647" y="500" on="0"/>
        <pt x="647" y="344" on="1"/>
        <pt x="647" y="243" on="0"/>
        <pt x="638" y="131" on="0"/>
        <pt x="605" y="52" on="0"/>
        <pt x="569" y="30" on="1"/>
      </contour>
      <contour>
        <pt x="357" y="115" on="1"/>
        <pt x="287" y="218" on="1"/>
        <pt x="434" y="218" on="1"/>
        <pt x="485" y="147" on="1"/>
        <pt x="497" y="167" on="0"/>
        <pt x="503" y="250" on="0"/>
        <pt x="503" y="344" on="1"/>
        <pt x="503" y="466" on="0"/>
        <pt x="488" y="551" on="0"/>
        <pt x="433" y="573" on="0"/>
        <pt x="354" y="573" on="1"/>
        <pt x="275" y="573" on="0"/>
        <pt x="221" y="551" on="0"/>
        <pt x="205" y="465" on="0"/>
        <pt x="205" y="344" on="1"/>
        <pt x="205" y="223" on="0"/>
        <pt x="221" y="137" on="0"/>
        <pt x="275" y="115" on="0"/>
        <pt x="354" y="115" on="1"/>
      </contour>
    </TTGlyph>
    <TTGlyph name="R" xMin="83" yMin="0" xMax="632" yMax="688">
      <contour>
        <pt x="481" y="0" on="1"/>
        <pt x="380" y="249" on="1"/>
        <pt x="225" y="249" on="1"/>
        <pt x="225" y="0" on="1"/>
        <pt x="83" y="0" on="1"/>
        <pt x="83" y="688" on="1"/>
        <pt x="407" y="688" on="1"/>
        <pt x="496" y="688" on="0"/>
        <pt x="589" y="635" on="0"/>
        <pt x="620" y="542" on="0"/>
        <pt x="620" y="469" on="1"/>
        <pt x="620" y="306" on="0"/>
        <pt x="522" y="268" on="1"/>
        <pt x="632" y="0" on="1"/>
      </contour>
      <contour>
        <pt x="408" y="372" on="0"/>
        <pt x="461" y="388" on="0"/>
        <pt x="476" y="427" on="0"/>
        <pt x="476" y="469" on="1"/>
        <pt x="476" y="512" on="0"/>
        <pt x="461" y="550" on="0"/>
        <pt x="410" y="565" on="0"/>
        <pt x="351" y="565" on="1"/>
        <pt x="225" y="565" on="1"/>
        <pt x="225" y="372" on="1"/>
        <pt x="350" y="372" on="1"/>
      </contour>
    </TTGlyph>
    <TTGlyph name="R.ss01" xMin="82" yMin="0" xMax="621" yMax="688">
      <contour>
        <pt x="621" y="0" on="1"/>
        <pt x="480" y="0" on="1"/>
        <pt x="468" y="152" on="1"/>
        <pt x="465" y="191" on="0"/>
        <pt x="452" y="230" on="0"/>
        <pt x="410" y="252" on="0"/>
        <pt x="364" y="252" on="1"/>
        <pt x="224" y="252" on="1"/>
        <pt x="224" y="0" on="1"/>
        <pt x="82" y="0" on="1"/>
        <pt x="82" y="688" on="1"/>
        <pt x="428" y="688" on="1"/>
        <pt x="531" y="688" on="0"/>
        <pt x="617" y="596" on="0"/>
        <pt x="617" y="500" on="1"/>
        <pt x="617" y="412" on="0"/>
        <pt x="560" y="334" on="0"/>
        <pt x="499" y="319" on="1"/>
        <pt x="499" y="315" on="1"/>
        <pt x="537" y="306" on="0"/>
        <pt x="581" y="278" on="0"/>
        <pt x="607" y="221" on="0"/>
        <pt x="610" y="171" on="1"/>
      </contour>
      <contour>
        <pt x="410" y="371" on="0"/>
        <pt x="456" y="389" on="0"/>
        <pt x="472" y="430" on="0"/>
        <pt x="472" y="470" on="1"/>
        <pt x="472" y="512" on="0"/>
        <pt x="459" y="551" on="0"/>
        <pt x="414" y="568" on="0"/>
        <pt x="364" y="568" on="1"/>
        <pt x="224" y="568" on="1"/>
        <pt x="224" y="371" on="1"/>
        <pt x="361" y="371" on="1"/>
      </contour>
    </TTGlyph>
    <TTGlyph name="Racute" xMin="83" yMin="0" xMax="632" yMax="888">
      <component glyphName="R" x="0" y="0" flags="0x0"/>
      <component glyphName="acutecomb.case" x="534" y="0" flags="0x0"/>
    </TTGlyph>
    <TTGlyph name="Racute.ss01" xMin="82" yMin="0" xMax="621" yMax="888">
      <component glyphName="R.ss01" x="0" y="0" flags="0x0"/>
      <component glyphName="acutecomb.case" x="534" y="0" flags="0x0"/>
    </TTGlyph>
    <TTGlyph name="Rcaron" xMin="83" yMin="0" xMax="632" yMax="888">
      <component glyphName="R" x="0" y="0" flags="0x0"/>
      <component glyphName="uni030C.case" x="521" y="0" flags="0x0"/>
    </TTGlyph>
    <TTGlyph name="Rcaron.ss01" xMin="82" yMin="0" xMax="621" yMax="888">
      <component glyphName="R.ss01" x="0" y="0" flags="0x0"/>
      <component glyphName="uni030C.case" x="521" y="0" flags="0x0"/>
    </TTGlyph>
    <TTGlyph name="Rcommaaccent" xMin="83" yMin="-289" xMax="632" yMax="688">
      <component glyphName="R" x="0" y="0" flags="0x0"/>
      <component glyphName="uni0326" x="479" y="0" flags="0x0"/>
    </TTGlyph>
    <TTGlyph name="Rcommaaccent.ss01" xMin="82" yMin="-289" xMax="621" yMax="688">
      <component glyphName="R.ss01" x="0" y="0" flags="0x0"/>
      <component glyphName="uni0326" x="479" y="0" flags="0x0"/>
    </TTGlyph>
    <TTGlyph name="S" xMin="53" yMin="-8" xMax="568" yMax="696">
      <contour>
        <pt x="178" y="-8" on="0"/>
        <pt x="73" y="8" on="1"/>
        <pt x="73" y="127" on="1"/>
        <pt x="196" y="115" on="0"/>
        <pt x="283" y="115" on="1"/>
        <pt x="334" y="115" on="0"/>
        <pt x="391" y="124" on="0"/>
        <pt x="405" y="135" on="1"/>
        <pt x="418" y="145" on="0"/>
        <pt x="425" y="173" on="0"/>
        <pt x="425" y="199" on="1"/>
        <pt x="425" y="228" on="0"/>
        <pt x="417" y="255" on="0"/>
        <pt x="393" y="268" on="0"/>
        <pt x="365" y="271" on="1"/>
        <pt x="218" y="288" on="1"/>
        <pt x="152" y="297" on="0"/>
        <pt x="80" y="348" on="0"/>
        <pt x="53" y="429" on="0"/>
        <pt x="53" y="489" on="1"/>
        <pt x="53" y="577" on="0"/>
        <pt x="117" y="668" on="0"/>
        <pt x="225" y="696" on="0"/>
        <pt x="310" y="696" on="1"/>
        <pt x="441" y="696" on="0"/>
        <pt x="534" y="676" on="1"/>
        <pt x="534" y="560" on="1"/>
        <pt x="437" y="573" on="0"/>
        <pt x="339" y="573" on="1"/>
        <pt x="249" y="573" on="0"/>
        <pt x="220" y="558" on="1"/>
        <pt x="204" y="550" on="0"/>
        <pt x="196" y="524" on="0"/>
        <pt x="196" y="498" on="1"/>
        <pt x="196" y="468" on="0"/>
        <pt x="204" y="442" on="0"/>
        <pt x="231" y="431" on="0"/>
        <pt x="263" y="427" on="1"/>
        <pt x="421" y="408" on="1"/>
        <pt x="467" y="403" on="0"/>
        <pt x="527" y="376" on="0"/>
        <pt x="544" y="345" on="1"/>
        <pt x="568" y="302" on="0"/>
        <pt x="568" y="212" on="1"/>
        <pt x="568" y="117" on="0"/>
        <pt x="508" y="21" on="0"/>
        <pt x="407" y="-8" on="0"/>
        <pt x="325" y="-8" on="1"/>
      </contour>
    </TTGlyph>
    <TTGlyph name="Sacute" xMin="53" yMin="-8" xMax="568" yMax="888">
      <component glyphName="S" x="0" y="0" flags="0x0"/>
      <component glyphName="acutecomb.case" x="505" y="0" flags="0x0"/>
    </TTGlyph>
    <TTGlyph name="Sacute.loclPLK" xMin="53" yMin="-8" xMax="568" yMax="888">
      <component glyphName="S" x="0" y="0" flags="0x0"/>
      <component glyphName="acute.case.loclPLK" x="238" y="0" flags="0x0"/>
    </TTGlyph>
    <TTGlyph name="Scaron" xMin="53" yMin="-8" xMax="568" yMax="895">
      <component glyphName="S" x="0" y="0" flags="0x0"/>
      <component glyphName="caron" x="135" y="152" flags="0x4"/>
    </TTGlyph>
    <TTGlyph name="Scedilla" xMin="53" yMin="-190" xMax="568" yMax="696">
      <contour>
        <pt x="568" y="123" on="0"/>
        <pt x="516" y="28" on="0"/>
        <pt x="425" y="-6" on="0"/>
        <pt x="354" y="-8" on="1"/>
        <pt x="319" y="-190" on="1"/>
        <pt x="194" y="-190" on="1"/>
        <pt x="194" y="-185" on="1"/>
        <pt x="260" y="-7" on="1"/>
        <pt x="152" y="-4" on="0"/>
        <pt x="73" y="8" on="1"/>
        <pt x="73" y="127" on="1"/>
        <pt x="196" y="115" on="0"/>
        <pt x="283" y="115" on="1"/>
        <pt x="334" y="115" on="0"/>
        <pt x="391" y="124" on="0"/>
        <pt x="405" y="135" on="1"/>
        <pt x="418" y="145" on="0"/>
        <pt x="425" y="173" on="0"/>
        <pt x="425" y="199" on="1"/>
        <pt x="425" y="228" on="0"/>
        <pt x="417" y="255" on="0"/>
        <pt x="393" y="268" on="0"/>
        <pt x="365" y="271" on="1"/>
        <pt x="218" y="288" on="1"/>
        <pt x="152" y="297" on="0"/>
        <pt x="80" y="348" on="0"/>
        <pt x="53" y="429" on="0"/>
        <pt x="53" y="489" on="1"/>
        <pt x="53" y="577" on="0"/>
        <pt x="117" y="668" on="0"/>
        <pt x="225" y="696" on="0"/>
        <pt x="310" y="696" on="1"/>
        <pt x="441" y="696" on="0"/>
        <pt x="534" y="676" on="1"/>
        <pt x="534" y="560" on="1"/>
        <pt x="437" y="573" on="0"/>
        <pt x="339" y="573" on="1"/>
        <pt x="249" y="573" on="0"/>
        <pt x="220" y="558" on="1"/>
        <pt x="204" y="550" on="0"/>
        <pt x="196" y="524" on="0"/>
        <pt x="196" y="498" on="1"/>
        <pt x="196" y="468" on="0"/>
        <pt x="204" y="442" on="0"/>
        <pt x="231" y="431" on="0"/>
        <pt x="263" y="427" on="1"/>
        <pt x="421" y="408" on="1"/>
        <pt x="467" y="403" on="0"/>
        <pt x="527" y="376" on="0"/>
        <pt x="544" y="345" on="1"/>
        <pt x="568" y="302" on="0"/>
        <pt x="568" y="212" on="1"/>
      </contour>
    </TTGlyph>
    <TTGlyph name="Scircumflex" xMin="53" yMin="-8" xMax="568" yMax="888">
      <component glyphName="S" x="0" y="0" flags="0x0"/>
      <component glyphName="uni0302.case" x="492" y="0" flags="0x0"/>
    </TTGlyph>
    <TTGlyph name="Scommaaccent" xMin="53" yMin="-289" xMax="568" yMax="696">
      <component glyphName="S" x="0" y="0" flags="0x0"/>
      <component glyphName="uni0326" x="450" y="0" flags="0x0"/>
    </TTGlyph>
    <TTGlyph name="T" xMin="20" yMin="0" xMax="562" yMax="688">
      <contour>
        <pt x="220" y="559" on="1"/>
        <pt x="20" y="559" on="1"/>
        <pt x="20" y="688" on="1"/>
        <pt x="562" y="688" on="1"/>
        <pt x="562" y="559" on="1"/>
        <pt x="362" y="559" on="1"/>
        <pt x="362" y="0" on="1"/>
        <pt x="220" y="0" on="1"/>
      </contour>
    </TTGlyph>
    <TTGlyph name="Tbar" xMin="20" yMin="0" xMax="562" yMax="688">
      <contour>
        <pt x="362" y="559" on="1"/>
        <pt x="362" y="376" on="1"/>
        <pt x="540" y="376" on="1"/>
        <pt x="540" y="269" on="1"/>
        <pt x="362" y="269" on="1"/>
        <pt x="362" y="0" on="1"/>
        <pt x="220" y="0" on="1"/>
        <pt x="220" y="269" on="1"/>
        <pt x="41" y="269" on="1"/>
        <pt x="41" y="376" on="1"/>
        <pt x="220" y="376" on="1"/>
        <pt x="220" y="559" on="1"/>
        <pt x="20" y="559" on="1"/>
        <pt x="20" y="688" on="1"/>
        <pt x="562" y="688" on="1"/>
        <pt x="562" y="559" on="1"/>
      </contour>
    </TTGlyph>
    <TTGlyph name="Tcaron" xMin="20" yMin="0" xMax="562" yMax="888">
      <component glyphName="T" x="0" y="0" flags="0x0"/>
      <component glyphName="uni030C.case" x="472" y="0" flags="0x0"/>
    </TTGlyph>
    <TTGlyph name="Thorn" xMin="83" yMin="0" xMax="610" yMax="688">
      <contour>
        <pt x="83" y="688" on="1"/>
        <pt x="225" y="688" on="1"/>
        <pt x="225" y="580" on="1"/>
        <pt x="400" y="580" on="1"/>
        <pt x="486" y="580" on="0"/>
        <pt x="578" y="526" on="0"/>
        <pt x="610" y="428" on="0"/>
        <pt x="610" y="351" on="1"/>
        <pt x="610" y="278" on="0"/>
        <pt x="579" y="180" on="0"/>
        <pt x="485" y="122" on="0"/>
        <pt x="397" y="122" on="1"/>
        <pt x="225" y="122" on="1"/>
        <pt x="225" y="0" on="1"/>
        <pt x="83" y="0" on="1"/>
      </contour>
      <contour>
        <pt x="339" y="244" on="1"/>
        <pt x="399" y="244" on="0"/>
        <pt x="451" y="261" on="0"/>
        <pt x="467" y="303" on="0"/>
        <pt x="467" y="351" on="1"/>
        <pt x="467" y="399" on="0"/>
        <pt x="452" y="441" on="0"/>
        <pt x="401" y="457" on="0"/>
        <pt x="341" y="457" on="1"/>
        <pt x="225" y="457" on="1"/>
        <pt x="225" y="244" on="1"/>
      </contour>
    </TTGlyph>
    <TTGlyph name="U" xMin="76" yMin="-8" xMax="619" yMax="688">
      <contour>
        <pt x="619" y="688" on="1"/>
        <pt x="619" y="308" on="1"/>
        <pt x="619" y="171" on="0"/>
        <pt x="584" y="44" on="0"/>
        <pt x="472" y="-8" on="0"/>
        <pt x="348" y="-8" on="1"/>
        <pt x="224" y="-8" on="0"/>
        <pt x="112" y="44" on="0"/>
        <pt x="76" y="171" on="0"/>
        <pt x="76" y="308" on="1"/>
        <pt x="76" y="688" on="1"/>
        <pt x="218" y="688" on="1"/>
        <pt x="218" y="272" on="1"/>
        <pt x="218" y="195" on="0"/>
        <pt x="232" y="135" on="0"/>
        <pt x="284" y="113" on="0"/>
        <pt x="348" y="113" on="1"/>
        <pt x="413" y="113" on="0"/>
        <pt x="464" y="135" on="0"/>
        <pt x="477" y="195" on="0"/>
        <pt x="477" y="272" on="1"/>
        <pt x="477" y="688" on="1"/>
      </contour>
    </TTGlyph>
    <TTGlyph name="Uacute" xMin="76" yMin="-8" xMax="619" yMax="894">
      <component glyphName="U" x="0" y="0" flags="0x0"/>
      <component glyphName="acute" x="280" y="151" flags="0x4"/>
    </TTGlyph>
    <TTGlyph name="Ubreve" xMin="76" yMin="-8" xMax="619" yMax="888">
      <component glyphName="U" x="0" y="0" flags="0x0"/>
      <component glyphName="uni0306.case" x="515" y="0" flags="0x0"/>
    </TTGlyph>
    <TTGlyph name="Ucircumflex" xMin="76" yMin="-8" xMax="619" yMax="895">
      <component glyphName="U" x="0" y="0" flags="0x0"/>
      <component glyphName="circumflex" x="170" y="152" flags="0x4"/>
    </TTGlyph>
    <TTGlyph name="Udieresis" xMin="76" yMin="-8" xMax="619" yMax="880">
      <component glyphName="U" x="0" y="0" flags="0x0"/>
      <component glyphName="dieresis" x="172" y="150" flags="0x4"/>
    </TTGlyph>
    <TTGlyph name="Ugrave" xMin="76" yMin="-8" xMax="619" yMax="894">
      <component glyphName="U" x="0" y="0" flags="0x0"/>
      <component glyphName="grave" x="165" y="151" flags="0x4"/>
    </TTGlyph>
    <TTGlyph name="Uhorn" xMin="76" yMin="-8" xMax="717" yMax="780">
      <contour>
        <pt x="717" y="780" on="1"/>
        <pt x="717" y="760" on="1"/>
        <pt x="717" y="715" on="0"/>
        <pt x="702" y="666" on="0"/>
        <pt x="661" y="640" on="0"/>
        <pt x="619" y="636" on="1"/>
        <pt x="619" y="308" on="1"/>
        <pt x="619" y="171" on="0"/>
        <pt x="584" y="44" on="0"/>
        <pt x="472" y="-8" on="0"/>
        <pt x="348" y="-8" on="1"/>
        <pt x="224" y="-8" on="0"/>
        <pt x="112" y="44" on="0"/>
        <pt x="76" y="171" on="0"/>
        <pt x="76" y="308" on="1"/>
        <pt x="76" y="688" on="1"/>
        <pt x="218" y="688" on="1"/>
        <pt x="218" y="272" on="1"/>
        <pt x="218" y="195" on="0"/>
        <pt x="232" y="135" on="0"/>
        <pt x="284" y="113" on="0"/>
        <pt x="348" y="113" on="1"/>
        <pt x="413" y="113" on="0"/>
        <pt x="464" y="135" on="0"/>
        <pt x="477" y="195" on="0"/>
        <pt x="477" y="272" on="1"/>
        <pt x="477" y="688" on="1"/>
        <pt x="566" y="688" on="1"/>
        <pt x="594" y="688" on="0"/>
        <pt x="620" y="699" on="0"/>
        <pt x="628" y="725" on="0"/>
        <pt x="628" y="752" on="1"/>
        <pt x="628" y="780" on="1"/>
      </contour>
    </TTGlyph>
    <TTGlyph name="Uhungarumlaut" xMin="76" yMin="-8" xMax="619" yMax="879">
      <component glyphName="U" x="0" y="0" flags="0x0"/>
      <component glyphName="uni030B.case" x="614" y="0" flags="0x0"/>
    </TTGlyph>
    <TTGlyph name="Umacron" xMin="76" yMin="-8" xMax="619" yMax="887">
      <component glyphName="U" x="0" y="0" flags="0x0"/>
      <component glyphName="uni0304.case" x="533" y="0" flags="0x0"/>
    </TTGlyph>
    <TTGlyph name="Uogonek" xMin="76" yMin="-196" xMax="619" yMax="688">
      <contour>
        <pt x="619" y="688" on="1"/>
        <pt x="619" y="308" on="1"/>
        <pt x="619" y="218" on="0"/>
        <pt x="607" y="110" on="0"/>
        <pt x="570" y="39" on="0"/>
        <pt x="533" y="20" on="1"/>
        <pt x="496" y="2" on="0"/>
        <pt x="454" y="-46" on="0"/>
        <pt x="454" y="-83" on="1"/>
        <pt x="454" y="-100" on="0"/>
        <pt x="474" y="-119" on="0"/>
        <pt x="500" y="-119" on="1"/>
        <pt x="517" y="-118" on="1"/>
        <pt x="517" y="-193" on="1"/>
        <pt x="481" y="-196" on="0"/>
        <pt x="459" y="-196" on="1"/>
        <pt x="394" y="-196" on="0"/>
        <pt x="342" y="-151" on="0"/>
        <pt x="342" y="-113" on="1"/>
        <pt x="342" y="-64" on="0"/>
        <pt x="392" y="-7" on="1"/>
        <pt x="378" y="-8" on="0"/>
        <pt x="348" y="-8" on="1"/>
        <pt x="224" y="-8" on="0"/>
        <pt x="112" y="44" on="0"/>
        <pt x="76" y="171" on="0"/>
        <pt x="76" y="308" on="1"/>
        <pt x="76" y="688" on="1"/>
        <pt x="218" y="688" on="1"/>
        <pt x="218" y="272" on="1"/>
        <pt x="218" y="195" on="0"/>
        <pt x="232" y="135" on="0"/>
        <pt x="284" y="113" on="0"/>
        <pt x="348" y="113" on="1"/>
        <pt x="413" y="113" on="0"/>
        <pt x="464" y="135" on="0"/>
        <pt x="477" y="195" on="0"/>
        <pt x="477" y="272" on="1"/>
        <pt x="477" y="688" on="1"/>
      </contour>
    </TTGlyph>
    <TTGlyph name="Uring" xMin="76" yMin="-8" xMax="619" yMax="942">
      <component glyphName="U" x="0" y="0" flags="0x0"/>
      <component glyphName="uni030A.case" x="509" y="0" flags="0x0"/>
    </TTGlyph>
    <TTGlyph name="Utilde" xMin="76" yMin="-8" xMax="619" yMax="889">
      <component glyphName="U" x="0" y="0" flags="0x0"/>
      <component glyphName="tildecomb.case" x="559" y="0" flags="0x0"/>
    </TTGlyph>
    <TTGlyph name="V" xMin="17" yMin="0" xMax="644" yMax="688">
      <contour>
        <pt x="17" y="688" on="1"/>
        <pt x="163" y="688" on="1"/>
        <pt x="330" y="160" on="1"/>
        <pt x="336" y="160" on="1"/>
        <pt x="500" y="688" on="1"/>
        <pt x="644" y="688" on="1"/>
        <pt x="425" y="0" on="1"/>
        <pt x="236" y="0" on="1"/>
      </contour>
    </TTGlyph>
    <TTGlyph name="W" xMin="23" yMin="0" xMax="971" yMax="688">
      <contour>
        <pt x="499" y="460" on="1"/>
        <pt x="495" y="460" on="1"/>
        <pt x="370" y="0" on="1"/>
        <pt x="192" y="0" on="1"/>
        <pt x="23" y="688" on="1"/>
        <pt x="166" y="688" on="1"/>
        <pt x="288" y="174" on="1"/>
        <pt x="293" y="174" on="1"/>
        <pt x="426" y="688" on="1"/>
        <pt x="573" y="688" on="1"/>
        <pt x="709" y="174" on="1"/>
        <pt x="714" y="174" on="1"/>
        <pt x="829" y="688" on="1"/>
        <pt x="971" y="688" on="1"/>
        <pt x="802" y="0" on="1"/>
        <pt x="624" y="0" on="1"/>
      </contour>
    </TTGlyph>
    <TTGlyph name="Wacute" xMin="23" yMin="0" xMax="971" yMax="888">
      <component glyphName="W" x="0" y="0" flags="0x0"/>
      <component glyphName="acutecomb.case" x="685" y="0" flags="0x0"/>
    </TTGlyph>
    <TTGlyph name="Wcircumflex" xMin="23" yMin="0" xMax="971" yMax="888">
      <component glyphName="W" x="0" y="0" flags="0x0"/>
      <component glyphName="uni0302.case" x="672" y="0" flags="0x0"/>
    </TTGlyph>
    <TTGlyph name="Wdieresis" xMin="23" yMin="0" xMax="971" yMax="875">
      <component glyphName="W" x="0" y="0" flags="0x0"/>
      <component glyphName="uni0308.case" x="666" y="0" flags="0x0"/>
    </TTGlyph>
    <TTGlyph name="Wgrave" xMin="23" yMin="0" xMax="971" yMax="888">
      <component glyphName="W" x="0" y="0" flags="0x0"/>
      <component glyphName="gravecomb.case" x="564" y="0" flags="0x0"/>
    </TTGlyph>
    <TTGlyph name="X" xMin="18" yMin="0" xMax="659" yMax="688">
      <contour>
        <pt x="340" y="230" on="1"/>
        <pt x="332" y="230" on="1"/>
        <pt x="176" y="0" on="1"/>
        <pt x="18" y="0" on="1"/>
        <pt x="251" y="345" on="1"/>
        <pt x="22" y="688" on="1"/>
        <pt x="186" y="688" on="1"/>
        <pt x="337" y="465" on="1"/>
        <pt x="345" y="465" on="1"/>
        <pt x="497" y="688" on="1"/>
        <pt x="656" y="688" on="1"/>
        <pt x="427" y="348" on="1"/>
        <pt x="659" y="0" on="1"/>
        <pt x="495" y="0" on="1"/>
      </contour>
    </TTGlyph>
    <TTGlyph name="Y" xMin="4" yMin="0" xMax="618" yMax="688">
      <contour>
        <pt x="239" y="242" on="1"/>
        <pt x="4" y="688" on="1"/>
        <pt x="153" y="688" on="1"/>
        <pt x="310" y="386" on="1"/>
        <pt x="317" y="386" on="1"/>
        <pt x="473" y="688" on="1"/>
        <pt x="618" y="688" on="1"/>
        <pt x="382" y="242" on="1"/>
        <pt x="382" y="0" on="1"/>
        <pt x="239" y="0" on="1"/>
      </contour>
    </TTGlyph>
    <TTGlyph name="Y.loclGUA" xMin="41" yMin="0" xMax="584" yMax="688">
      <contour>
        <pt x="584" y="688" on="1"/>
        <pt x="584" y="508" on="1"/>
        <pt x="584" y="385" on="0"/>
        <pt x="557" y="262" on="0"/>
        <pt x="472" y="201" on="0"/>
        <pt x="383" y="194" on="1"/>
        <pt x="383" y="0" on="1"/>
        <pt x="240" y="0" on="1"/>
        <pt x="240" y="194" on="1"/>
        <pt x="152" y="201" on="0"/>
        <pt x="68" y="262" on="0"/>
        <pt x="41" y="386" on="0"/>
        <pt x="41" y="508" on="1"/>
        <pt x="41" y="688" on="1"/>
        <pt x="183" y="688" on="1"/>
        <pt x="183" y="472" on="1"/>
        <pt x="183" y="395" on="0"/>
        <pt x="197" y="335" on="0"/>
        <pt x="248" y="313" on="0"/>
        <pt x="312" y="313" on="1"/>
        <pt x="377" y="313" on="0"/>
        <pt x="428" y="335" on="0"/>
        <pt x="441" y="395" on="0"/>
        <pt x="441" y="472" on="1"/>
        <pt x="441" y="688" on="1"/>
      </contour>
    </TTGlyph>
    <TTGlyph name="Yacute" xMin="4" yMin="0" xMax="618" yMax="894">
      <component glyphName="Y" x="0" y="0" flags="0x0"/>
      <component glyphName="acute" x="248" y="151" flags="0x4"/>
    </TTGlyph>
    <TTGlyph name="Yacute.loclGUA" xMin="41" yMin="0" xMax="584" yMax="888">
      <component glyphName="Y.loclGUA" x="0" y="0" flags="0x0"/>
      <component glyphName="acutecomb.case" x="505" y="0" flags="0x0"/>
    </TTGlyph>
    <TTGlyph name="Ycircumflex" xMin="4" yMin="0" xMax="618" yMax="888">
      <component glyphName="Y" x="0" y="0" flags="0x0"/>
      <component glyphName="uni0302.case" x="492" y="0" flags="0x0"/>
    </TTGlyph>
    <TTGlyph name="Ycircumflex.loclGUA" xMin="41" yMin="0" xMax="584" yMax="888">
      <component glyphName="Y.loclGUA" x="0" y="0" flags="0x0"/>
      <component glyphName="uni0302.case" x="492" y="0" flags="0x0"/>
    </TTGlyph>
    <TTGlyph name="Ydieresis" xMin="4" yMin="0" xMax="618" yMax="880">
      <component glyphName="Y" x="0" y="0" flags="0x0"/>
      <component glyphName="dieresis" x="141" y="150" flags="0x4"/>
    </TTGlyph>
    <TTGlyph name="Ydieresis.loclGUA" xMin="41" yMin="0" xMax="584" yMax="875">
      <component glyphName="Y.loclGUA" x="0" y="0" flags="0x0"/>
      <component glyphName="uni0308.case" x="486" y="0" flags="0x0"/>
    </TTGlyph>
    <TTGlyph name="Ygrave" xMin="4" yMin="0" xMax="618" yMax="888">
      <component glyphName="Y" x="0" y="0" flags="0x0"/>
      <component glyphName="gravecomb.case" x="384" y="0" flags="0x0"/>
    </TTGlyph>
    <TTGlyph name="Ygrave.loclGUA" xMin="41" yMin="0" xMax="584" yMax="888">
      <component glyphName="Y.loclGUA" x="0" y="0" flags="0x0"/>
      <component glyphName="gravecomb.case" x="384" y="0" flags="0x0"/>
    </TTGlyph>
    <TTGlyph name="Z" xMin="47" yMin="0" xMax="569" yMax="688">
      <contour>
        <pt x="47" y="118" on="1"/>
        <pt x="385" y="565" on="1"/>
        <pt x="58" y="565" on="1"/>
        <pt x="58" y="688" on="1"/>
        <pt x="565" y="688" on="1"/>
        <pt x="565" y="574" on="1"/>
        <pt x="223" y="123" on="1"/>
        <pt x="569" y="123" on="1"/>
        <pt x="569" y="0" on="1"/>
        <pt x="47" y="0" on="1"/>
      </contour>
    </TTGlyph>
    <TTGlyph name="Zacute" xMin="47" yMin="0" xMax="569" yMax="888">
      <component glyphName="Z" x="0" y="0" flags="0x0"/>
      <component glyphName="acutecomb.case" x="501" y="0" flags="0x0"/>
    </TTGlyph>
    <TTGlyph name="Zacute.loclPLK" xMin="47" yMin="0" xMax="569" yMax="888">
      <component glyphName="Z" x="0" y="0" flags="0x0"/>
      <component glyphName="acute.case.loclPLK" x="234" y="0" flags="0x0"/>
    </TTGlyph>
    <TTGlyph name="Zcaron" xMin="47" yMin="0" xMax="569" yMax="895">
      <component glyphName="Z" x="0" y="0" flags="0x0"/>
      <component glyphName="caron" x="133" y="152" flags="0x4"/>
    </TTGlyph>
    <TTGlyph name="Zdotaccent" xMin="47" yMin="0" xMax="569" yMax="875">
      <component glyphName="Z" x="0" y="0" flags="0x0"/>
      <component glyphName="uni0307.case" x="383" y="0" flags="0x0"/>
    </TTGlyph>
    <TTGlyph name="a" xMin="44" yMin="-8" xMax="493" yMax="518">
      <contour>
        <pt x="119" y="-8" on="0"/>
        <pt x="44" y="62" on="0"/>
        <pt x="44" y="143" on="1"/>
        <pt x="44" y="203" on="0"/>
        <pt x="72" y="271" on="0"/>
        <pt x="141" y="302" on="0"/>
        <pt x="204" y="302" on="1"/>
        <pt x="256" y="302" on="0"/>
        <pt x="360" y="298" on="1"/>
        <pt x="360" y="317" on="1"/>
        <pt x="360" y="362" on="0"/>
        <pt x="341" y="398" on="0"/>
        <pt x="289" y="408" on="0"/>
        <pt x="225" y="408" on="1"/>
        <pt x="194" y="408" on="0"/>
        <pt x="102" y="402" on="0"/>
        <pt x="75" y="399" on="1"/>
        <pt x="75" y="502" on="1"/>
        <pt x="168" y="518" on="0"/>
        <pt x="269" y="518" on="1"/>
        <pt x="367" y="518" on="0"/>
        <pt x="463" y="475" on="0"/>
        <pt x="493" y="390" on="0"/>
        <pt x="493" y="311" on="1"/>
        <pt x="493" y="0" on="1"/>
        <pt x="368" y="0" on="1"/>
        <pt x="364" y="62" on="1"/>
        <pt x="357" y="62" on="1"/>
        <pt x="334" y="20" on="0"/>
        <pt x="250" y="-8" on="0"/>
        <pt x="196" y="-8" on="1"/>
      </contour>
      <contour>
        <pt x="292" y="97" on="0"/>
        <pt x="333" y="112" on="0"/>
        <pt x="345" y="129" on="1"/>
        <pt x="360" y="153" on="0"/>
        <pt x="360" y="204" on="1"/>
        <pt x="360" y="220" on="1"/>
        <pt x="240" y="220" on="1"/>
        <pt x="210" y="220" on="0"/>
        <pt x="182" y="211" on="0"/>
        <pt x="172" y="185" on="0"/>
        <pt x="172" y="157" on="1"/>
        <pt x="172" y="130" on="0"/>
        <pt x="185" y="106" on="0"/>
        <pt x="220" y="97" on="0"/>
        <pt x="259" y="97" on="1"/>
      </contour>
    </TTGlyph>
    <TTGlyph name="aacute" xMin="44" yMin="-8" xMax="493" yMax="743">
      <component glyphName="a" x="0" y="0" flags="0x0"/>
      <component glyphName="acute" x="205" y="0" flags="0x0"/>
    </TTGlyph>
    <TTGlyph name="abreve" xMin="44" yMin="-8" xMax="493" yMax="743">
      <component glyphName="a" x="0" y="0" flags="0x0"/>
      <component glyphName="uni0306" x="450" y="0" flags="0x0"/>
    </TTGlyph>
    <TTGlyph name="acircumflex" xMin="44" yMin="-8" xMax="493" yMax="743">
      <component glyphName="a" x="0" y="0" flags="0x0"/>
      <component glyphName="circumflex" x="103" y="0" flags="0x0"/>
    </TTGlyph>
    <TTGlyph name="acute" xMin="20" yMin="599" xMax="248" yMax="743">
      <contour>
        <pt x="20" y="604" on="1"/>
        <pt x="114" y="743" on="1"/>
        <pt x="248" y="743" on="1"/>
        <pt x="248" y="738" on="1"/>
        <pt x="116" y="599" on="1"/>
        <pt x="20" y="599" on="1"/>
      </contour>
    </TTGlyph>
    <TTGlyph name="acute.case.loclPLK" xMin="20" yMin="744" xMax="199" yMax="888">
      <contour>
        <pt x="20" y="749" on="1"/>
        <pt x="66" y="888" on="1"/>
        <pt x="199" y="888" on="1"/>
        <pt x="199" y="883" on="1"/>
        <pt x="116" y="744" on="1"/>
        <pt x="20" y="744" on="1"/>
      </contour>
    </TTGlyph>
    <TTGlyph name="acute.loclPLK" xMin="20" yMin="599" xMax="199" yMax="743">
      <contour>
        <pt x="20" y="604" on="1"/>
        <pt x="66" y="743" on="1"/>
        <pt x="199" y="743" on="1"/>
        <pt x="199" y="738" on="1"/>
        <pt x="116" y="599" on="1"/>
        <pt x="20" y="599" on="1"/>
      </contour>
    </TTGlyph>
    <TTGlyph name="acutecomb" xMin="-247" yMin="599" xMax="-19" yMax="743">
      <contour>
        <pt x="-247" y="604" on="1"/>
        <pt x="-153" y="743" on="1"/>
        <pt x="-19" y="743" on="1"/>
        <pt x="-19" y="738" on="1"/>
        <pt x="-151" y="599" on="1"/>
        <pt x="-247" y="599" on="1"/>
      </contour>
    </TTGlyph>
    <TTGlyph name="acutecomb.case" xMin="-247" yMin="744" xMax="-19" yMax="888">
      <contour>
        <pt x="-247" y="749" on="1"/>
        <pt x="-153" y="888" on="1"/>
        <pt x="-19" y="888" on="1"/>
        <pt x="-19" y="883" on="1"/>
        <pt x="-151" y="744" on="1"/>
        <pt x="-247" y="744" on="1"/>
      </contour>
    </TTGlyph>
    <TTGlyph name="adieresis" xMin="44" yMin="-8" xMax="493" yMax="730">
      <component glyphName="a" x="0" y="0" flags="0x0"/>
      <component glyphName="dieresis" x="107" y="0" flags="0x0"/>
    </TTGlyph>
    <TTGlyph name="ae" xMin="44" yMin="-8" xMax="812" yMax="518">
      <contour>
        <pt x="812" y="217" on="1"/>
        <pt x="494" y="217" on="1"/>
        <pt x="494" y="162" on="0"/>
        <pt x="510" y="118" on="0"/>
        <pt x="567" y="102" on="0"/>
        <pt x="637" y="102" on="1"/>
        <pt x="696" y="102" on="0"/>
        <pt x="792" y="110" on="1"/>
        <pt x="792" y="8" on="1"/>
        <pt x="760" y="1" on="0"/>
        <pt x="656" y="-8" on="0"/>
        <pt x="606" y="-8" on="1"/>
        <pt x="527" y="-8" on="0"/>
        <pt x="434" y="19" on="0"/>
        <pt x="410" y="48" on="1"/>
        <pt x="377" y="13" on="0"/>
        <pt x="282" y="-8" on="0"/>
        <pt x="220" y="-8" on="1"/>
        <pt x="128" y="-8" on="0"/>
        <pt x="44" y="61" on="0"/>
        <pt x="44" y="143" on="1"/>
        <pt x="44" y="203" on="0"/>
        <pt x="72" y="271" on="0"/>
        <pt x="141" y="302" on="0"/>
        <pt x="204" y="302" on="1"/>
        <pt x="216" y="302" on="0"/>
        <pt x="330" y="299" on="1"/>
        <pt x="360" y="298" on="1"/>
        <pt x="360" y="317" on="1"/>
        <pt x="360" y="362" on="0"/>
        <pt x="341" y="398" on="0"/>
        <pt x="289" y="408" on="0"/>
        <pt x="225" y="408" on="1"/>
        <pt x="193" y="408" on="0"/>
        <pt x="95" y="402" on="0"/>
        <pt x="75" y="399" on="1"/>
        <pt x="75" y="502" on="1"/>
        <pt x="165" y="518" on="0"/>
        <pt x="267" y="518" on="1"/>
        <pt x="327" y="518" on="0"/>
        <pt x="408" y="497" on="0"/>
        <pt x="433" y="475" on="1"/>
        <pt x="485" y="518" on="0"/>
        <pt x="597" y="518" on="1"/>
        <pt x="698" y="518" on="0"/>
        <pt x="789" y="465" on="0"/>
        <pt x="812" y="362" on="0"/>
        <pt x="812" y="254" on="1"/>
      </contour>
      <contour>
        <pt x="548" y="412" on="0"/>
        <pt x="508" y="395" on="0"/>
        <pt x="495" y="349" on="0"/>
        <pt x="494" y="297" on="1"/>
        <pt x="686" y="297" on="1"/>
        <pt x="686" y="349" on="0"/>
        <pt x="670" y="397" on="0"/>
        <pt x="632" y="412" on="0"/>
        <pt x="593" y="412" on="1"/>
      </contour>
      <contour>
        <pt x="360" y="217" on="1"/>
        <pt x="240" y="217" on="1"/>
        <pt x="209" y="217" on="0"/>
        <pt x="182" y="210" on="0"/>
        <pt x="172" y="185" on="0"/>
        <pt x="172" y="157" on="1"/>
        <pt x="172" y="130" on="0"/>
        <pt x="185" y="106" on="0"/>
        <pt x="220" y="97" on="0"/>
        <pt x="259" y="97" on="1"/>
        <pt x="296" y="97" on="0"/>
        <pt x="339" y="116" on="0"/>
        <pt x="349" y="138" on="1"/>
        <pt x="360" y="165" on="0"/>
        <pt x="360" y="204" on="1"/>
      </contour>
    </TTGlyph>
    <TTGlyph name="aeacute" xMin="44" yMin="-8" xMax="812" yMax="743">
      <component glyphName="ae" x="0" y="0" flags="0x0"/>
      <component glyphName="acutecomb" x="625" y="0" flags="0x0"/>
    </TTGlyph>
    <TTGlyph name="agrave" xMin="44" yMin="-8" xMax="493" yMax="743">
      <component glyphName="a" x="0" y="0" flags="0x0"/>
      <component glyphName="grave" x="90" y="0" flags="0x0"/>
    </TTGlyph>
    <TTGlyph name="amacron" xMin="44" yMin="-8" xMax="493" yMax="742">
      <component glyphName="a" x="0" y="0" flags="0x0"/>
      <component glyphName="uni0304" x="468" y="0" flags="0x0"/>
    </TTGlyph>
    <TTGlyph name="ampersand" xMin="56" yMin="-8" xMax="706" yMax="696">
      <contour>
        <pt x="706" y="403" on="1"/>
        <pt x="706" y="292" on="1"/>
        <pt x="598" y="292" on="1"/>
        <pt x="598" y="14" on="1"/>
        <pt x="547" y="4" on="0"/>
        <pt x="414" y="-8" on="0"/>
        <pt x="361" y="-8" on="1"/>
        <pt x="234" y="-8" on="0"/>
        <pt x="101" y="41" on="0"/>
        <pt x="56" y="123" on="0"/>
        <pt x="56" y="184" on="1"/>
        <pt x="56" y="263" on="0"/>
        <pt x="115" y="334" on="0"/>
        <pt x="180" y="349" on="1"/>
        <pt x="180" y="353" on="1"/>
        <pt x="119" y="368" on="0"/>
        <pt x="62" y="442" on="0"/>
        <pt x="62" y="515" on="1"/>
        <pt x="62" y="599" on="0"/>
        <pt x="190" y="696" on="0"/>
        <pt x="361" y="696" on="1"/>
        <pt x="412" y="696" on="0"/>
        <pt x="543" y="684" on="0"/>
        <pt x="594" y="674" on="1"/>
        <pt x="594" y="569" on="1"/>
        <pt x="547" y="575" on="0"/>
        <pt x="431" y="583" on="0"/>
        <pt x="388" y="583" on="1"/>
        <pt x="303" y="583" on="0"/>
        <pt x="224" y="567" on="0"/>
        <pt x="198" y="530" on="0"/>
        <pt x="198" y="491" on="1"/>
        <pt x="198" y="459" on="0"/>
        <pt x="212" y="422" on="0"/>
        <pt x="259" y="403" on="0"/>
        <pt x="307" y="403" on="1"/>
        <pt x="379" y="403" on="1"/>
        <pt x="379" y="292" on="1"/>
        <pt x="307" y="292" on="1"/>
        <pt x="257" y="292" on="0"/>
        <pt x="208" y="275" on="0"/>
        <pt x="192" y="236" on="0"/>
        <pt x="192" y="198" on="1"/>
        <pt x="192" y="158" on="0"/>
        <pt x="224" y="118" on="0"/>
        <pt x="295" y="104" on="0"/>
        <pt x="362" y="104" on="1"/>
        <pt x="421" y="104" on="0"/>
        <pt x="465" y="108" on="1"/>
        <pt x="465" y="403" on="1"/>
      </contour>
    </TTGlyph>
    <TTGlyph name="aogonek" xMin="44" yMin="-196" xMax="494" yMax="518">
      <contour>
        <pt x="494" y="-118" on="1"/>
        <pt x="494" y="-193" on="1"/>
        <pt x="458" y="-196" on="0"/>
        <pt x="436" y="-196" on="1"/>
        <pt x="319" y="-196" on="0"/>
        <pt x="319" y="-116" on="1"/>
        <pt x="319" y="-59" on="0"/>
        <pt x="380" y="0" on="1"/>
        <pt x="368" y="0" on="1"/>
        <pt x="364" y="62" on="1"/>
        <pt x="357" y="62" on="1"/>
        <pt x="334" y="20" on="0"/>
        <pt x="250" y="-8" on="0"/>
        <pt x="196" y="-8" on="1"/>
        <pt x="119" y="-8" on="0"/>
        <pt x="44" y="62" on="0"/>
        <pt x="44" y="143" on="1"/>
        <pt x="44" y="203" on="0"/>
        <pt x="72" y="271" on="0"/>
        <pt x="141" y="302" on="0"/>
        <pt x="204" y="302" on="1"/>
        <pt x="256" y="302" on="0"/>
        <pt x="360" y="298" on="1"/>
        <pt x="360" y="317" on="1"/>
        <pt x="360" y="362" on="0"/>
        <pt x="341" y="398" on="0"/>
        <pt x="289" y="408" on="0"/>
        <pt x="225" y="408" on="1"/>
        <pt x="195" y="408" on="0"/>
        <pt x="104" y="402" on="0"/>
        <pt x="75" y="399" on="1"/>
        <pt x="75" y="502" on="1"/>
        <pt x="168" y="518" on="0"/>
        <pt x="269" y="518" on="1"/>
        <pt x="367" y="518" on="0"/>
        <pt x="463" y="475" on="0"/>
        <pt x="493" y="390" on="0"/>
        <pt x="493" y="311" on="1"/>
        <pt x="493" y="0" on="1"/>
        <pt x="469" y="-13" on="0"/>
        <pt x="430" y="-63" on="0"/>
        <pt x="430" y="-86" on="1"/>
        <pt x="430" y="-119" on="0"/>
        <pt x="476" y="-119" on="1"/>
      </contour>
      <contour>
        <pt x="360" y="220" on="1"/>
        <pt x="240" y="220" on="1"/>
        <pt x="210" y="220" on="0"/>
        <pt x="182" y="211" on="0"/>
        <pt x="172" y="185" on="0"/>
        <pt x="172" y="157" on="1"/>
        <pt x="172" y="130" on="0"/>
        <pt x="185" y="106" on="0"/>
        <pt x="220" y="97" on="0"/>
        <pt x="259" y="97" on="1"/>
        <pt x="292" y="97" on="0"/>
        <pt x="333" y="112" on="0"/>
        <pt x="345" y="129" on="1"/>
        <pt x="360" y="153" on="0"/>
        <pt x="360" y="204" on="1"/>
      </contour>
    </TTGlyph>
    <TTGlyph name="approxequal" xMin="57" yMin="86" xMax="438" yMax="421">
      <contour>
        <pt x="57" y="326" on="0"/>
        <pt x="67" y="380" on="0"/>
        <pt x="104" y="410" on="0"/>
        <pt x="144" y="410" on="1"/>
        <pt x="170" y="410" on="0"/>
        <pt x="219" y="401" on="0"/>
        <pt x="262" y="390" on="1"/>
        <pt x="318" y="375" on="0"/>
        <pt x="342" y="375" on="1"/>
        <pt x="361" y="375" on="0"/>
        <pt x="369" y="392" on="0"/>
        <pt x="369" y="421" on="1"/>
        <pt x="438" y="421" on="1"/>
        <pt x="438" y="369" on="0"/>
        <pt x="428" y="315" on="0"/>
        <pt x="391" y="285" on="0"/>
        <pt x="352" y="285" on="1"/>
        <pt x="326" y="285" on="0"/>
        <pt x="277" y="294" on="0"/>
        <pt x="234" y="305" on="1"/>
        <pt x="178" y="320" on="0"/>
        <pt x="154" y="320" on="1"/>
        <pt x="135" y="320" on="0"/>
        <pt x="127" y="303" on="0"/>
        <pt x="127" y="274" on="1"/>
        <pt x="57" y="274" on="1"/>
      </contour>
      <contour>
        <pt x="57" y="137" on="0"/>
        <pt x="67" y="192" on="0"/>
        <pt x="104" y="222" on="0"/>
        <pt x="144" y="222" on="1"/>
        <pt x="171" y="222" on="0"/>
        <pt x="224" y="211" on="0"/>
        <pt x="262" y="201" on="1"/>
        <pt x="284" y="196" on="0"/>
        <pt x="327" y="187" on="0"/>
        <pt x="342" y="187" on="1"/>
        <pt x="361" y="187" on="0"/>
        <pt x="369" y="204" on="0"/>
        <pt x="369" y="233" on="1"/>
        <pt x="438" y="233" on="1"/>
        <pt x="438" y="181" on="0"/>
        <pt x="428" y="127" on="0"/>
        <pt x="391" y="97" on="0"/>
        <pt x="352" y="97" on="1"/>
        <pt x="326" y="97" on="0"/>
        <pt x="277" y="106" on="0"/>
        <pt x="234" y="117" on="1"/>
        <pt x="226" y="119" on="0"/>
        <pt x="172" y="132" on="0"/>
        <pt x="154" y="132" on="1"/>
        <pt x="135" y="132" on="0"/>
        <pt x="127" y="115" on="0"/>
        <pt x="127" y="86" on="1"/>
        <pt x="57" y="86" on="1"/>
      </contour>
    </TTGlyph>
    <TTGlyph name="aring" xMin="44" yMin="-8" xMax="493" yMax="812">
      <component glyphName="a" x="0" y="0" flags="0x0"/>
      <component glyphName="ring" x="122" y="-15" flags="0x4"/>
    </TTGlyph>
    <TTGlyph name="aringacute" xMin="44" yMin="-8" xMax="493" yMax="1000">
      <component glyphName="a" x="0" y="0" flags="0x0"/>
      <component glyphName="uni030A" x="444" y="0" flags="0x0"/>
      <component glyphName="acutecomb" x="476" y="257" flags="0x4"/>
    </TTGlyph>
    <TTGlyph name="arrowboth" xMin="55" yMin="162" xMax="828" yMax="447">
      <contour>
        <pt x="55" y="304" on="1"/>
        <pt x="340" y="447" on="1"/>
        <pt x="308" y="353" on="1"/>
        <pt x="575" y="353" on="1"/>
        <pt x="543" y="447" on="1"/>
        <pt x="828" y="304" on="1"/>
        <pt x="543" y="162" on="1"/>
        <pt x="575" y="256" on="1"/>
        <pt x="308" y="256" on="1"/>
        <pt x="340" y="162" on="1"/>
      </contour>
    </TTGlyph>
    <TTGlyph name="arrowdown" xMin="55" yMin="-85" xMax="340" yMax="688">
      <contour>
        <pt x="55" y="200" on="1"/>
        <pt x="151" y="168" on="1"/>
        <pt x="151" y="688" on="1"/>
        <pt x="245" y="688" on="1"/>
        <pt x="245" y="168" on="1"/>
        <pt x="340" y="200" on="1"/>
        <pt x="198" y="-85" on="1"/>
      </contour>
    </TTGlyph>
    <TTGlyph name="arrowdown.ss01" xMin="30" yMin="171" xMax="315" yMax="456">
      <contour>
        <pt x="30" y="456" on="1"/>
        <pt x="315" y="456" on="1"/>
        <pt x="173" y="171" on="1"/>
      </contour>
    </TTGlyph>
    <TTGlyph name="arrowleft" xMin="55" yMin="162" xMax="828" yMax="447">
      <contour>
        <pt x="340" y="162" on="1"/>
        <pt x="55" y="304" on="1"/>
        <pt x="340" y="447" on="1"/>
        <pt x="308" y="353" on="1"/>
        <pt x="828" y="353" on="1"/>
        <pt x="828" y="256" on="1"/>
        <pt x="308" y="256" on="1"/>
      </contour>
    </TTGlyph>
    <TTGlyph name="arrowleft.ss01" xMin="30" yMin="201" xMax="315" yMax="486">
      <contour>
        <pt x="30" y="343" on="1"/>
        <pt x="315" y="486" on="1"/>
        <pt x="315" y="201" on="1"/>
      </contour>
    </TTGlyph>
    <TTGlyph name="arrowright" xMin="55" yMin="162" xMax="828" yMax="447">
      <contour>
        <pt x="575" y="256" on="1"/>
        <pt x="55" y="256" on="1"/>
        <pt x="55" y="353" on="1"/>
        <pt x="575" y="353" on="1"/>
        <pt x="543" y="447" on="1"/>
        <pt x="828" y="304" on="1"/>
        <pt x="543" y="162" on="1"/>
      </contour>
    </TTGlyph>
    <TTGlyph name="arrowright.ss01" xMin="48" yMin="201" xMax="333" yMax="486">
      <contour>
        <pt x="48" y="486" on="1"/>
        <pt x="333" y="343" on="1"/>
        <pt x="48" y="201" on="1"/>
      </contour>
    </TTGlyph>
    <TTGlyph name="arrowup" xMin="55" yMin="-82" xMax="340" yMax="691">
      <contour>
        <pt x="151" y="438" on="1"/>
        <pt x="55" y="406" on="1"/>
        <pt x="198" y="691" on="1"/>
        <pt x="340" y="406" on="1"/>
        <pt x="245" y="438" on="1"/>
        <pt x="245" y="-82" on="1"/>
        <pt x="151" y="-82" on="1"/>
      </contour>
    </TTGlyph>
    <TTGlyph name="arrowup.ss01" xMin="30" yMin="231" xMax="315" yMax="516">
      <contour>
        <pt x="173" y="516" on="1"/>
        <pt x="315" y="231" on="1"/>
        <pt x="30" y="231" on="1"/>
      </contour>
    </TTGlyph>
    <TTGlyph name="arrowupdn" xMin="55" yMin="-85" xMax="340" yMax="696">
      <contour>
        <pt x="55" y="200" on="1"/>
        <pt x="151" y="168" on="1"/>
        <pt x="151" y="443" on="1"/>
        <pt x="55" y="411" on="1"/>
        <pt x="198" y="696" on="1"/>
        <pt x="340" y="411" on="1"/>
        <pt x="245" y="443" on="1"/>
        <pt x="245" y="168" on="1"/>
        <pt x="340" y="200" on="1"/>
        <pt x="198" y="-85" on="1"/>
      </contour>
    </TTGlyph>
    <TTGlyph name="arrowupdnbse" xMin="55" yMin="-205" xMax="340" yMax="696">
      <contour>
        <pt x="55" y="200" on="1"/>
        <pt x="151" y="168" on="1"/>
        <pt x="151" y="443" on="1"/>
        <pt x="55" y="411" on="1"/>
        <pt x="198" y="696" on="1"/>
        <pt x="340" y="411" on="1"/>
        <pt x="245" y="443" on="1"/>
        <pt x="245" y="168" on="1"/>
        <pt x="340" y="200" on="1"/>
        <pt x="198" y="-85" on="1"/>
      </contour>
      <contour>
        <pt x="55" y="-119" on="1"/>
        <pt x="340" y="-119" on="1"/>
        <pt x="340" y="-205" on="1"/>
        <pt x="55" y="-205" on="1"/>
      </contour>
    </TTGlyph>
    <TTGlyph name="asciicircum" xMin="28" yMin="443" xMax="412" yMax="749">
      <contour>
        <pt x="221" y="656" on="1"/>
        <pt x="127" y="443" on="1"/>
        <pt x="28" y="443" on="1"/>
        <pt x="169" y="749" on="1"/>
        <pt x="272" y="749" on="1"/>
        <pt x="412" y="443" on="1"/>
        <pt x="314" y="443" on="1"/>
      </contour>
    </TTGlyph>
    <TTGlyph name="asciitilde" xMin="57" yMin="229" xMax="438" yMax="376">
      <contour>
        <pt x="438" y="325" on="0"/>
        <pt x="428" y="271" on="0"/>
        <pt x="391" y="241" on="0"/>
        <pt x="352" y="241" on="1"/>
        <pt x="308" y="241" on="0"/>
        <pt x="234" y="261" on="1"/>
        <pt x="226" y="263" on="0"/>
        <pt x="172" y="276" on="0"/>
        <pt x="154" y="276" on="1"/>
        <pt x="135" y="276" on="0"/>
        <pt x="127" y="258" on="0"/>
        <pt x="127" y="229" on="1"/>
        <pt x="57" y="229" on="1"/>
        <pt x="57" y="281" on="0"/>
        <pt x="67" y="335" on="0"/>
        <pt x="104" y="365" on="0"/>
        <pt x="144" y="365" on="1"/>
        <pt x="188" y="365" on="0"/>
        <pt x="262" y="345" on="1"/>
        <pt x="270" y="343" on="0"/>
        <pt x="324" y="330" on="0"/>
        <pt x="342" y="330" on="1"/>
        <pt x="361" y="330" on="0"/>
        <pt x="369" y="347" on="0"/>
        <pt x="369" y="376" on="1"/>
        <pt x="438" y="376" on="1"/>
      </contour>
    </TTGlyph>
    <TTGlyph name="asterisk" xMin="44" yMin="319" xMax="402" yMax="688">
      <contour>
        <pt x="261" y="319" on="1"/>
        <pt x="186" y="319" on="1"/>
        <pt x="196" y="453" on="1"/>
        <pt x="82" y="376" on="1"/>
        <pt x="44" y="445" on="1"/>
        <pt x="168" y="502" on="1"/>
        <pt x="44" y="562" on="1"/>
        <pt x="82" y="630" on="1"/>
        <pt x="196" y="553" on="1"/>
        <pt x="186" y="688" on="1"/>
        <pt x="261" y="688" on="1"/>
        <pt x="250" y="554" on="1"/>
        <pt x="366" y="630" on="1"/>
        <pt x="402" y="562" on="1"/>
        <pt x="279" y="502" on="1"/>
        <pt x="402" y="445" on="1"/>
        <pt x="366" y="376" on="1"/>
        <pt x="251" y="453" on="1"/>
      </contour>
    </TTGlyph>
    <TTGlyph name="asterisk.ss02" xMin="35" yMin="-14" xMax="782" yMax="705">
      <contour>
        <pt x="269" y="262" on="1"/>
        <pt x="35" y="436" on="1"/>
        <pt x="322" y="436" on="1"/>
        <pt x="409" y="705" on="1"/>
        <pt x="494" y="436" on="1"/>
        <pt x="782" y="436" on="1"/>
        <pt x="550" y="262" on="1"/>
        <pt x="640" y="-14" on="1"/>
        <pt x="409" y="156" on="1"/>
        <pt x="178" y="-14" on="1"/>
      </contour>
    </TTGlyph>
    <TTGlyph name="at" xMin="76" yMin="-108" xMax="857" yMax="696">
      <contour>
        <pt x="272" y="-108" on="0"/>
        <pt x="117" y="-53" on="0"/>
        <pt x="76" y="99" on="0"/>
        <pt x="76" y="294" on="1"/>
        <pt x="76" y="490" on="0"/>
        <pt x="117" y="641" on="0"/>
        <pt x="271" y="696" on="0"/>
        <pt x="467" y="696" on="1"/>
        <pt x="663" y="696" on="0"/>
        <pt x="817" y="643" on="0"/>
        <pt x="857" y="491" on="0"/>
        <pt x="857" y="294" on="1"/>
        <pt x="857" y="188" on="0"/>
        <pt x="832" y="96" on="0"/>
        <pt x="782" y="75" on="0"/>
        <pt x="724" y="75" on="1"/>
        <pt x="553" y="75" on="1"/>
        <pt x="548" y="128" on="1"/>
        <pt x="541" y="128" on="1"/>
        <pt x="519" y="91" on="0"/>
        <pt x="454" y="68" on="0"/>
        <pt x="406" y="68" on="1"/>
        <pt x="336" y="68" on="0"/>
        <pt x="273" y="129" on="0"/>
        <pt x="273" y="200" on="1"/>
        <pt x="273" y="253" on="0"/>
        <pt x="296" y="308" on="0"/>
        <pt x="353" y="332" on="0"/>
        <pt x="408" y="332" on="1"/>
        <pt x="459" y="332" on="0"/>
        <pt x="545" y="328" on="1"/>
        <pt x="545" y="346" on="1"/>
        <pt x="545" y="384" on="0"/>
        <pt x="531" y="414" on="0"/>
        <pt x="487" y="422" on="0"/>
        <pt x="430" y="422" on="1"/>
        <pt x="392" y="422" on="0"/>
        <pt x="299" y="416" on="1"/>
        <pt x="299" y="505" on="1"/>
        <pt x="388" y="518" on="0"/>
        <pt x="469" y="518" on="1"/>
        <pt x="556" y="518" on="0"/>
        <pt x="639" y="482" on="0"/>
        <pt x="664" y="410" on="0"/>
        <pt x="664" y="341" on="1"/>
        <pt x="664" y="132" on="1"/>
        <pt x="734" y="132" on="1"/>
        <pt x="762" y="132" on="0"/>
        <pt x="785" y="148" on="0"/>
        <pt x="795" y="214" on="0"/>
        <pt x="795" y="294" on="1"/>
        <pt x="795" y="430" on="0"/>
        <pt x="783" y="551" on="0"/>
        <pt x="732" y="616" on="0"/>
        <pt x="674" y="628" on="1"/>
        <pt x="643" y="634" on="0"/>
        <pt x="553" y="637" on="0"/>
        <pt x="466" y="637" on="1"/>
        <pt x="409" y="637" on="0"/>
        <pt x="311" y="635" on="0"/>
        <pt x="281" y="631" on="1"/>
        <pt x="211" y="621" on="0"/>
        <pt x="152" y="559" on="0"/>
        <pt x="137" y="436" on="0"/>
        <pt x="137" y="294" on="1"/>
        <pt x="137" y="137" on="0"/>
        <pt x="157" y="10" on="0"/>
        <pt x="235" y="-43" on="0"/>
        <pt x="331" y="-48" on="1"/>
        <pt x="367" y="-50" on="0"/>
        <pt x="467" y="-50" on="1"/>
        <pt x="515" y="-50" on="0"/>
        <pt x="630" y="-47" on="0"/>
        <pt x="663" y="-46" on="1"/>
        <pt x="663" y="-105" on="1"/>
        <pt x="589" y="-108" on="0"/>
        <pt x="467" y="-108" on="1"/>
      </contour>
      <contour>
        <pt x="495" y="156" on="0"/>
        <pt x="532" y="171" on="0"/>
        <pt x="545" y="205" on="0"/>
        <pt x="545" y="239" on="1"/>
        <pt x="545" y="263" on="1"/>
        <pt x="441" y="263" on="1"/>
        <pt x="416" y="263" on="0"/>
        <pt x="394" y="256" on="0"/>
        <pt x="386" y="234" on="0"/>
        <pt x="386" y="210" on="1"/>
        <pt x="386" y="186" on="0"/>
        <pt x="396" y="165" on="0"/>
        <pt x="426" y="156" on="0"/>
        <pt x="459" y="156" on="1"/>
      </contour>
    </TTGlyph>
    <TTGlyph name="atilde" xMin="44" yMin="-8" xMax="493" yMax="743">
      <component glyphName="a" x="0" y="0" flags="0x0"/>
      <component glyphName="tilde" x="72" y="-1" flags="0x4"/>
    </TTGlyph>
    <TTGlyph name="b" xMin="70" yMin="-8" xMax="531" yMax="743">
      <contour>
        <pt x="305" y="-8" on="0"/>
        <pt x="227" y="22" on="0"/>
        <pt x="206" y="63" on="1"/>
        <pt x="199" y="63" on="1"/>
        <pt x="195" y="0" on="1"/>
        <pt x="70" y="0" on="1"/>
        <pt x="70" y="743" on="1"/>
        <pt x="203" y="743" on="1"/>
        <pt x="203" y="454" on="1"/>
        <pt x="210" y="454" on="1"/>
        <pt x="232" y="490" on="0"/>
        <pt x="306" y="518" on="0"/>
        <pt x="360" y="518" on="1"/>
        <pt x="424" y="518" on="0"/>
        <pt x="497" y="470" on="0"/>
        <pt x="531" y="357" on="0"/>
        <pt x="531" y="255" on="1"/>
        <pt x="531" y="153" on="0"/>
        <pt x="497" y="39" on="0"/>
        <pt x="422" y="-8" on="0"/>
        <pt x="357" y="-8" on="1"/>
      </contour>
      <contour>
        <pt x="347" y="110" on="0"/>
        <pt x="385" y="128" on="0"/>
        <pt x="398" y="185" on="0"/>
        <pt x="398" y="255" on="1"/>
        <pt x="398" y="324" on="0"/>
        <pt x="385" y="381" on="0"/>
        <pt x="347" y="399" on="0"/>
        <pt x="300" y="399" on="1"/>
        <pt x="268" y="399" on="0"/>
        <pt x="231" y="385" on="0"/>
        <pt x="221" y="369" on="1"/>
        <pt x="210" y="353" on="0"/>
        <pt x="203" y="299" on="0"/>
        <pt x="203" y="255" on="1"/>
        <pt x="203" y="211" on="0"/>
        <pt x="210" y="157" on="0"/>
        <pt x="221" y="140" on="1"/>
        <pt x="231" y="124" on="0"/>
        <pt x="268" y="110" on="0"/>
        <pt x="300" y="110" on="1"/>
      </contour>
    </TTGlyph>
    <TTGlyph name="backslash" xMin="-8" yMin="-55" xMax="398" yMax="743">
      <contour>
        <pt x="-8" y="743" on="1"/>
        <pt x="109" y="743" on="1"/>
        <pt x="398" y="-55" on="1"/>
        <pt x="283" y="-55" on="1"/>
      </contour>
    </TTGlyph>
    <TTGlyph name="bar" xMin="86" yMin="-161" xMax="203" yMax="743">
      <contour>
        <pt x="86" y="743" on="1"/>
        <pt x="203" y="743" on="1"/>
        <pt x="203" y="-161" on="1"/>
        <pt x="86" y="-161" on="1"/>
      </contour>
    </TTGlyph>
    <TTGlyph name="bar.ss02" xMin="-1" yMin="0" xMax="499" yMax="696">
      <contour>
        <pt x="-1" y="696" on="1"/>
        <pt x="499" y="696" on="1"/>
        <pt x="499" y="0" on="1"/>
        <pt x="-1" y="0" on="1"/>
      </contour>
    </TTGlyph>
    <TTGlyph name="braceleft" xMin="24" yMin="-150" xMax="331" yMax="743">
      <contour>
        <pt x="115" y="-71" on="0"/>
        <pt x="115" y="35" on="1"/>
        <pt x="115" y="149" on="1"/>
        <pt x="115" y="198" on="0"/>
        <pt x="78" y="263" on="0"/>
        <pt x="24" y="265" on="1"/>
        <pt x="24" y="328" on="1"/>
        <pt x="78" y="329" on="0"/>
        <pt x="115" y="394" on="0"/>
        <pt x="115" y="444" on="1"/>
        <pt x="115" y="558" on="1"/>
        <pt x="115" y="664" on="0"/>
        <pt x="239" y="743" on="1"/>
        <pt x="331" y="743" on="1"/>
        <pt x="329" y="741" on="0"/>
        <pt x="281" y="694" on="0"/>
        <pt x="236" y="608" on="0"/>
        <pt x="236" y="568" on="1"/>
        <pt x="236" y="446" on="1"/>
        <pt x="236" y="322" on="0"/>
        <pt x="124" y="300" on="1"/>
        <pt x="124" y="293" on="1"/>
        <pt x="236" y="271" on="0"/>
        <pt x="236" y="146" on="1"/>
        <pt x="236" y="25" on="1"/>
        <pt x="236" y="-15" on="0"/>
        <pt x="275" y="-90" on="0"/>
        <pt x="317" y="-135" on="0"/>
        <pt x="331" y="-150" on="1"/>
        <pt x="239" y="-150" on="1"/>
      </contour>
    </TTGlyph>
    <TTGlyph name="braceright" xMin="19" yMin="-150" xMax="326" yMax="743">
      <contour>
        <pt x="21" y="-148" on="0"/>
        <pt x="69" y="-101" on="0"/>
        <pt x="114" y="-15" on="0"/>
        <pt x="114" y="25" on="1"/>
        <pt x="114" y="146" on="1"/>
        <pt x="114" y="271" on="0"/>
        <pt x="226" y="293" on="1"/>
        <pt x="226" y="300" on="1"/>
        <pt x="114" y="322" on="0"/>
        <pt x="114" y="446" on="1"/>
        <pt x="114" y="568" on="1"/>
        <pt x="114" y="608" on="0"/>
        <pt x="75" y="683" on="0"/>
        <pt x="33" y="728" on="0"/>
        <pt x="19" y="743" on="1"/>
        <pt x="111" y="743" on="1"/>
        <pt x="235" y="664" on="0"/>
        <pt x="235" y="558" on="1"/>
        <pt x="235" y="444" on="1"/>
        <pt x="235" y="394" on="0"/>
        <pt x="272" y="329" on="0"/>
        <pt x="326" y="328" on="1"/>
        <pt x="326" y="265" on="1"/>
        <pt x="272" y="263" on="0"/>
        <pt x="235" y="198" on="0"/>
        <pt x="235" y="149" on="1"/>
        <pt x="235" y="35" on="1"/>
        <pt x="235" y="-71" on="0"/>
        <pt x="111" y="-150" on="1"/>
        <pt x="19" y="-150" on="1"/>
      </contour>
    </TTGlyph>
    <TTGlyph name="bracketleft" xMin="83" yMin="-150" xMax="322" yMax="743">
      <contour>
        <pt x="83" y="743" on="1"/>
        <pt x="322" y="743" on="1"/>
        <pt x="322" y="653" on="1"/>
        <pt x="203" y="649" on="1"/>
        <pt x="203" y="-56" on="1"/>
        <pt x="322" y="-60" on="1"/>
        <pt x="322" y="-150" on="1"/>
        <pt x="83" y="-150" on="1"/>
      </contour>
    </TTGlyph>
    <TTGlyph name="bracketleft.ss02" xMin="45" yMin="0" xMax="397" yMax="696">
      <contour>
        <pt x="45" y="0" on="1"/>
        <pt x="45" y="348" on="1"/>
        <pt x="45" y="449" on="0"/>
        <pt x="135" y="608" on="0"/>
        <pt x="295" y="696" on="0"/>
        <pt x="397" y="696" on="1"/>
        <pt x="397" y="0" on="1"/>
      </contour>
    </TTGlyph>
    <TTGlyph name="bracketright" xMin="43" yMin="-150" xMax="283" yMax="743">
      <contour>
        <pt x="43" y="-60" on="1"/>
        <pt x="162" y="-56" on="1"/>
        <pt x="162" y="649" on="1"/>
        <pt x="43" y="653" on="1"/>
        <pt x="43" y="743" on="1"/>
        <pt x="283" y="743" on="1"/>
        <pt x="283" y="-150" on="1"/>
        <pt x="43" y="-150" on="1"/>
      </contour>
    </TTGlyph>
    <TTGlyph name="bracketright.ss02" xMin="0" yMin="0" xMax="352" yMax="696">
      <contour>
        <pt x="0" y="696" on="1"/>
        <pt x="102" y="696" on="0"/>
        <pt x="262" y="608" on="0"/>
        <pt x="352" y="449" on="0"/>
        <pt x="352" y="348" on="1"/>
        <pt x="352" y="0" on="1"/>
        <pt x="0" y="0" on="1"/>
      </contour>
    </TTGlyph>
    <TTGlyph name="breve" xMin="20" yMin="595" xMax="315" yMax="743">
      <contour>
        <pt x="315" y="693" on="0"/>
        <pt x="295" y="631" on="0"/>
        <pt x="230" y="595" on="0"/>
        <pt x="166" y="595" on="1"/>
        <pt x="103" y="595" on="0"/>
        <pt x="40" y="631" on="0"/>
        <pt x="20" y="693" on="0"/>
        <pt x="20" y="743" on="1"/>
        <pt x="96" y="743" on="1"/>
        <pt x="96" y="716" on="0"/>
        <pt x="103" y="689" on="0"/>
        <pt x="133" y="673" on="0"/>
        <pt x="166" y="673" on="1"/>
        <pt x="199" y="673" on="0"/>
        <pt x="230" y="689" on="0"/>
        <pt x="238" y="716" on="0"/>
        <pt x="238" y="743" on="1"/>
        <pt x="315" y="743" on="1"/>
      </contour>
    </TTGlyph>
    <TTGlyph name="brokenbar" xMin="86" yMin="-161" xMax="203" yMax="743">
      <contour>
        <pt x="86" y="743" on="1"/>
        <pt x="203" y="743" on="1"/>
        <pt x="203" y="390" on="1"/>
        <pt x="86" y="390" on="1"/>
      </contour>
      <contour>
        <pt x="86" y="192" on="1"/>
        <pt x="203" y="192" on="1"/>
        <pt x="203" y="-161" on="1"/>
        <pt x="86" y="-161" on="1"/>
      </contour>
    </TTGlyph>
    <TTGlyph name="bullet" xMin="75" yMin="223" xMax="309" yMax="464">
      <contour>
        <pt x="309" y="285" on="0"/>
        <pt x="297" y="240" on="0"/>
        <pt x="249" y="223" on="0"/>
        <pt x="190" y="223" on="1"/>
        <pt x="133" y="223" on="0"/>
        <pt x="87" y="240" on="0"/>
        <pt x="75" y="285" on="0"/>
        <pt x="75" y="342" on="1"/>
        <pt x="75" y="401" on="0"/>
        <pt x="87" y="447" on="0"/>
        <pt x="133" y="464" on="0"/>
        <pt x="190" y="464" on="1"/>
        <pt x="249" y="464" on="0"/>
        <pt x="297" y="447" on="0"/>
        <pt x="309" y="401" on="0"/>
        <pt x="309" y="342" on="1"/>
      </contour>
    </TTGlyph>
    <TTGlyph name="bullet.ss02" xMin="40" yMin="-8" xMax="743" yMax="696">
      <contour>
        <pt x="343" y="421" on="0"/>
        <pt x="279" y="480" on="0"/>
        <pt x="279" y="533" on="1"/>
        <pt x="279" y="575" on="0"/>
        <pt x="318" y="650" on="0"/>
        <pt x="373" y="696" on="0"/>
        <pt x="392" y="696" on="1"/>
        <pt x="411" y="696" on="0"/>
        <pt x="465" y="650" on="0"/>
        <pt x="504" y="575" on="0"/>
        <pt x="504" y="533" on="1"/>
        <pt x="504" y="480" on="0"/>
        <pt x="441" y="421" on="0"/>
        <pt x="392" y="421" on="1"/>
      </contour>
      <contour>
        <pt x="415" y="481" on="0"/>
        <pt x="444" y="508" on="0"/>
        <pt x="444" y="533" on="1"/>
        <pt x="444" y="560" on="0"/>
        <pt x="426" y="607" on="0"/>
        <pt x="401" y="636" on="0"/>
        <pt x="392" y="636" on="1"/>
        <pt x="383" y="636" on="0"/>
        <pt x="358" y="607" on="0"/>
        <pt x="339" y="560" on="0"/>
        <pt x="339" y="533" on="1"/>
        <pt x="339" y="508" on="0"/>
        <pt x="369" y="481" on="0"/>
        <pt x="392" y="481" on="1"/>
      </contour>
      <contour>
        <pt x="161" y="231" on="0"/>
        <pt x="86" y="270" on="0"/>
        <pt x="40" y="325" on="0"/>
        <pt x="40" y="344" on="1"/>
        <pt x="40" y="363" on="0"/>
        <pt x="86" y="417" on="0"/>
        <pt x="161" y="456" on="0"/>
        <pt x="203" y="456" on="1"/>
        <pt x="256" y="456" on="0"/>
        <pt x="315" y="393" on="0"/>
        <pt x="315" y="344" on="1"/>
        <pt x="315" y="295" on="0"/>
        <pt x="256" y="231" on="0"/>
        <pt x="203" y="231" on="1"/>
      </contour>
      <contour>
        <pt x="527" y="231" on="0"/>
        <pt x="468" y="295" on="0"/>
        <pt x="468" y="344" on="1"/>
        <pt x="468" y="393" on="0"/>
        <pt x="527" y="456" on="0"/>
        <pt x="581" y="456" on="1"/>
        <pt x="622" y="456" on="0"/>
        <pt x="697" y="417" on="0"/>
        <pt x="743" y="363" on="0"/>
        <pt x="743" y="344" on="1"/>
        <pt x="743" y="325" on="0"/>
        <pt x="697" y="270" on="0"/>
        <pt x="623" y="231" on="0"/>
        <pt x="581" y="231" on="1"/>
      </contour>
      <contour>
        <pt x="228" y="291" on="0"/>
        <pt x="255" y="321" on="0"/>
        <pt x="255" y="344" on="1"/>
        <pt x="255" y="367" on="0"/>
        <pt x="228" y="396" on="0"/>
        <pt x="203" y="396" on="1"/>
        <pt x="176" y="396" on="0"/>
        <pt x="129" y="378" on="0"/>
        <pt x="100" y="353" on="0"/>
        <pt x="100" y="344" on="1"/>
        <pt x="100" y="335" on="0"/>
        <pt x="129" y="310" on="0"/>
        <pt x="176" y="291" on="0"/>
        <pt x="203" y="291" on="1"/>
      </contour>
      <contour>
        <pt x="607" y="291" on="0"/>
        <pt x="654" y="310" on="0"/>
        <pt x="683" y="335" on="0"/>
        <pt x="683" y="344" on="1"/>
        <pt x="683" y="353" on="0"/>
        <pt x="654" y="378" on="0"/>
        <pt x="607" y="396" on="0"/>
        <pt x="581" y="396" on="1"/>
        <pt x="556" y="396" on="0"/>
        <pt x="528" y="367" on="0"/>
        <pt x="528" y="344" on="1"/>
        <pt x="528" y="321" on="0"/>
        <pt x="556" y="291" on="0"/>
        <pt x="581" y="291" on="1"/>
      </contour>
      <contour>
        <pt x="373" y="-8" on="0"/>
        <pt x="318" y="38" on="0"/>
        <pt x="279" y="113" on="0"/>
        <pt x="279" y="155" on="1"/>
        <pt x="279" y="208" on="0"/>
        <pt x="343" y="267" on="0"/>
        <pt x="392" y="267" on="1"/>
        <pt x="441" y="267" on="0"/>
        <pt x="504" y="208" on="0"/>
        <pt x="504" y="155" on="1"/>
        <pt x="504" y="113" on="0"/>
        <pt x="465" y="38" on="0"/>
        <pt x="411" y="-8" on="0"/>
        <pt x="392" y="-8" on="1"/>
      </contour>
      <contour>
        <pt x="401" y="52" on="0"/>
        <pt x="426" y="81" on="0"/>
        <pt x="444" y="128" on="0"/>
        <pt x="444" y="155" on="1"/>
        <pt x="444" y="180" on="0"/>
        <pt x="415" y="207" on="0"/>
        <pt x="392" y="207" on="1"/>
        <pt x="369" y="207" on="0"/>
        <pt x="339" y="180" on="0"/>
        <pt x="339" y="155" on="1"/>
        <pt x="339" y="128" on="0"/>
        <pt x="358" y="81" on="0"/>
        <pt x="383" y="52" on="0"/>
        <pt x="392" y="52" on="1"/>
      </contour>
    </TTGlyph>
    <TTGlyph name="c" xMin="52" yMin="-8" xMax="417" yMax="518">
      <contour>
        <pt x="388" y="0" on="0"/>
        <pt x="306" y="-8" on="0"/>
        <pt x="268" y="-8" on="1"/>
        <pt x="170" y="-8" on="0"/>
        <pt x="78" y="49" on="0"/>
        <pt x="52" y="156" on="0"/>
        <pt x="52" y="256" on="1"/>
        <pt x="52" y="351" on="0"/>
        <pt x="80" y="459" on="0"/>
        <pt x="173" y="518" on="0"/>
        <pt x="266" y="518" on="1"/>
        <pt x="304" y="518" on="0"/>
        <pt x="385" y="509" on="0"/>
        <pt x="413" y="502" on="1"/>
        <pt x="413" y="399" on="1"/>
        <pt x="361" y="408" on="0"/>
        <pt x="301" y="408" on="1"/>
        <pt x="248" y="408" on="0"/>
        <pt x="202" y="384" on="0"/>
        <pt x="187" y="323" on="0"/>
        <pt x="187" y="255" on="1"/>
        <pt x="187" y="186" on="0"/>
        <pt x="203" y="125" on="0"/>
        <pt x="250" y="102" on="0"/>
        <pt x="303" y="102" on="1"/>
        <pt x="339" y="102" on="0"/>
        <pt x="417" y="110" on="1"/>
        <pt x="417" y="7" on="1"/>
      </contour>
    </TTGlyph>
    <TTGlyph name="cacute" xMin="52" yMin="-8" xMax="417" yMax="743">
      <component glyphName="c" x="0" y="0" flags="0x0"/>
      <component glyphName="acutecomb" x="422" y="0" flags="0x0"/>
    </TTGlyph>
    <TTGlyph name="cacute.loclPLK" xMin="52" yMin="-8" xMax="417" yMax="743">
      <component glyphName="c" x="0" y="0" flags="0x0"/>
      <component glyphName="acute.loclPLK" x="155" y="0" flags="0x0"/>
    </TTGlyph>
    <TTGlyph name="caron" xMin="20" yMin="598" xMax="341" yMax="743">
      <contour>
        <pt x="20" y="736" on="1"/>
        <pt x="20" y="743" on="1"/>
        <pt x="107" y="743" on="1"/>
        <pt x="180" y="658" on="1"/>
        <pt x="253" y="743" on="1"/>
        <pt x="341" y="743" on="1"/>
        <pt x="341" y="736" on="1"/>
        <pt x="244" y="598" on="1"/>
        <pt x="116" y="598" on="1"/>
      </contour>
    </TTGlyph>
    <TTGlyph name="caron.loclCSY" xMin="50" yMin="432" xMax="187" yMax="688">
      <contour>
        <pt x="65" y="627" on="1"/>
        <pt x="65" y="688" on="1"/>
        <pt x="187" y="688" on="1"/>
        <pt x="187" y="627" on="1"/>
        <pt x="142" y="432" on="1"/>
        <pt x="50" y="432" on="1"/>
      </contour>
    </TTGlyph>
    <TTGlyph name="ccaron" xMin="52" yMin="-8" xMax="417" yMax="743">
      <component glyphName="c" x="0" y="0" flags="0x0"/>
      <component glyphName="uni030C" x="412" y="0" flags="0x0"/>
    </TTGlyph>
    <TTGlyph name="ccedilla" xMin="52" yMin="-190" xMax="417" yMax="518">
      <contour>
        <pt x="417" y="7" on="1"/>
        <pt x="389" y="0" on="0"/>
        <pt x="311" y="-8" on="0"/>
        <pt x="274" y="-8" on="1"/>
        <pt x="239" y="-190" on="1"/>
        <pt x="114" y="-190" on="1"/>
        <pt x="114" y="-185" on="1"/>
        <pt x="183" y="-1" on="1"/>
        <pt x="124" y="11" on="0"/>
        <pt x="68" y="75" on="0"/>
        <pt x="52" y="172" on="0"/>
        <pt x="52" y="256" on="1"/>
        <pt x="52" y="351" on="0"/>
        <pt x="80" y="459" on="0"/>
        <pt x="173" y="518" on="0"/>
        <pt x="266" y="518" on="1"/>
        <pt x="304" y="518" on="0"/>
        <pt x="385" y="509" on="0"/>
        <pt x="413" y="502" on="1"/>
        <pt x="413" y="399" on="1"/>
        <pt x="361" y="408" on="0"/>
        <pt x="301" y="408" on="1"/>
        <pt x="248" y="408" on="0"/>
        <pt x="202" y="384" on="0"/>
        <pt x="187" y="323" on="0"/>
        <pt x="187" y="255" on="1"/>
        <pt x="187" y="186" on="0"/>
        <pt x="203" y="125" on="0"/>
        <pt x="250" y="102" on="0"/>
        <pt x="303" y="102" on="1"/>
        <pt x="339" y="102" on="0"/>
        <pt x="417" y="110" on="1"/>
      </contour>
    </TTGlyph>
    <TTGlyph name="ccircumflex" xMin="52" yMin="-8" xMax="417" yMax="743">
      <component glyphName="c" x="0" y="0" flags="0x0"/>
      <component glyphName="uni0302" x="412" y="0" flags="0x0"/>
    </TTGlyph>
    <TTGlyph name="cdotaccent" xMin="52" yMin="-8" xMax="417" yMax="730">
      <component glyphName="c" x="0" y="0" flags="0x0"/>
      <component glyphName="uni0307" x="307" y="0" flags="0x0"/>
    </TTGlyph>
    <TTGlyph name="cedilla" xMin="20" yMin="-190" xMax="182" yMax="8">
      <contour>
        <pt x="20" y="-185" on="1"/>
        <pt x="92" y="8" on="1"/>
        <pt x="182" y="8" on="1"/>
        <pt x="182" y="3" on="1"/>
        <pt x="145" y="-190" on="1"/>
        <pt x="20" y="-190" on="1"/>
      </contour>
    </TTGlyph>
    <TTGlyph name="cent" xMin="55" yMin="-8" xMax="419" yMax="696">
      <contour>
        <pt x="218" y="70" on="1"/>
        <pt x="145" y="79" on="0"/>
        <pt x="75" y="145" on="0"/>
        <pt x="55" y="251" on="0"/>
        <pt x="55" y="342" on="1"/>
        <pt x="55" y="432" on="0"/>
        <pt x="77" y="540" on="0"/>
        <pt x="148" y="606" on="0"/>
        <pt x="218" y="615" on="1"/>
        <pt x="218" y="696" on="1"/>
        <pt x="315" y="696" on="1"/>
        <pt x="315" y="617" on="1"/>
        <pt x="378" y="614" on="0"/>
        <pt x="415" y="602" on="1"/>
        <pt x="415" y="494" on="1"/>
        <pt x="363" y="503" on="0"/>
        <pt x="306" y="503" on="1"/>
        <pt x="254" y="503" on="0"/>
        <pt x="209" y="479" on="0"/>
        <pt x="194" y="415" on="0"/>
        <pt x="194" y="342" on="1"/>
        <pt x="194" y="270" on="0"/>
        <pt x="210" y="205" on="0"/>
        <pt x="257" y="182" on="0"/>
        <pt x="308" y="182" on="1"/>
        <pt x="365" y="182" on="0"/>
        <pt x="419" y="191" on="1"/>
        <pt x="419" y="83" on="1"/>
        <pt x="378" y="72" on="0"/>
        <pt x="315" y="69" on="1"/>
        <pt x="315" y="-8" on="1"/>
        <pt x="218" y="-8" on="1"/>
      </contour>
    </TTGlyph>
    <TTGlyph name="cent.bold" xMin="55" yMin="-8" xMax="419" yMax="696">
      <contour>
        <pt x="419" y="83" on="1"/>
        <pt x="370" y="70" on="0"/>
        <pt x="315" y="68" on="1"/>
        <pt x="315" y="-8" on="1"/>
        <pt x="218" y="-8" on="1"/>
        <pt x="218" y="69" on="1"/>
        <pt x="150" y="77" on="0"/>
        <pt x="80" y="143" on="0"/>
        <pt x="55" y="254" on="0"/>
        <pt x="55" y="342" on="1"/>
        <pt x="55" y="467" on="0"/>
        <pt x="125" y="603" on="0"/>
        <pt x="218" y="616" on="1"/>
        <pt x="218" y="696" on="1"/>
        <pt x="315" y="696" on="1"/>
        <pt x="315" y="617" on="1"/>
        <pt x="370" y="615" on="0"/>
        <pt x="415" y="602" on="1"/>
        <pt x="415" y="494" on="1"/>
        <pt x="376" y="501" on="0"/>
        <pt x="315" y="503" on="1"/>
        <pt x="315" y="182" on="1"/>
        <pt x="380" y="184" on="0"/>
        <pt x="419" y="191" on="1"/>
      </contour>
      <contour>
        <pt x="194" y="284" on="0"/>
        <pt x="204" y="221" on="0"/>
        <pt x="218" y="206" on="1"/>
        <pt x="218" y="480" on="1"/>
        <pt x="204" y="465" on="0"/>
        <pt x="194" y="402" on="0"/>
        <pt x="194" y="342" on="1"/>
      </contour>
    </TTGlyph>
    <TTGlyph name="circumflex" xMin="20" yMin="598" xMax="341" yMax="743">
      <contour>
        <pt x="20" y="605" on="1"/>
        <pt x="116" y="743" on="1"/>
        <pt x="244" y="743" on="1"/>
        <pt x="341" y="605" on="1"/>
        <pt x="341" y="598" on="1"/>
        <pt x="253" y="598" on="1"/>
        <pt x="179" y="683" on="1"/>
        <pt x="107" y="598" on="1"/>
        <pt x="20" y="598" on="1"/>
      </contour>
    </TTGlyph>
    <TTGlyph name="colon" xMin="64" yMin="0" xMax="210" yMax="510">
      <contour>
        <pt x="64" y="510" on="1"/>
        <pt x="210" y="510" on="1"/>
        <pt x="210" y="375" on="1"/>
        <pt x="64" y="375" on="1"/>
      </contour>
      <contour>
        <pt x="64" y="135" on="1"/>
        <pt x="210" y="135" on="1"/>
        <pt x="210" y="0" on="1"/>
        <pt x="64" y="0" on="1"/>
      </contour>
    </TTGlyph>
    <TTGlyph name="comma" xMin="52" yMin="-141" xMax="210" yMax="135">
      <contour>
        <pt x="93" y="-82" on="0"/>
        <pt x="119" y="-57" on="0"/>
        <pt x="119" y="-17" on="1"/>
        <pt x="119" y="0" on="1"/>
        <pt x="64" y="0" on="1"/>
        <pt x="64" y="135" on="1"/>
        <pt x="210" y="135" on="1"/>
        <pt x="210" y="37" on="1"/>
        <pt x="210" y="-40" on="0"/>
        <pt x="188" y="-112" on="0"/>
        <pt x="123" y="-141" on="0"/>
        <pt x="52" y="-141" on="1"/>
        <pt x="52" y="-82" on="1"/>
      </contour>
    </TTGlyph>
    <TTGlyph name="copyright" xMin="80" yMin="-8" xMax="661" yMax="696">
      <contour>
        <pt x="226" y="-8" on="0"/>
        <pt x="110" y="42" on="0"/>
        <pt x="80" y="176" on="0"/>
        <pt x="80" y="344" on="1"/>
        <pt x="80" y="512" on="0"/>
        <pt x="110" y="645" on="0"/>
        <pt x="226" y="696" on="0"/>
        <pt x="370" y="696" on="1"/>
        <pt x="514" y="696" on="0"/>
        <pt x="631" y="645" on="0"/>
        <pt x="661" y="512" on="0"/>
        <pt x="661" y="344" on="1"/>
        <pt x="661" y="176" on="0"/>
        <pt x="631" y="42" on="0"/>
        <pt x="515" y="-8" on="0"/>
        <pt x="370" y="-8" on="1"/>
      </contour>
      <contour>
        <pt x="495" y="48" on="0"/>
        <pt x="581" y="78" on="0"/>
        <pt x="604" y="187" on="0"/>
        <pt x="604" y="344" on="1"/>
        <pt x="604" y="501" on="0"/>
        <pt x="581" y="609" on="0"/>
        <pt x="495" y="639" on="0"/>
        <pt x="370" y="639" on="1"/>
        <pt x="245" y="639" on="0"/>
        <pt x="159" y="609" on="0"/>
        <pt x="136" y="501" on="0"/>
        <pt x="136" y="344" on="1"/>
        <pt x="136" y="187" on="0"/>
        <pt x="159" y="78" on="0"/>
        <pt x="245" y="48" on="0"/>
        <pt x="370" y="48" on="1"/>
      </contour>
      <contour>
        <pt x="325" y="153" on="0"/>
        <pt x="260" y="187" on="0"/>
        <pt x="239" y="265" on="0"/>
        <pt x="239" y="342" on="1"/>
        <pt x="239" y="419" on="0"/>
        <pt x="260" y="497" on="0"/>
        <pt x="325" y="531" on="0"/>
        <pt x="392" y="531" on="1"/>
        <pt x="416" y="531" on="0"/>
        <pt x="469" y="526" on="0"/>
        <pt x="484" y="522" on="1"/>
        <pt x="484" y="458" on="1"/>
        <pt x="444" y="463" on="0"/>
        <pt x="411" y="463" on="1"/>
        <pt x="365" y="463" on="0"/>
        <pt x="331" y="449" on="0"/>
        <pt x="321" y="403" on="0"/>
        <pt x="321" y="342" on="1"/>
        <pt x="321" y="281" on="0"/>
        <pt x="331" y="235" on="0"/>
        <pt x="365" y="221" on="0"/>
        <pt x="411" y="221" on="1"/>
        <pt x="453" y="221" on="0"/>
        <pt x="486" y="226" on="1"/>
        <pt x="486" y="161" on="1"/>
        <pt x="451" y="153" on="0"/>
        <pt x="392" y="153" on="1"/>
      </contour>
    </TTGlyph>
    <TTGlyph name="currency" xMin="52" yMin="-3" xMax="626" yMax="691">
      <contour>
        <pt x="53" y="72" on="1"/>
        <pt x="128" y="148" on="1"/>
        <pt x="114" y="177" on="0"/>
        <pt x="105" y="266" on="0"/>
        <pt x="105" y="345" on="1"/>
        <pt x="105" y="423" on="0"/>
        <pt x="113" y="511" on="0"/>
        <pt x="127" y="541" on="1"/>
        <pt x="52" y="616" on="1"/>
        <pt x="124" y="690" on="1"/>
        <pt x="209" y="605" on="1"/>
        <pt x="255" y="618" on="0"/>
        <pt x="339" y="618" on="1"/>
        <pt x="423" y="618" on="0"/>
        <pt x="469" y="605" on="1"/>
        <pt x="554" y="691" on="1"/>
        <pt x="626" y="617" on="1"/>
        <pt x="550" y="541" on="1"/>
        <pt x="564" y="511" on="0"/>
        <pt x="573" y="421" on="0"/>
        <pt x="573" y="345" on="1"/>
        <pt x="573" y="268" on="0"/>
        <pt x="564" y="177" on="0"/>
        <pt x="549" y="148" on="1"/>
        <pt x="626" y="72" on="1"/>
        <pt x="554" y="-3" on="1"/>
        <pt x="468" y="83" on="1"/>
        <pt x="422" y="70" on="0"/>
        <pt x="339" y="70" on="1"/>
        <pt x="255" y="70" on="0"/>
        <pt x="209" y="83" on="1"/>
        <pt x="124" y="-2" on="1"/>
      </contour>
      <contour>
        <pt x="391" y="181" on="0"/>
        <pt x="430" y="202" on="0"/>
        <pt x="439" y="261" on="0"/>
        <pt x="439" y="345" on="1"/>
        <pt x="439" y="428" on="0"/>
        <pt x="430" y="487" on="0"/>
        <pt x="391" y="507" on="0"/>
        <pt x="339" y="507" on="1"/>
        <pt x="286" y="507" on="0"/>
        <pt x="247" y="487" on="0"/>
        <pt x="238" y="428" on="0"/>
        <pt x="238" y="345" on="1"/>
        <pt x="238" y="261" on="0"/>
        <pt x="247" y="202" on="0"/>
        <pt x="286" y="181" on="0"/>
        <pt x="339" y="181" on="1"/>
      </contour>
    </TTGlyph>
    <TTGlyph name="d" xMin="52" yMin="-8" xMax="513" yMax="743">
      <contour>
        <pt x="162" y="-8" on="0"/>
        <pt x="87" y="39" on="0"/>
        <pt x="52" y="152" on="0"/>
        <pt x="52" y="254" on="1"/>
        <pt x="52" y="356" on="0"/>
        <pt x="86" y="470" on="0"/>
        <pt x="160" y="518" on="0"/>
        <pt x="224" y="518" on="1"/>
        <pt x="278" y="518" on="0"/>
        <pt x="351" y="491" on="0"/>
        <pt x="373" y="454" on="1"/>
        <pt x="380" y="454" on="1"/>
        <pt x="380" y="743" on="1"/>
        <pt x="513" y="743" on="1"/>
        <pt x="513" y="0" on="1"/>
        <pt x="389" y="0" on="1"/>
        <pt x="385" y="63" on="1"/>
        <pt x="377" y="63" on="1"/>
        <pt x="356" y="23" on="0"/>
        <pt x="278" y="-8" on="0"/>
        <pt x="227" y="-8" on="1"/>
      </contour>
      <contour>
        <pt x="320" y="110" on="0"/>
        <pt x="358" y="129" on="0"/>
        <pt x="368" y="150" on="1"/>
        <pt x="375" y="167" on="0"/>
        <pt x="380" y="217" on="0"/>
        <pt x="380" y="255" on="1"/>
        <pt x="380" y="293" on="0"/>
        <pt x="375" y="341" on="0"/>
        <pt x="368" y="358" on="1"/>
        <pt x="359" y="380" on="0"/>
        <pt x="320" y="399" on="0"/>
        <pt x="284" y="399" on="1"/>
        <pt x="237" y="399" on="0"/>
        <pt x="198" y="381" on="0"/>
        <pt x="186" y="325" on="0"/>
        <pt x="186" y="255" on="1"/>
        <pt x="186" y="185" on="0"/>
        <pt x="198" y="128" on="0"/>
        <pt x="237" y="110" on="0"/>
        <pt x="284" y="110" on="1"/>
      </contour>
    </TTGlyph>
    <TTGlyph name="dagger" xMin="62" yMin="0" xMax="430" yMax="688">
      <contour>
        <pt x="196" y="430" on="1"/>
        <pt x="62" y="438" on="1"/>
        <pt x="62" y="522" on="1"/>
        <pt x="196" y="531" on="1"/>
        <pt x="205" y="688" on="1"/>
        <pt x="287" y="688" on="1"/>
        <pt x="295" y="531" on="1"/>
        <pt x="430" y="522" on="1"/>
        <pt x="430" y="438" on="1"/>
        <pt x="295" y="430" on="1"/>
        <pt x="287" y="0" on="1"/>
        <pt x="205" y="0" on="1"/>
      </contour>
    </TTGlyph>
    <TTGlyph name="daggerdbl" xMin="62" yMin="0" xMax="430" yMax="688">
      <contour>
        <pt x="196" y="156" on="1"/>
        <pt x="62" y="164" on="1"/>
        <pt x="62" y="248" on="1"/>
        <pt x="196" y="257" on="1"/>
        <pt x="196" y="430" on="1"/>
        <pt x="62" y="438" on="1"/>
        <pt x="62" y="522" on="1"/>
        <pt x="196" y="531" on="1"/>
        <pt x="205" y="688" on="1"/>
        <pt x="287" y="688" on="1"/>
        <pt x="295" y="531" on="1"/>
        <pt x="430" y="522" on="1"/>
        <pt x="430" y="438" on="1"/>
        <pt x="295" y="430" on="1"/>
        <pt x="295" y="257" on="1"/>
        <pt x="430" y="248" on="1"/>
        <pt x="430" y="164" on="1"/>
        <pt x="295" y="156" on="1"/>
        <pt x="287" y="0" on="1"/>
        <pt x="205" y="0" on="1"/>
      </contour>
    </TTGlyph>
    <TTGlyph name="dcaron" xMin="52" yMin="-8" xMax="681" yMax="743">
      <component glyphName="d" x="0" y="0" flags="0x0"/>
      <component glyphName="caron.loclCSY" x="494" y="0" flags="0x0"/>
    </TTGlyph>
    <TTGlyph name="dcroat" xMin="52" yMin="-8" xMax="576" yMax="743">
      <contour>
        <pt x="576" y="582" on="1"/>
        <pt x="513" y="582" on="1"/>
        <pt x="513" y="0" on="1"/>
        <pt x="389" y="0" on="1"/>
        <pt x="385" y="63" on="1"/>
        <pt x="377" y="63" on="1"/>
        <pt x="356" y="23" on="0"/>
        <pt x="278" y="-8" on="0"/>
        <pt x="227" y="-8" on="1"/>
        <pt x="162" y="-8" on="0"/>
        <pt x="87" y="39" on="0"/>
        <pt x="52" y="152" on="0"/>
        <pt x="52" y="254" on="1"/>
        <pt x="52" y="356" on="0"/>
        <pt x="86" y="470" on="0"/>
        <pt x="160" y="518" on="0"/>
        <pt x="224" y="518" on="1"/>
        <pt x="278" y="518" on="0"/>
        <pt x="351" y="491" on="0"/>
        <pt x="373" y="454" on="1"/>
        <pt x="380" y="454" on="1"/>
        <pt x="380" y="582" on="1"/>
        <pt x="257" y="582" on="1"/>
        <pt x="257" y="688" on="1"/>
        <pt x="380" y="688" on="1"/>
        <pt x="380" y="743" on="1"/>
        <pt x="513" y="743" on="1"/>
        <pt x="513" y="688" on="1"/>
        <pt x="576" y="688" on="1"/>
      </contour>
      <contour>
        <pt x="375" y="167" on="0"/>
        <pt x="380" y="217" on="0"/>
        <pt x="380" y="255" on="1"/>
        <pt x="380" y="293" on="0"/>
        <pt x="375" y="341" on="0"/>
        <pt x="368" y="358" on="1"/>
        <pt x="359" y="380" on="0"/>
        <pt x="320" y="399" on="0"/>
        <pt x="284" y="399" on="1"/>
        <pt x="237" y="399" on="0"/>
        <pt x="198" y="381" on="0"/>
        <pt x="186" y="325" on="0"/>
        <pt x="186" y="255" on="1"/>
        <pt x="186" y="185" on="0"/>
        <pt x="198" y="128" on="0"/>
        <pt x="237" y="110" on="0"/>
        <pt x="284" y="110" on="1"/>
        <pt x="320" y="110" on="0"/>
        <pt x="358" y="129" on="0"/>
        <pt x="368" y="150" on="1"/>
      </contour>
    </TTGlyph>
    <TTGlyph name="degree" xMin="55" yMin="397" xMax="338" yMax="696">
      <contour>
        <pt x="130" y="397" on="0"/>
        <pt x="71" y="424" on="0"/>
        <pt x="55" y="483" on="0"/>
        <pt x="55" y="546" on="1"/>
        <pt x="55" y="609" on="0"/>
        <pt x="71" y="668" on="0"/>
        <pt x="130" y="696" on="0"/>
        <pt x="196" y="696" on="1"/>
        <pt x="263" y="696" on="0"/>
        <pt x="322" y="668" on="0"/>
        <pt x="338" y="609" on="0"/>
        <pt x="338" y="546" on="1"/>
        <pt x="338" y="483" on="0"/>
        <pt x="322" y="424" on="0"/>
        <pt x="263" y="397" on="0"/>
        <pt x="196" y="397" on="1"/>
      </contour>
      <contour>
        <pt x="226" y="461" on="0"/>
        <pt x="250" y="473" on="0"/>
        <pt x="255" y="505" on="0"/>
        <pt x="255" y="546" on="1"/>
        <pt x="255" y="588" on="0"/>
        <pt x="250" y="619" on="0"/>
        <pt x="226" y="632" on="0"/>
        <pt x="196" y="632" on="1"/>
        <pt x="166" y="632" on="0"/>
        <pt x="142" y="619" on="0"/>
        <pt x="137" y="588" on="0"/>
        <pt x="137" y="546" on="1"/>
        <pt x="137" y="505" on="0"/>
        <pt x="142" y="473" on="0"/>
        <pt x="166" y="461" on="0"/>
        <pt x="196" y="461" on="1"/>
      </contour>
    </TTGlyph>
    <TTGlyph name="dialog" xMin="59" yMin="-212" xMax="746" yMax="688">
      <contour>
        <pt x="306" y="-127" on="1"/>
        <pt x="494" y="60" on="1"/>
        <pt x="686" y="60" on="1"/>
        <pt x="686" y="628" on="1"/>
        <pt x="119" y="628" on="1"/>
        <pt x="119" y="60" on="1"/>
        <pt x="306" y="60" on="1"/>
        <pt x="306" y="0" on="1"/>
        <pt x="59" y="0" on="1"/>
        <pt x="59" y="688" on="1"/>
        <pt x="746" y="688" on="1"/>
        <pt x="746" y="0" on="1"/>
        <pt x="519" y="0" on="1"/>
        <pt x="306" y="-212" on="1"/>
      </contour>
    </TTGlyph>
    <TTGlyph name="dieresis" xMin="19" yMin="627" xMax="332" yMax="730">
      <contour>
        <pt x="19" y="730" on="1"/>
        <pt x="133" y="730" on="1"/>
        <pt x="133" y="627" on="1"/>
        <pt x="19" y="627" on="1"/>
      </contour>
      <contour>
        <pt x="218" y="730" on="1"/>
        <pt x="332" y="730" on="1"/>
        <pt x="332" y="627" on="1"/>
        <pt x="218" y="627" on="1"/>
      </contour>
    </TTGlyph>
    <TTGlyph name="divide" xMin="70" yMin="18" xMax="470" yMax="487">
      <contour>
        <pt x="218" y="487" on="1"/>
        <pt x="320" y="487" on="1"/>
        <pt x="320" y="391" on="1"/>
        <pt x="218" y="391" on="1"/>
      </contour>
      <contour>
        <pt x="70" y="305" on="1"/>
        <pt x="470" y="305" on="1"/>
        <pt x="470" y="200" on="1"/>
        <pt x="70" y="200" on="1"/>
      </contour>
      <contour>
        <pt x="218" y="114" on="1"/>
        <pt x="320" y="114" on="1"/>
        <pt x="320" y="18" on="1"/>
        <pt x="218" y="18" on="1"/>
      </contour>
    </TTGlyph>
    <TTGlyph name="dollar" xMin="57" yMin="-8" xMax="479" yMax="696">
      <contour>
        <pt x="222" y="68" on="1"/>
        <pt x="139" y="71" on="0"/>
        <pt x="74" y="83" on="1"/>
        <pt x="74" y="189" on="1"/>
        <pt x="170" y="181" on="0"/>
        <pt x="247" y="181" on="1"/>
        <pt x="295" y="181" on="0"/>
        <pt x="337" y="190" on="0"/>
        <pt x="349" y="210" on="0"/>
        <pt x="349" y="232" on="1"/>
        <pt x="349" y="253" on="0"/>
        <pt x="342" y="270" on="0"/>
        <pt x="322" y="277" on="0"/>
        <pt x="296" y="280" on="1"/>
        <pt x="178" y="296" on="1"/>
        <pt x="106" y="306" on="0"/>
        <pt x="57" y="384" on="0"/>
        <pt x="57" y="458" on="1"/>
        <pt x="57" y="541" on="0"/>
        <pt x="141" y="611" on="0"/>
        <pt x="222" y="617" on="1"/>
        <pt x="222" y="696" on="1"/>
        <pt x="319" y="696" on="1"/>
        <pt x="319" y="618" on="1"/>
        <pt x="351" y="617" on="0"/>
        <pt x="426" y="607" on="0"/>
        <pt x="450" y="602" on="1"/>
        <pt x="450" y="496" on="1"/>
        <pt x="356" y="505" on="0"/>
        <pt x="291" y="505" on="1"/>
        <pt x="247" y="505" on="0"/>
        <pt x="206" y="499" on="0"/>
        <pt x="187" y="479" on="0"/>
        <pt x="187" y="457" on="1"/>
        <pt x="187" y="436" on="0"/>
        <pt x="193" y="419" on="0"/>
        <pt x="212" y="412" on="0"/>
        <pt x="237" y="409" on="1"/>
        <pt x="367" y="394" on="1"/>
        <pt x="408" y="388" on="0"/>
        <pt x="455" y="360" on="0"/>
        <pt x="479" y="295" on="0"/>
        <pt x="479" y="236" on="1"/>
        <pt x="479" y="143" on="0"/>
        <pt x="399" y="72" on="0"/>
        <pt x="319" y="68" on="1"/>
        <pt x="319" y="-8" on="1"/>
        <pt x="222" y="-8" on="1"/>
      </contour>
    </TTGlyph>
    <TTGlyph name="dollar.bold" xMin="57" yMin="-8" xMax="479" yMax="696">
      <contour>
        <pt x="479" y="176" on="0"/>
        <pt x="450" y="108" on="0"/>
        <pt x="381" y="74" on="0"/>
        <pt x="319" y="69" on="1"/>
        <pt x="319" y="-8" on="1"/>
        <pt x="222" y="-8" on="1"/>
        <pt x="222" y="67" on="1"/>
        <pt x="145" y="72" on="0"/>
        <pt x="74" y="83" on="1"/>
        <pt x="74" y="189" on="1"/>
        <pt x="151" y="182" on="0"/>
        <pt x="222" y="181" on="1"/>
        <pt x="222" y="290" on="1"/>
        <pt x="178" y="296" on="1"/>
        <pt x="106" y="306" on="0"/>
        <pt x="57" y="384" on="0"/>
        <pt x="57" y="458" on="1"/>
        <pt x="57" y="537" on="0"/>
        <pt x="137" y="608" on="0"/>
        <pt x="222" y="615" on="1"/>
        <pt x="222" y="696" on="1"/>
        <pt x="319" y="696" on="1"/>
        <pt x="319" y="617" on="1"/>
        <pt x="384" y="616" on="0"/>
        <pt x="450" y="602" on="1"/>
        <pt x="450" y="496" on="1"/>
        <pt x="396" y="501" on="0"/>
        <pt x="319" y="505" on="1"/>
        <pt x="319" y="400" on="1"/>
        <pt x="367" y="394" on="1"/>
        <pt x="408" y="388" on="0"/>
        <pt x="455" y="360" on="0"/>
        <pt x="479" y="295" on="0"/>
        <pt x="479" y="236" on="1"/>
      </contour>
      <contour>
        <pt x="187" y="431" on="0"/>
        <pt x="199" y="415" on="0"/>
        <pt x="222" y="411" on="1"/>
        <pt x="222" y="501" on="1"/>
        <pt x="203" y="497" on="0"/>
        <pt x="187" y="477" on="0"/>
        <pt x="187" y="457" on="1"/>
      </contour>
      <contour>
        <pt x="338" y="191" on="0"/>
        <pt x="349" y="211" on="0"/>
        <pt x="349" y="232" on="1"/>
        <pt x="349" y="257" on="0"/>
        <pt x="338" y="273" on="0"/>
        <pt x="319" y="277" on="1"/>
        <pt x="319" y="186" on="1"/>
      </contour>
    </TTGlyph>
    <TTGlyph name="dotaccent" xMin="20" yMin="627" xMax="133" yMax="730">
      <contour>
        <pt x="20" y="730" on="1"/>
        <pt x="133" y="730" on="1"/>
        <pt x="133" y="627" on="1"/>
        <pt x="20" y="627" on="1"/>
      </contour>
    </TTGlyph>
    <TTGlyph name="dotbelowcomb" xMin="-210" yMin="-197" xMax="-64" yMax="-62">
      <contour>
        <pt x="-210" y="-62" on="1"/>
        <pt x="-64" y="-62" on="1"/>
        <pt x="-64" y="-197" on="1"/>
        <pt x="-210" y="-197" on="1"/>
      </contour>
    </TTGlyph>
    <TTGlyph name="dotlessi" xMin="70" yMin="0" xMax="204" yMax="510">
      <contour>
        <pt x="70" y="510" on="1"/>
        <pt x="204" y="510" on="1"/>
        <pt x="204" y="0" on="1"/>
        <pt x="70" y="0" on="1"/>
      </contour>
    </TTGlyph>
    <TTGlyph name="e" xMin="52" yMin="-8" xMax="503" yMax="518">
      <contour>
        <pt x="503" y="215" on="1"/>
        <pt x="185" y="215" on="1"/>
        <pt x="185" y="161" on="0"/>
        <pt x="201" y="117" on="0"/>
        <pt x="257" y="102" on="0"/>
        <pt x="328" y="102" on="1"/>
        <pt x="387" y="102" on="0"/>
        <pt x="483" y="110" on="1"/>
        <pt x="483" y="8" on="1"/>
        <pt x="451" y="1" on="0"/>
        <pt x="347" y="-8" on="0"/>
        <pt x="297" y="-8" on="1"/>
        <pt x="186" y="-8" on="0"/>
        <pt x="82" y="42" on="0"/>
        <pt x="52" y="148" on="0"/>
        <pt x="52" y="254" on="1"/>
        <pt x="52" y="357" on="0"/>
        <pt x="83" y="464" on="0"/>
        <pt x="182" y="518" on="0"/>
        <pt x="286" y="518" on="1"/>
        <pt x="388" y="518" on="0"/>
        <pt x="480" y="465" on="0"/>
        <pt x="503" y="362" on="0"/>
        <pt x="503" y="254" on="1"/>
      </contour>
      <contour>
        <pt x="239" y="412" on="0"/>
        <pt x="199" y="395" on="0"/>
        <pt x="186" y="349" on="0"/>
        <pt x="185" y="297" on="1"/>
        <pt x="377" y="297" on="1"/>
        <pt x="377" y="349" on="0"/>
        <pt x="361" y="397" on="0"/>
        <pt x="323" y="412" on="0"/>
        <pt x="284" y="412" on="1"/>
      </contour>
    </TTGlyph>
    <TTGlyph name="eacute" xMin="52" yMin="-8" xMax="503" yMax="743">
      <component glyphName="e" x="0" y="0" flags="0x0"/>
      <component glyphName="acute" x="208" y="0" flags="0x0"/>
    </TTGlyph>
    <TTGlyph name="ebreve" xMin="52" yMin="-8" xMax="503" yMax="743">
      <component glyphName="e" x="0" y="0" flags="0x0"/>
      <component glyphName="uni0306" x="445" y="0" flags="0x0"/>
    </TTGlyph>
    <TTGlyph name="ecaron" xMin="52" yMin="-8" xMax="503" yMax="743">
      <component glyphName="e" x="0" y="0" flags="0x0"/>
      <component glyphName="uni030C" x="459" y="0" flags="0x0"/>
    </TTGlyph>
    <TTGlyph name="ecircumflex" xMin="52" yMin="-8" xMax="503" yMax="743">
      <component glyphName="e" x="0" y="0" flags="0x0"/>
      <component glyphName="circumflex" x="103" y="0" flags="0x0"/>
    </TTGlyph>
    <TTGlyph name="edieresis" xMin="52" yMin="-8" xMax="503" yMax="730">
      <component glyphName="e" x="0" y="0" flags="0x0"/>
      <component glyphName="dieresis" x="110" y="0" flags="0x0"/>
    </TTGlyph>
    <TTGlyph name="edotaccent" xMin="52" yMin="-8" xMax="503" yMax="730">
      <component glyphName="e" x="0" y="0" flags="0x0"/>
      <component glyphName="uni0307" x="354" y="0" flags="0x0"/>
    </TTGlyph>
    <TTGlyph name="egrave" xMin="52" yMin="-8" xMax="503" yMax="743">
      <component glyphName="e" x="0" y="0" flags="0x0"/>
      <component glyphName="grave" x="96" y="0" flags="0x0"/>
    </TTGlyph>
    <TTGlyph name="eight" xMin="61" yMin="-8" xMax="619" yMax="696">
      <contour>
        <pt x="228" y="-8" on="0"/>
        <pt x="106" y="37" on="0"/>
        <pt x="61" y="119" on="0"/>
        <pt x="61" y="184" on="1"/>
        <pt x="61" y="240" on="0"/>
        <pt x="89" y="305" on="0"/>
        <pt x="142" y="339" on="0"/>
        <pt x="186" y="349" on="1"/>
        <pt x="186" y="353" on="1"/>
        <pt x="124" y="366" on="0"/>
        <pt x="67" y="441" on="0"/>
        <pt x="67" y="515" on="1"/>
        <pt x="67" y="576" on="0"/>
        <pt x="117" y="655" on="0"/>
        <pt x="236" y="696" on="0"/>
        <pt x="340" y="696" on="1"/>
        <pt x="444" y="696" on="0"/>
        <pt x="563" y="655" on="0"/>
        <pt x="613" y="576" on="0"/>
        <pt x="613" y="515" on="1"/>
        <pt x="613" y="442" on="0"/>
        <pt x="555" y="366" on="0"/>
        <pt x="494" y="353" on="1"/>
        <pt x="494" y="349" on="1"/>
        <pt x="538" y="339" on="0"/>
        <pt x="591" y="305" on="0"/>
        <pt x="619" y="240" on="0"/>
        <pt x="619" y="184" on="1"/>
        <pt x="619" y="120" on="0"/>
        <pt x="573" y="37" on="0"/>
        <pt x="451" y="-8" on="0"/>
        <pt x="340" y="-8" on="1"/>
      </contour>
      <contour>
        <pt x="396" y="404" on="0"/>
        <pt x="449" y="416" on="0"/>
        <pt x="469" y="452" on="0"/>
        <pt x="469" y="490" on="1"/>
        <pt x="469" y="529" on="0"/>
        <pt x="449" y="565" on="0"/>
        <pt x="397" y="578" on="0"/>
        <pt x="340" y="578" on="1"/>
        <pt x="283" y="578" on="0"/>
        <pt x="231" y="565" on="0"/>
        <pt x="212" y="530" on="0"/>
        <pt x="212" y="490" on="1"/>
        <pt x="212" y="452" on="0"/>
        <pt x="232" y="416" on="0"/>
        <pt x="284" y="404" on="0"/>
        <pt x="340" y="404" on="1"/>
      </contour>
      <contour>
        <pt x="397" y="110" on="0"/>
        <pt x="452" y="121" on="0"/>
        <pt x="475" y="158" on="0"/>
        <pt x="475" y="199" on="1"/>
        <pt x="475" y="241" on="0"/>
        <pt x="453" y="279" on="0"/>
        <pt x="398" y="291" on="0"/>
        <pt x="340" y="291" on="1"/>
        <pt x="281" y="291" on="0"/>
        <pt x="227" y="279" on="0"/>
        <pt x="206" y="241" on="0"/>
        <pt x="206" y="199" on="1"/>
        <pt x="206" y="158" on="0"/>
        <pt x="229" y="121" on="0"/>
        <pt x="282" y="110" on="0"/>
        <pt x="340" y="110" on="1"/>
      </contour>
    </TTGlyph>
    <TTGlyph name="eight.dnom" xMin="37" yMin="-4" xMax="354" yMax="384">
      <contour>
        <pt x="132" y="-4" on="0"/>
        <pt x="63" y="20" on="0"/>
        <pt x="37" y="65" on="0"/>
        <pt x="37" y="101" on="1"/>
        <pt x="37" y="146" on="0"/>
        <pt x="71" y="184" on="0"/>
        <pt x="108" y="192" on="1"/>
        <pt x="108" y="194" on="1"/>
        <pt x="73" y="202" on="0"/>
        <pt x="40" y="244" on="0"/>
        <pt x="40" y="284" on="1"/>
        <pt x="40" y="337" on="0"/>
        <pt x="108" y="384" on="0"/>
        <pt x="195" y="384" on="1"/>
        <pt x="282" y="384" on="0"/>
        <pt x="350" y="337" on="0"/>
        <pt x="350" y="284" on="1"/>
        <pt x="350" y="243" on="0"/>
        <pt x="318" y="202" on="0"/>
        <pt x="284" y="194" on="1"/>
        <pt x="284" y="192" on="1"/>
        <pt x="321" y="184" on="0"/>
        <pt x="354" y="146" on="0"/>
        <pt x="354" y="101" on="1"/>
        <pt x="354" y="64" on="0"/>
        <pt x="328" y="19" on="0"/>
        <pt x="259" y="-4" on="0"/>
        <pt x="195" y="-4" on="1"/>
      </contour>
      <contour>
        <pt x="226" y="222" on="0"/>
        <pt x="253" y="229" on="0"/>
        <pt x="264" y="247" on="0"/>
        <pt x="264" y="268" on="1"/>
        <pt x="264" y="290" on="0"/>
        <pt x="254" y="310" on="0"/>
        <pt x="226" y="317" on="0"/>
        <pt x="196" y="317" on="1"/>
        <pt x="166" y="317" on="0"/>
        <pt x="138" y="310" on="0"/>
        <pt x="128" y="290" on="0"/>
        <pt x="128" y="268" on="1"/>
        <pt x="128" y="247" on="0"/>
        <pt x="138" y="228" on="0"/>
        <pt x="166" y="222" on="0"/>
        <pt x="196" y="222" on="1"/>
      </contour>
      <contour>
        <pt x="226" y="62" on="0"/>
        <pt x="255" y="69" on="0"/>
        <pt x="267" y="89" on="0"/>
        <pt x="267" y="111" on="1"/>
        <pt x="267" y="134" on="0"/>
        <pt x="256" y="155" on="0"/>
        <pt x="227" y="162" on="0"/>
        <pt x="196" y="162" on="1"/>
        <pt x="165" y="162" on="0"/>
        <pt x="136" y="155" on="0"/>
        <pt x="125" y="134" on="0"/>
        <pt x="125" y="111" on="1"/>
        <pt x="125" y="89" on="0"/>
        <pt x="137" y="69" on="0"/>
        <pt x="166" y="62" on="0"/>
        <pt x="196" y="62" on="1"/>
      </contour>
    </TTGlyph>
    <TTGlyph name="eight.numr" xMin="37" yMin="304" xMax="354" yMax="692">
      <component glyphName="eight.dnom" x="0" y="308" flags="0x4"/>
    </TTGlyph>
    <TTGlyph name="eight.tnum" xMin="51" yMin="-8" xMax="608" yMax="696">
      <contour>
        <pt x="217" y="-8" on="0"/>
        <pt x="96" y="37" on="0"/>
        <pt x="51" y="119" on="0"/>
        <pt x="51" y="184" on="1"/>
        <pt x="51" y="240" on="0"/>
        <pt x="79" y="305" on="0"/>
        <pt x="131" y="339" on="0"/>
        <pt x="175" y="349" on="1"/>
        <pt x="175" y="353" on="1"/>
        <pt x="114" y="366" on="0"/>
        <pt x="57" y="441" on="0"/>
        <pt x="57" y="515" on="1"/>
        <pt x="57" y="576" on="0"/>
        <pt x="106" y="655" on="0"/>
        <pt x="225" y="696" on="0"/>
        <pt x="329" y="696" on="1"/>
        <pt x="433" y="696" on="0"/>
        <pt x="552" y="655" on="0"/>
        <pt x="602" y="576" on="0"/>
        <pt x="602" y="515" on="1"/>
        <pt x="602" y="441" on="0"/>
        <pt x="545" y="366" on="0"/>
        <pt x="483" y="353" on="1"/>
        <pt x="483" y="349" on="1"/>
        <pt x="527" y="339" on="0"/>
        <pt x="580" y="305" on="0"/>
        <pt x="608" y="240" on="0"/>
        <pt x="608" y="184" on="1"/>
        <pt x="608" y="120" on="0"/>
        <pt x="562" y="37" on="0"/>
        <pt x="440" y="-8" on="0"/>
        <pt x="329" y="-8" on="1"/>
      </contour>
      <contour>
        <pt x="385" y="404" on="0"/>
        <pt x="438" y="416" on="0"/>
        <pt x="458" y="452" on="0"/>
        <pt x="458" y="490" on="1"/>
        <pt x="458" y="529" on="0"/>
        <pt x="438" y="565" on="0"/>
        <pt x="386" y="578" on="0"/>
        <pt x="329" y="578" on="1"/>
        <pt x="272" y="578" on="0"/>
        <pt x="220" y="565" on="0"/>
        <pt x="201" y="530" on="0"/>
        <pt x="201" y="490" on="1"/>
        <pt x="201" y="452" on="0"/>
        <pt x="221" y="416" on="0"/>
        <pt x="273" y="404" on="0"/>
        <pt x="329" y="404" on="1"/>
      </contour>
      <contour>
        <pt x="386" y="110" on="0"/>
        <pt x="441" y="121" on="0"/>
        <pt x="464" y="158" on="0"/>
        <pt x="464" y="199" on="1"/>
        <pt x="464" y="241" on="0"/>
        <pt x="442" y="279" on="0"/>
        <pt x="387" y="291" on="0"/>
        <pt x="329" y="291" on="1"/>
        <pt x="270" y="291" on="0"/>
        <pt x="216" y="279" on="0"/>
        <pt x="195" y="241" on="0"/>
        <pt x="195" y="199" on="1"/>
        <pt x="195" y="158" on="0"/>
        <pt x="218" y="121" on="0"/>
        <pt x="272" y="110" on="0"/>
        <pt x="329" y="110" on="1"/>
      </contour>
    </TTGlyph>
    <TTGlyph name="ellipsis" xMin="64" yMin="0" xMax="758" yMax="135">
      <contour>
        <pt x="64" y="135" on="1"/>
        <pt x="210" y="135" on="1"/>
        <pt x="210" y="0" on="1"/>
        <pt x="64" y="0" on="1"/>
      </contour>
      <contour>
        <pt x="337" y="135" on="1"/>
        <pt x="484" y="135" on="1"/>
        <pt x="484" y="0" on="1"/>
        <pt x="337" y="0" on="1"/>
      </contour>
      <contour>
        <pt x="612" y="135" on="1"/>
        <pt x="758" y="135" on="1"/>
        <pt x="758" y="0" on="1"/>
        <pt x="612" y="0" on="1"/>
      </contour>
    </TTGlyph>
    <TTGlyph name="emacron" xMin="52" yMin="-8" xMax="503" yMax="742">
      <component glyphName="e" x="0" y="0" flags="0x0"/>
      <component glyphName="uni0304" x="463" y="0" flags="0x0"/>
    </TTGlyph>
    <TTGlyph name="emdash" xMin="48" yMin="251" xMax="827" yMax="356">
      <contour>
        <pt x="48" y="356" on="1"/>
        <pt x="827" y="356" on="1"/>
        <pt x="827" y="251" on="1"/>
        <pt x="48" y="251" on="1"/>
      </contour>
    </TTGlyph>
    <TTGlyph name="endash" xMin="48" yMin="251" xMax="427" yMax="356">
      <contour>
        <pt x="48" y="356" on="1"/>
        <pt x="427" y="356" on="1"/>
        <pt x="427" y="251" on="1"/>
        <pt x="48" y="251" on="1"/>
      </contour>
    </TTGlyph>
    <TTGlyph name="eng" xMin="70" yMin="-200" xMax="521" yMax="518">
      <contour>
        <pt x="428" y="518" on="0"/>
        <pt x="498" y="474" on="0"/>
        <pt x="521" y="390" on="0"/>
        <pt x="521" y="319" on="1"/>
        <pt x="521" y="-16" on="1"/>
        <pt x="521" y="-101" on="0"/>
        <pt x="485" y="-177" on="0"/>
        <pt x="398" y="-200" on="0"/>
        <pt x="301" y="-200" on="1"/>
        <pt x="301" y="-98" on="1"/>
        <pt x="342" y="-98" on="0"/>
        <pt x="378" y="-88" on="0"/>
        <pt x="388" y="-68" on="0"/>
        <pt x="388" y="-45" on="1"/>
        <pt x="388" y="270" on="1"/>
        <pt x="388" y="334" on="0"/>
        <pt x="377" y="384" on="0"/>
        <pt x="343" y="399" on="0"/>
        <pt x="300" y="399" on="1"/>
        <pt x="257" y="399" on="0"/>
        <pt x="216" y="373" on="0"/>
        <pt x="203" y="317" on="0"/>
        <pt x="203" y="264" on="1"/>
        <pt x="203" y="0" on="1"/>
        <pt x="70" y="0" on="1"/>
        <pt x="70" y="510" on="1"/>
        <pt x="195" y="510" on="1"/>
        <pt x="199" y="447" on="1"/>
        <pt x="207" y="447" on="1"/>
        <pt x="226" y="484" on="0"/>
        <pt x="302" y="518" on="0"/>
        <pt x="361" y="518" on="1"/>
      </contour>
    </TTGlyph>
    <TTGlyph name="eogonek" xMin="52" yMin="-196" xMax="503" yMax="518">
      <contour>
        <pt x="503" y="215" on="1"/>
        <pt x="185" y="215" on="1"/>
        <pt x="185" y="161" on="0"/>
        <pt x="201" y="117" on="0"/>
        <pt x="257" y="102" on="0"/>
        <pt x="328" y="102" on="1"/>
        <pt x="387" y="102" on="0"/>
        <pt x="483" y="110" on="1"/>
        <pt x="483" y="8" on="1"/>
        <pt x="452" y="-9" on="0"/>
        <pt x="398" y="-62" on="0"/>
        <pt x="398" y="-87" on="1"/>
        <pt x="398" y="-100" on="0"/>
        <pt x="419" y="-119" on="0"/>
        <pt x="443" y="-119" on="1"/>
        <pt x="462" y="-118" on="1"/>
        <pt x="462" y="-193" on="1"/>
        <pt x="460" y="-193" on="0"/>
        <pt x="423" y="-196" on="0"/>
        <pt x="404" y="-196" on="1"/>
        <pt x="287" y="-196" on="0"/>
        <pt x="287" y="-117" on="1"/>
        <pt x="287" y="-61" on="0"/>
        <pt x="352" y="-7" on="1"/>
        <pt x="297" y="-8" on="1"/>
        <pt x="186" y="-8" on="0"/>
        <pt x="82" y="42" on="0"/>
        <pt x="52" y="148" on="0"/>
        <pt x="52" y="254" on="1"/>
        <pt x="52" y="357" on="0"/>
        <pt x="83" y="464" on="0"/>
        <pt x="182" y="518" on="0"/>
        <pt x="286" y="518" on="1"/>
        <pt x="388" y="518" on="0"/>
        <pt x="480" y="465" on="0"/>
        <pt x="503" y="362" on="0"/>
        <pt x="503" y="254" on="1"/>
      </contour>
      <contour>
        <pt x="239" y="412" on="0"/>
        <pt x="199" y="395" on="0"/>
        <pt x="186" y="349" on="0"/>
        <pt x="185" y="297" on="1"/>
        <pt x="377" y="297" on="1"/>
        <pt x="377" y="349" on="0"/>
        <pt x="361" y="397" on="0"/>
        <pt x="323" y="412" on="0"/>
        <pt x="284" y="412" on="1"/>
      </contour>
    </TTGlyph>
    <TTGlyph name="equal" xMin="70" yMin="98" xMax="470" yMax="407">
      <contour>
        <pt x="70" y="407" on="1"/>
        <pt x="470" y="407" on="1"/>
        <pt x="470" y="302" on="1"/>
        <pt x="70" y="302" on="1"/>
      </contour>
      <contour>
        <pt x="70" y="203" on="1"/>
        <pt x="470" y="203" on="1"/>
        <pt x="470" y="98" on="1"/>
        <pt x="70" y="98" on="1"/>
      </contour>
    </TTGlyph>
    <TTGlyph name="estimated" xMin="62" yMin="-8" xMax="644" yMax="696">
      <contour>
        <pt x="492" y="696" on="0"/>
        <pt x="612" y="637" on="0"/>
        <pt x="644" y="501" on="0"/>
        <pt x="644" y="344" on="1"/>
        <pt x="644" y="323" on="1"/>
        <pt x="204" y="323" on="1"/>
        <pt x="204" y="168" on="0"/>
        <pt x="222" y="55" on="0"/>
        <pt x="283" y="26" on="0"/>
        <pt x="369" y="26" on="1"/>
        <pt x="466" y="26" on="0"/>
        <pt x="553" y="48" on="0"/>
        <pt x="590" y="118" on="0"/>
        <pt x="596" y="200" on="1"/>
        <pt x="632" y="200" on="1"/>
        <pt x="626" y="108" on="0"/>
        <pt x="581" y="22" on="0"/>
        <pt x="470" y="-8" on="0"/>
        <pt x="352" y="-8" on="1"/>
        <pt x="212" y="-8" on="0"/>
        <pt x="93" y="51" on="0"/>
        <pt x="62" y="186" on="0"/>
        <pt x="62" y="344" on="1"/>
        <pt x="62" y="502" on="0"/>
        <pt x="93" y="637" on="0"/>
        <pt x="212" y="696" on="0"/>
        <pt x="352" y="696" on="1"/>
      </contour>
      <contour>
        <pt x="275" y="662" on="0"/>
        <pt x="220" y="632" on="0"/>
        <pt x="204" y="517" on="0"/>
        <pt x="204" y="357" on="1"/>
        <pt x="501" y="357" on="1"/>
        <pt x="501" y="517" on="0"/>
        <pt x="485" y="632" on="0"/>
        <pt x="430" y="662" on="0"/>
        <pt x="352" y="662" on="1"/>
      </contour>
    </TTGlyph>
    <TTGlyph name="eth" xMin="52" yMin="-8" xMax="520" yMax="743">
      <contour>
        <pt x="177" y="-8" on="0"/>
        <pt x="79" y="39" on="0"/>
        <pt x="52" y="142" on="0"/>
        <pt x="52" y="254" on="1"/>
        <pt x="52" y="356" on="0"/>
        <pt x="76" y="463" on="0"/>
        <pt x="159" y="517" on="0"/>
        <pt x="246" y="517" on="1"/>
        <pt x="305" y="517" on="0"/>
        <pt x="353" y="501" on="1"/>
        <pt x="356" y="505" on="1"/>
        <pt x="336" y="555" on="0"/>
        <pt x="311" y="595" on="1"/>
        <pt x="193" y="577" on="1"/>
        <pt x="193" y="660" on="1"/>
        <pt x="260" y="670" on="1"/>
        <pt x="226" y="707" on="0"/>
        <pt x="189" y="739" on="1"/>
        <pt x="189" y="743" on="1"/>
        <pt x="332" y="743" on="1"/>
        <pt x="365" y="713" on="0"/>
        <pt x="386" y="690" on="1"/>
        <pt x="503" y="708" on="1"/>
        <pt x="503" y="625" on="1"/>
        <pt x="439" y="615" on="1"/>
        <pt x="481" y="546" on="0"/>
        <pt x="503" y="447" on="1"/>
        <pt x="520" y="365" on="0"/>
        <pt x="520" y="264" on="1"/>
        <pt x="520" y="145" on="0"/>
        <pt x="494" y="39" on="0"/>
        <pt x="397" y="-8" on="0"/>
        <pt x="286" y="-8" on="1"/>
      </contour>
      <contour>
        <pt x="339" y="102" on="0"/>
        <pt x="378" y="121" on="0"/>
        <pt x="387" y="176" on="0"/>
        <pt x="387" y="254" on="1"/>
        <pt x="387" y="328" on="0"/>
        <pt x="378" y="385" on="0"/>
        <pt x="337" y="408" on="0"/>
        <pt x="286" y="408" on="1"/>
        <pt x="234" y="408" on="0"/>
        <pt x="195" y="388" on="0"/>
        <pt x="186" y="332" on="0"/>
        <pt x="186" y="254" on="1"/>
        <pt x="186" y="176" on="0"/>
        <pt x="195" y="121" on="0"/>
        <pt x="234" y="102" on="0"/>
        <pt x="286" y="102" on="1"/>
      </contour>
    </TTGlyph>
    <TTGlyph name="exclam" xMin="80" yMin="0" xMax="236" yMax="688">
      <contour>
        <pt x="103" y="275" on="1"/>
        <pt x="100" y="311" on="0"/>
        <pt x="80" y="586" on="0"/>
        <pt x="80" y="633" on="1"/>
        <pt x="80" y="688" on="1"/>
        <pt x="236" y="688" on="1"/>
        <pt x="236" y="633" on="1"/>
        <pt x="236" y="573" on="0"/>
        <pt x="213" y="283" on="1"/>
        <pt x="211" y="259" on="0"/>
        <pt x="209" y="231" on="0"/>
        <pt x="208" y="225" on="1"/>
        <pt x="107" y="225" on="1"/>
      </contour>
      <contour>
        <pt x="85" y="135" on="1"/>
        <pt x="231" y="135" on="1"/>
        <pt x="231" y="0" on="1"/>
        <pt x="85" y="0" on="1"/>
      </contour>
    </TTGlyph>
    <TTGlyph name="exclam.case" xMin="80" yMin="0" xMax="236" yMax="688">
      <component glyphName="exclam" x="0" y="0" flags="0x0"/>
    </TTGlyph>
    <TTGlyph name="exclam.ss02" xMin="45" yMin="-8" xMax="749" yMax="696">
      <contour>
        <pt x="302" y="-8" on="0"/>
        <pt x="140" y="87" on="0"/>
        <pt x="45" y="249" on="0"/>
        <pt x="45" y="344" on="1"/>
        <pt x="45" y="439" on="0"/>
        <pt x="140" y="601" on="0"/>
        <pt x="302" y="696" on="0"/>
        <pt x="397" y="696" on="1"/>
        <pt x="492" y="696" on="0"/>
        <pt x="654" y="601" on="0"/>
        <pt x="749" y="439" on="0"/>
        <pt x="749" y="344" on="1"/>
        <pt x="749" y="249" on="0"/>
        <pt x="654" y="87" on="0"/>
        <pt x="492" y="-8" on="0"/>
        <pt x="397" y="-8" on="1"/>
      </contour>
      <contour>
        <pt x="480" y="37" on="0"/>
        <pt x="621" y="120" on="0"/>
        <pt x="704" y="261" on="0"/>
        <pt x="704" y="344" on="1"/>
        <pt x="704" y="427" on="0"/>
        <pt x="621" y="568" on="0"/>
        <pt x="480" y="651" on="0"/>
        <pt x="397" y="651" on="1"/>
        <pt x="314" y="651" on="0"/>
        <pt x="173" y="568" on="0"/>
        <pt x="90" y="427" on="0"/>
        <pt x="90" y="344" on="1"/>
        <pt x="90" y="261" on="0"/>
        <pt x="173" y="120" on="0"/>
        <pt x="314" y="37" on="0"/>
        <pt x="397" y="37" on="1"/>
      </contour>
      <contour>
        <pt x="377" y="271" on="0"/>
        <pt x="363" y="385" on="0"/>
        <pt x="363" y="480" on="1"/>
        <pt x="363" y="579" on="1"/>
        <pt x="431" y="579" on="1"/>
        <pt x="431" y="480" on="1"/>
        <pt x="431" y="385" on="0"/>
        <pt x="417" y="271" on="0"/>
        <pt x="417" y="268" on="1"/>
        <pt x="377" y="268" on="1"/>
      </contour>
      <contour>
        <pt x="363" y="191" on="1"/>
        <pt x="431" y="191" on="1"/>
        <pt x="431" y="109" on="1"/>
        <pt x="363" y="109" on="1"/>
      </contour>
    </TTGlyph>
    <TTGlyph name="exclamdbl" xMin="80" yMin="0" xMax="475" yMax="688">
      <component glyphName="exclam" x="239" y="0" flags="0x0"/>
      <component glyphName="exclam" x="0" y="0" flags="0x0"/>
    </TTGlyph>
    <TTGlyph name="exclamdown" xMin="67" yMin="-178" xMax="223" yMax="510">
      <contour>
        <pt x="72" y="510" on="1"/>
        <pt x="218" y="510" on="1"/>
        <pt x="218" y="375" on="1"/>
        <pt x="72" y="375" on="1"/>
      </contour>
      <contour>
        <pt x="67" y="-123" on="1"/>
        <pt x="67" y="-75" on="0"/>
        <pt x="89" y="214" on="0"/>
        <pt x="95" y="285" on="1"/>
        <pt x="195" y="285" on="1"/>
        <pt x="201" y="214" on="0"/>
        <pt x="223" y="-75" on="0"/>
        <pt x="223" y="-123" on="1"/>
        <pt x="223" y="-178" on="1"/>
        <pt x="67" y="-178" on="1"/>
      </contour>
    </TTGlyph>
    <TTGlyph name="exclamdown.case" xMin="67" yMin="0" xMax="223" yMax="688">
      <component glyphName="exclamdown" x="0" y="178" flags="0x4"/>
    </TTGlyph>
    <TTGlyph name="f" xMin="22" yMin="0" xMax="379" yMax="742">
      <contour>
        <pt x="120" y="400" on="1"/>
        <pt x="22" y="400" on="1"/>
        <pt x="22" y="510" on="1"/>
        <pt x="120" y="510" on="1"/>
        <pt x="120" y="554" on="1"/>
        <pt x="120" y="645" on="0"/>
        <pt x="162" y="722" on="0"/>
        <pt x="262" y="742" on="0"/>
        <pt x="379" y="742" on="1"/>
        <pt x="379" y="642" on="1"/>
        <pt x="319" y="642" on="0"/>
        <pt x="270" y="634" on="0"/>
        <pt x="253" y="608" on="0"/>
        <pt x="253" y="576" on="1"/>
        <pt x="253" y="510" on="1"/>
        <pt x="379" y="510" on="1"/>
        <pt x="379" y="400" on="1"/>
        <pt x="253" y="400" on="1"/>
        <pt x="253" y="0" on="1"/>
        <pt x="120" y="0" on="1"/>
      </contour>
    </TTGlyph>
    <TTGlyph name="f_f" xMin="22" yMin="0" xMax="783" yMax="742">
      <component glyphName="f" x="0" y="0" flags="0x0"/>
      <component glyphName="f" x="404" y="0" flags="0x0"/>
    </TTGlyph>
    <TTGlyph name="fi" xMin="22" yMin="0" xMax="610" yMax="743">
      <component glyphName="f" x="0" y="0" flags="0x0"/>
      <component glyphName="i" x="404" y="0" flags="0x0"/>
    </TTGlyph>
    <TTGlyph name="five" xMin="73" yMin="-8" xMax="563" yMax="688">
      <contour>
        <pt x="196" y="112" on="0"/>
        <pt x="275" y="112" on="1"/>
        <pt x="336" y="112" on="0"/>
        <pt x="396" y="128" on="0"/>
        <pt x="419" y="169" on="0"/>
        <pt x="419" y="210" on="1"/>
        <pt x="419" y="254" on="0"/>
        <pt x="394" y="295" on="0"/>
        <pt x="334" y="307" on="0"/>
        <pt x="269" y="307" on="1"/>
        <pt x="231" y="307" on="0"/>
        <pt x="125" y="300" on="0"/>
        <pt x="81" y="295" on="1"/>
        <pt x="81" y="688" on="1"/>
        <pt x="512" y="688" on="1"/>
        <pt x="512" y="566" on="1"/>
        <pt x="208" y="566" on="1"/>
        <pt x="208" y="419" on="1"/>
        <pt x="271" y="426" on="0"/>
        <pt x="342" y="426" on="1"/>
        <pt x="430" y="426" on="0"/>
        <pt x="526" y="380" on="0"/>
        <pt x="563" y="293" on="0"/>
        <pt x="563" y="222" on="1"/>
        <pt x="563" y="137" on="0"/>
        <pt x="518" y="39" on="0"/>
        <pt x="400" y="-8" on="0"/>
        <pt x="290" y="-8" on="1"/>
        <pt x="240" y="-8" on="0"/>
        <pt x="117" y="3" on="0"/>
        <pt x="73" y="12" on="1"/>
        <pt x="73" y="124" on="1"/>
      </contour>
    </TTGlyph>
    <TTGlyph name="five.dnom" xMin="46" yMin="-4" xMax="325" yMax="379">
      <contour>
        <pt x="118" y="65" on="0"/>
        <pt x="157" y="65" on="1"/>
        <pt x="192" y="65" on="0"/>
        <pt x="225" y="73" on="0"/>
        <pt x="237" y="94" on="0"/>
        <pt x="237" y="117" on="1"/>
        <pt x="237" y="141" on="0"/>
        <pt x="224" y="162" on="0"/>
        <pt x="190" y="169" on="0"/>
        <pt x="153" y="169" on="1"/>
        <pt x="118" y="169" on="0"/>
        <pt x="50" y="163" on="1"/>
        <pt x="50" y="379" on="1"/>
        <pt x="297" y="379" on="1"/>
        <pt x="297" y="309" on="1"/>
        <pt x="126" y="309" on="1"/>
        <pt x="126" y="232" on="1"/>
        <pt x="154" y="236" on="0"/>
        <pt x="202" y="236" on="1"/>
        <pt x="274" y="236" on="0"/>
        <pt x="325" y="182" on="0"/>
        <pt x="325" y="123" on="1"/>
        <pt x="325" y="77" on="0"/>
        <pt x="299" y="22" on="0"/>
        <pt x="232" y="-4" on="0"/>
        <pt x="169" y="-4" on="1"/>
        <pt x="106" y="-4" on="0"/>
        <pt x="46" y="6" on="1"/>
        <pt x="46" y="71" on="1"/>
      </contour>
    </TTGlyph>
    <TTGlyph name="five.numr" xMin="46" yMin="304" xMax="325" yMax="687">
      <contour>
        <pt x="118" y="373" on="0"/>
        <pt x="157" y="373" on="1"/>
        <pt x="192" y="373" on="0"/>
        <pt x="225" y="381" on="0"/>
        <pt x="237" y="402" on="0"/>
        <pt x="237" y="425" on="1"/>
        <pt x="237" y="449" on="0"/>
        <pt x="224" y="470" on="0"/>
        <pt x="190" y="477" on="0"/>
        <pt x="153" y="477" on="1"/>
        <pt x="118" y="477" on="0"/>
        <pt x="50" y="471" on="1"/>
        <pt x="50" y="687" on="1"/>
        <pt x="297" y="687" on="1"/>
        <pt x="297" y="617" on="1"/>
        <pt x="126" y="617" on="1"/>
        <pt x="126" y="540" on="1"/>
        <pt x="154" y="544" on="0"/>
        <pt x="202" y="544" on="1"/>
        <pt x="274" y="544" on="0"/>
        <pt x="325" y="490" on="0"/>
        <pt x="325" y="431" on="1"/>
        <pt x="325" y="385" on="0"/>
        <pt x="299" y="330" on="0"/>
        <pt x="232" y="304" on="0"/>
        <pt x="169" y="304" on="1"/>
        <pt x="106" y="304" on="0"/>
        <pt x="46" y="314" on="1"/>
        <pt x="46" y="379" on="1"/>
      </contour>
    </TTGlyph>
    <TTGlyph name="five.tnum" xMin="96" yMin="-8" xMax="586" yMax="688">
      <contour>
        <pt x="218" y="112" on="0"/>
        <pt x="298" y="112" on="1"/>
        <pt x="359" y="112" on="0"/>
        <pt x="419" y="128" on="0"/>
        <pt x="442" y="169" on="0"/>
        <pt x="442" y="210" on="1"/>
        <pt x="442" y="254" on="0"/>
        <pt x="417" y="295" on="0"/>
        <pt x="356" y="307" on="0"/>
        <pt x="291" y="307" on="1"/>
        <pt x="205" y="307" on="0"/>
        <pt x="104" y="295" on="1"/>
        <pt x="104" y="688" on="1"/>
        <pt x="535" y="688" on="1"/>
        <pt x="535" y="566" on="1"/>
        <pt x="231" y="566" on="1"/>
        <pt x="231" y="419" on="1"/>
        <pt x="292" y="426" on="0"/>
        <pt x="365" y="426" on="1"/>
        <pt x="453" y="426" on="0"/>
        <pt x="549" y="380" on="0"/>
        <pt x="586" y="293" on="0"/>
        <pt x="586" y="222" on="1"/>
        <pt x="586" y="137" on="0"/>
        <pt x="541" y="39" on="0"/>
        <pt x="423" y="-8" on="0"/>
        <pt x="313" y="-8" on="1"/>
        <pt x="263" y="-8" on="0"/>
        <pt x="140" y="3" on="0"/>
        <pt x="96" y="12" on="1"/>
        <pt x="96" y="124" on="1"/>
      </contour>
    </TTGlyph>
    <TTGlyph name="fiveeighths" xMin="46" yMin="-4" xMax="870" yMax="688">
      <component glyphName="five.numr" x="0" y="0" flags="0x0"/>
      <component glyphName="fraction" x="360" y="0" flags="0x0"/>
      <component glyphName="eight.dnom" x="516" y="0" flags="0x0"/>
    </TTGlyph>
    <TTGlyph name="fl" xMin="22" yMin="0" xMax="608" yMax="743">
      <component glyphName="f" x="0" y="0" flags="0x0"/>
      <component glyphName="l" x="404" y="0" flags="0x0"/>
    </TTGlyph>
    <TTGlyph name="florin" xMin="-117" yMin="-193" xMax="465" yMax="742">
      <contour>
        <pt x="377" y="641" on="0"/>
        <pt x="324" y="628" on="0"/>
        <pt x="305" y="591" on="0"/>
        <pt x="295" y="539" on="1"/>
        <pt x="289" y="510" on="1"/>
        <pt x="415" y="510" on="1"/>
        <pt x="393" y="400" on="1"/>
        <pt x="267" y="400" on="1"/>
        <pt x="184" y="11" on="1"/>
        <pt x="161" y="-91" on="0"/>
        <pt x="108" y="-172" on="0"/>
        <pt x="7" y="-193" on="0"/>
        <pt x="-117" y="-193" on="1"/>
        <pt x="-97" y="-93" on="1"/>
        <pt x="-39" y="-93" on="0"/>
        <pt x="12" y="-85" on="0"/>
        <pt x="35" y="-58" on="0"/>
        <pt x="42" y="-27" on="1"/>
        <pt x="134" y="400" on="1"/>
        <pt x="37" y="400" on="1"/>
        <pt x="58" y="510" on="1"/>
        <pt x="156" y="510" on="1"/>
        <pt x="156" y="511" on="1"/>
        <pt x="182" y="627" on="0"/>
        <pt x="235" y="718" on="0"/>
        <pt x="338" y="742" on="0"/>
        <pt x="465" y="742" on="1"/>
        <pt x="444" y="641" on="1"/>
      </contour>
    </TTGlyph>
    <TTGlyph name="four" xMin="38" yMin="0" xMax="610" yMax="688">
      <contour>
        <pt x="377" y="143" on="1"/>
        <pt x="38" y="143" on="1"/>
        <pt x="38" y="250" on="1"/>
        <pt x="289" y="688" on="1"/>
        <pt x="445" y="688" on="1"/>
        <pt x="191" y="264" on="1"/>
        <pt x="378" y="264" on="1"/>
        <pt x="417" y="447" on="1"/>
        <pt x="519" y="447" on="1"/>
        <pt x="519" y="264" on="1"/>
        <pt x="610" y="264" on="1"/>
        <pt x="610" y="143" on="1"/>
        <pt x="519" y="143" on="1"/>
        <pt x="519" y="0" on="1"/>
        <pt x="377" y="0" on="1"/>
      </contour>
    </TTGlyph>
    <TTGlyph name="four.dnom" xMin="23" yMin="0" xMax="349" yMax="379">
      <contour>
        <pt x="213" y="78" on="1"/>
        <pt x="23" y="78" on="1"/>
        <pt x="23" y="139" on="1"/>
        <pt x="153" y="379" on="1"/>
        <pt x="247" y="379" on="1"/>
        <pt x="114" y="146" on="1"/>
        <pt x="216" y="146" on="1"/>
        <pt x="240" y="244" on="1"/>
        <pt x="299" y="244" on="1"/>
        <pt x="299" y="146" on="1"/>
        <pt x="349" y="146" on="1"/>
        <pt x="349" y="78" on="1"/>
        <pt x="299" y="78" on="1"/>
        <pt x="299" y="0" on="1"/>
        <pt x="213" y="0" on="1"/>
      </contour>
    </TTGlyph>
    <TTGlyph name="four.numr" xMin="23" yMin="308" xMax="349" yMax="687">
      <component glyphName="four.dnom" x="0" y="308" flags="0x4"/>
    </TTGlyph>
    <TTGlyph name="four.ss01" xMin="38" yMin="0" xMax="612" yMax="688">
      <contour>
        <pt x="378" y="143" on="1"/>
        <pt x="38" y="143" on="1"/>
        <pt x="38" y="254" on="1"/>
        <pt x="320" y="688" on="1"/>
        <pt x="520" y="688" on="1"/>
        <pt x="520" y="264" on="1"/>
        <pt x="612" y="264" on="1"/>
        <pt x="612" y="143" on="1"/>
        <pt x="520" y="143" on="1"/>
        <pt x="520" y="0" on="1"/>
        <pt x="378" y="0" on="1"/>
      </contour>
      <contour>
        <pt x="378" y="264" on="1"/>
        <pt x="378" y="562" on="1"/>
        <pt x="373" y="562" on="1"/>
        <pt x="175" y="264" on="1"/>
      </contour>
    </TTGlyph>
    <TTGlyph name="four.tnum" xMin="42" yMin="0" xMax="614" yMax="688">
      <contour>
        <pt x="381" y="143" on="1"/>
        <pt x="42" y="143" on="1"/>
        <pt x="42" y="250" on="1"/>
        <pt x="294" y="688" on="1"/>
        <pt x="449" y="688" on="1"/>
        <pt x="196" y="264" on="1"/>
        <pt x="382" y="264" on="1"/>
        <pt x="421" y="447" on="1"/>
        <pt x="523" y="447" on="1"/>
        <pt x="523" y="264" on="1"/>
        <pt x="614" y="264" on="1"/>
        <pt x="614" y="143" on="1"/>
        <pt x="523" y="143" on="1"/>
        <pt x="523" y="0" on="1"/>
        <pt x="381" y="0" on="1"/>
      </contour>
    </TTGlyph>
    <TTGlyph name="fraction" xMin="-191" yMin="0" xMax="347" yMax="688">
      <contour>
        <pt x="257" y="688" on="1"/>
        <pt x="347" y="688" on="1"/>
        <pt x="-101" y="0" on="1"/>
        <pt x="-191" y="0" on="1"/>
      </contour>
    </TTGlyph>
    <TTGlyph name="g" xMin="52" yMin="-206" xMax="513" yMax="518">
      <contour>
        <pt x="218" y="-206" on="0"/>
        <pt x="118" y="-199" on="0"/>
        <pt x="90" y="-194" on="1"/>
        <pt x="90" y="-92" on="1"/>
        <pt x="150" y="-95" on="0"/>
        <pt x="234" y="-95" on="1"/>
        <pt x="305" y="-95" on="0"/>
        <pt x="363" y="-77" on="0"/>
        <pt x="380" y="-28" on="0"/>
        <pt x="380" y="33" on="1"/>
        <pt x="380" y="64" on="1"/>
        <pt x="374" y="64" on="1"/>
        <pt x="354" y="28" on="0"/>
        <pt x="280" y="-1" on="0"/>
        <pt x="227" y="-1" on="1"/>
        <pt x="161" y="-1" on="0"/>
        <pt x="86" y="45" on="0"/>
        <pt x="52" y="156" on="0"/>
        <pt x="52" y="257" on="1"/>
        <pt x="52" y="358" on="0"/>
        <pt x="87" y="471" on="0"/>
        <pt x="162" y="518" on="0"/>
        <pt x="227" y="518" on="1"/>
        <pt x="340" y="518" on="0"/>
        <pt x="377" y="447" on="1"/>
        <pt x="385" y="447" on="1"/>
        <pt x="389" y="510" on="1"/>
        <pt x="513" y="510" on="1"/>
        <pt x="513" y="60" on="1"/>
        <pt x="513" y="-44" on="0"/>
        <pt x="482" y="-152" on="0"/>
        <pt x="377" y="-206" on="0"/>
        <pt x="266" y="-206" on="1"/>
      </contour>
      <contour>
        <pt x="317" y="117" on="0"/>
        <pt x="354" y="132" on="0"/>
        <pt x="364" y="149" on="1"/>
        <pt x="374" y="165" on="0"/>
        <pt x="380" y="215" on="0"/>
        <pt x="380" y="257" on="1"/>
        <pt x="380" y="299" on="0"/>
        <pt x="374" y="350" on="0"/>
        <pt x="365" y="365" on="1"/>
        <pt x="354" y="384" on="0"/>
        <pt x="317" y="400" on="0"/>
        <pt x="284" y="400" on="1"/>
        <pt x="237" y="400" on="0"/>
        <pt x="198" y="382" on="0"/>
        <pt x="186" y="326" on="0"/>
        <pt x="186" y="257" on="1"/>
        <pt x="186" y="189" on="0"/>
        <pt x="198" y="135" on="0"/>
        <pt x="237" y="117" on="0"/>
        <pt x="284" y="117" on="1"/>
      </contour>
    </TTGlyph>
    <TTGlyph name="g_tilde.loclGUA" xMin="52" yMin="-206" xMax="513" yMax="744">
      <component glyphName="g" x="0" y="0" flags="0x0"/>
      <component glyphName="tildecomb" x="503" y="0" flags="0x0"/>
    </TTGlyph>
    <TTGlyph name="gbreve" xMin="52" yMin="-206" xMax="513" yMax="743">
      <component glyphName="g" x="0" y="0" flags="0x0"/>
      <component glyphName="uni0306" x="459" y="0" flags="0x0"/>
    </TTGlyph>
    <TTGlyph name="gcaron" xMin="52" yMin="-206" xMax="513" yMax="743">
      <component glyphName="g" x="0" y="0" flags="0x0"/>
      <component glyphName="uni030C" x="473" y="0" flags="0x0"/>
    </TTGlyph>
    <TTGlyph name="gcircumflex" xMin="52" yMin="-206" xMax="513" yMax="743">
      <component glyphName="g" x="0" y="0" flags="0x0"/>
      <component glyphName="uni0302" x="473" y="0" flags="0x0"/>
    </TTGlyph>
    <TTGlyph name="gcommaaccent" xMin="52" yMin="-206" xMax="513" yMax="827">
      <component glyphName="g" x="0" y="0" flags="0x0"/>
      <component glyphName="uni0312" x="654" y="0" flags="0x0"/>
    </TTGlyph>
    <TTGlyph name="gdotaccent" xMin="52" yMin="-206" xMax="513" yMax="730">
      <component glyphName="g" x="0" y="0" flags="0x0"/>
      <component glyphName="uni0307" x="368" y="0" flags="0x0"/>
    </TTGlyph>
    <TTGlyph name="germandbls" xMin="70" yMin="0" xMax="549" yMax="750">
      <contour>
        <pt x="274" y="0" on="1"/>
        <pt x="274" y="110" on="1"/>
        <pt x="307" y="110" on="1"/>
        <pt x="361" y="110" on="0"/>
        <pt x="401" y="124" on="0"/>
        <pt x="415" y="176" on="0"/>
        <pt x="415" y="244" on="1"/>
        <pt x="415" y="304" on="0"/>
        <pt x="397" y="357" on="0"/>
        <pt x="354" y="374" on="0"/>
        <pt x="308" y="374" on="1"/>
        <pt x="288" y="374" on="1"/>
        <pt x="288" y="485" on="1"/>
        <pt x="308" y="485" on="1"/>
        <pt x="349" y="485" on="0"/>
        <pt x="390" y="496" on="0"/>
        <pt x="406" y="526" on="0"/>
        <pt x="406" y="555" on="1"/>
        <pt x="406" y="592" on="0"/>
        <pt x="389" y="628" on="0"/>
        <pt x="347" y="640" on="0"/>
        <pt x="304" y="640" on="1"/>
        <pt x="265" y="640" on="0"/>
        <pt x="223" y="626" on="0"/>
        <pt x="203" y="582" on="0"/>
        <pt x="203" y="536" on="1"/>
        <pt x="203" y="0" on="1"/>
        <pt x="70" y="0" on="1"/>
        <pt x="70" y="553" on="1"/>
        <pt x="70" y="622" on="0"/>
        <pt x="114" y="708" on="0"/>
        <pt x="218" y="750" on="0"/>
        <pt x="308" y="750" on="1"/>
        <pt x="399" y="750" on="0"/>
        <pt x="500" y="710" on="0"/>
        <pt x="540" y="634" on="0"/>
        <pt x="540" y="574" on="1"/>
        <pt x="540" y="511" on="0"/>
        <pt x="484" y="445" on="0"/>
        <pt x="424" y="436" on="1"/>
        <pt x="424" y="432" on="1"/>
        <pt x="488" y="420" on="0"/>
        <pt x="549" y="333" on="0"/>
        <pt x="549" y="239" on="1"/>
        <pt x="549" y="147" on="0"/>
        <pt x="515" y="47" on="0"/>
        <pt x="421" y="0" on="0"/>
        <pt x="327" y="0" on="1"/>
      </contour>
    </TTGlyph>
    <TTGlyph name="grave" xMin="20" yMin="599" xMax="248" yMax="743">
      <contour>
        <pt x="20" y="738" on="1"/>
        <pt x="20" y="743" on="1"/>
        <pt x="153" y="743" on="1"/>
        <pt x="248" y="604" on="1"/>
        <pt x="248" y="599" on="1"/>
        <pt x="151" y="599" on="1"/>
      </contour>
    </TTGlyph>
    <TTGlyph name="gravecomb" xMin="-247" yMin="599" xMax="-19" yMax="743">
      <contour>
        <pt x="-247" y="738" on="1"/>
        <pt x="-247" y="743" on="1"/>
        <pt x="-114" y="743" on="1"/>
        <pt x="-19" y="604" on="1"/>
        <pt x="-19" y="599" on="1"/>
        <pt x="-116" y="599" on="1"/>
      </contour>
    </TTGlyph>
    <TTGlyph name="gravecomb.case" xMin="-247" yMin="744" xMax="-19" yMax="888">
      <contour>
        <pt x="-247" y="883" on="1"/>
        <pt x="-247" y="888" on="1"/>
        <pt x="-114" y="888" on="1"/>
        <pt x="-19" y="749" on="1"/>
        <pt x="-19" y="744" on="1"/>
        <pt x="-116" y="744" on="1"/>
      </contour>
    </TTGlyph>
    <TTGlyph name="greater" xMin="70" yMin="44" xMax="470" yMax="461">
      <contour>
        <pt x="70" y="151" on="1"/>
        <pt x="356" y="253" on="1"/>
        <pt x="70" y="354" on="1"/>
        <pt x="70" y="461" on="1"/>
        <pt x="470" y="307" on="1"/>
        <pt x="470" y="198" on="1"/>
        <pt x="70" y="44" on="1"/>
      </contour>
    </TTGlyph>
    <TTGlyph name="greaterequal" xMin="70" yMin="-1" xMax="470" yMax="591">
      <contour>
        <pt x="70" y="280" on="1"/>
        <pt x="357" y="382" on="1"/>
        <pt x="70" y="484" on="1"/>
        <pt x="70" y="591" on="1"/>
        <pt x="470" y="436" on="1"/>
        <pt x="470" y="327" on="1"/>
        <pt x="70" y="174" on="1"/>
      </contour>
      <contour>
        <pt x="70" y="104" on="1"/>
        <pt x="470" y="104" on="1"/>
        <pt x="470" y="-1" on="1"/>
        <pt x="70" y="-1" on="1"/>
      </contour>
    </TTGlyph>
    <TTGlyph name="guillemotleft" xMin="31" yMin="98" xMax="436" yMax="510">
      <contour>
        <pt x="31" y="304" on="1"/>
        <pt x="163" y="510" on="1"/>
        <pt x="251" y="510" on="1"/>
        <pt x="144" y="304" on="1"/>
        <pt x="251" y="98" on="1"/>
        <pt x="163" y="98" on="1"/>
      </contour>
      <contour>
        <pt x="216" y="304" on="1"/>
        <pt x="348" y="510" on="1"/>
        <pt x="436" y="510" on="1"/>
        <pt x="328" y="304" on="1"/>
        <pt x="436" y="98" on="1"/>
        <pt x="348" y="98" on="1"/>
      </contour>
    </TTGlyph>
    <TTGlyph name="guillemotright" xMin="57" yMin="98" xMax="461" yMax="510">
      <contour>
        <pt x="165" y="304" on="1"/>
        <pt x="57" y="510" on="1"/>
        <pt x="145" y="510" on="1"/>
        <pt x="277" y="304" on="1"/>
        <pt x="145" y="98" on="1"/>
        <pt x="57" y="98" on="1"/>
      </contour>
      <contour>
        <pt x="349" y="304" on="1"/>
        <pt x="242" y="510" on="1"/>
        <pt x="330" y="510" on="1"/>
        <pt x="461" y="304" on="1"/>
        <pt x="330" y="98" on="1"/>
        <pt x="242" y="98" on="1"/>
      </contour>
    </TTGlyph>
    <TTGlyph name="guilsinglleft" xMin="31" yMin="98" xMax="250" yMax="510">
      <contour>
        <pt x="31" y="304" on="1"/>
        <pt x="162" y="510" on="1"/>
        <pt x="250" y="510" on="1"/>
        <pt x="143" y="304" on="1"/>
        <pt x="250" y="98" on="1"/>
        <pt x="162" y="98" on="1"/>
      </contour>
    </TTGlyph>
    <TTGlyph name="guilsinglright" xMin="57" yMin="98" xMax="278" yMax="510">
      <contour>
        <pt x="165" y="304" on="1"/>
        <pt x="57" y="510" on="1"/>
        <pt x="146" y="510" on="1"/>
        <pt x="278" y="304" on="1"/>
        <pt x="146" y="98" on="1"/>
        <pt x="57" y="98" on="1"/>
      </contour>
    </TTGlyph>
    <TTGlyph name="h" xMin="70" yMin="0" xMax="521" yMax="743">
      <contour>
        <pt x="388" y="270" on="1"/>
        <pt x="388" y="334" on="0"/>
        <pt x="377" y="384" on="0"/>
        <pt x="343" y="399" on="0"/>
        <pt x="300" y="399" on="1"/>
        <pt x="257" y="399" on="0"/>
        <pt x="216" y="373" on="0"/>
        <pt x="203" y="317" on="0"/>
        <pt x="203" y="264" on="1"/>
        <pt x="203" y="0" on="1"/>
        <pt x="70" y="0" on="1"/>
        <pt x="70" y="743" on="1"/>
        <pt x="203" y="743" on="1"/>
        <pt x="203" y="450" on="1"/>
        <pt x="211" y="450" on="1"/>
        <pt x="231" y="485" on="0"/>
        <pt x="304" y="517" on="0"/>
        <pt x="361" y="517" on="1"/>
        <pt x="428" y="517" on="0"/>
        <pt x="498" y="473" on="0"/>
        <pt x="521" y="390" on="0"/>
        <pt x="521" y="319" on="1"/>
        <pt x="521" y="0" on="1"/>
        <pt x="388" y="0" on="1"/>
      </contour>
    </TTGlyph>
    <TTGlyph name="hbar" xMin="7" yMin="0" xMax="521" yMax="743">
      <contour>
        <pt x="428" y="517" on="0"/>
        <pt x="498" y="473" on="0"/>
        <pt x="521" y="390" on="0"/>
        <pt x="521" y="319" on="1"/>
        <pt x="521" y="0" on="1"/>
        <pt x="388" y="0" on="1"/>
        <pt x="388" y="270" on="1"/>
        <pt x="388" y="334" on="0"/>
        <pt x="377" y="384" on="0"/>
        <pt x="343" y="399" on="0"/>
        <pt x="300" y="399" on="1"/>
        <pt x="257" y="399" on="0"/>
        <pt x="216" y="373" on="0"/>
        <pt x="203" y="317" on="0"/>
        <pt x="203" y="264" on="1"/>
        <pt x="203" y="0" on="1"/>
        <pt x="70" y="0" on="1"/>
        <pt x="70" y="582" on="1"/>
        <pt x="7" y="582" on="1"/>
        <pt x="7" y="688" on="1"/>
        <pt x="70" y="688" on="1"/>
        <pt x="70" y="743" on="1"/>
        <pt x="203" y="743" on="1"/>
        <pt x="203" y="688" on="1"/>
        <pt x="327" y="688" on="1"/>
        <pt x="327" y="582" on="1"/>
        <pt x="203" y="582" on="1"/>
        <pt x="203" y="450" on="1"/>
        <pt x="211" y="450" on="1"/>
        <pt x="231" y="485" on="0"/>
        <pt x="304" y="517" on="0"/>
        <pt x="361" y="517" on="1"/>
      </contour>
    </TTGlyph>
    <TTGlyph name="hcircumflex" xMin="-23" yMin="0" xMax="521" yMax="921">
      <component glyphName="h" x="0" y="0" flags="0x0"/>
      <component glyphName="uni0302" x="318" y="178" flags="0x4"/>
    </TTGlyph>
    <TTGlyph name="hookabovecomb" xMin="-286" yMin="609" xMax="-24" yMax="818">
      <contour>
        <pt x="-218" y="615" on="1"/>
        <pt x="-218" y="646" on="0"/>
        <pt x="-200" y="670" on="0"/>
        <pt x="-171" y="678" on="1"/>
        <pt x="-152" y="684" on="1"/>
        <pt x="-125" y="691" on="0"/>
        <pt x="-111" y="702" on="0"/>
        <pt x="-111" y="717" on="1"/>
        <pt x="-111" y="733" on="0"/>
        <pt x="-124" y="746" on="0"/>
        <pt x="-151" y="749" on="0"/>
        <pt x="-183" y="749" on="1"/>
        <pt x="-238" y="749" on="0"/>
        <pt x="-286" y="744" on="1"/>
        <pt x="-286" y="808" on="1"/>
        <pt x="-262" y="812" on="0"/>
        <pt x="-191" y="818" on="0"/>
        <pt x="-162" y="818" on="1"/>
        <pt x="-113" y="818" on="0"/>
        <pt x="-56" y="807" on="0"/>
        <pt x="-24" y="767" on="0"/>
        <pt x="-24" y="726" on="1"/>
        <pt x="-24" y="687" on="0"/>
        <pt x="-53" y="656" on="0"/>
        <pt x="-92" y="645" on="1"/>
        <pt x="-110" y="640" on="1"/>
        <pt x="-135" y="633" on="0"/>
        <pt x="-146" y="623" on="0"/>
        <pt x="-146" y="609" on="1"/>
        <pt x="-218" y="609" on="1"/>
      </contour>
    </TTGlyph>
    <TTGlyph name="hookabovecomb.case" xMin="-286" yMin="731" xMax="-24" yMax="940">
      <contour>
        <pt x="-218" y="737" on="1"/>
        <pt x="-218" y="769" on="0"/>
        <pt x="-200" y="793" on="0"/>
        <pt x="-171" y="801" on="1"/>
        <pt x="-152" y="806" on="1"/>
        <pt x="-125" y="813" on="0"/>
        <pt x="-111" y="825" on="0"/>
        <pt x="-111" y="840" on="1"/>
        <pt x="-111" y="855" on="0"/>
        <pt x="-124" y="868" on="0"/>
        <pt x="-151" y="871" on="0"/>
        <pt x="-183" y="871" on="1"/>
        <pt x="-238" y="871" on="0"/>
        <pt x="-286" y="866" on="1"/>
        <pt x="-286" y="931" on="1"/>
        <pt x="-227" y="940" on="0"/>
        <pt x="-162" y="940" on="1"/>
        <pt x="-113" y="940" on="0"/>
        <pt x="-56" y="929" on="0"/>
        <pt x="-24" y="890" on="0"/>
        <pt x="-24" y="849" on="1"/>
        <pt x="-24" y="810" on="0"/>
        <pt x="-53" y="778" on="0"/>
        <pt x="-92" y="768" on="1"/>
        <pt x="-110" y="762" on="1"/>
        <pt x="-134" y="755" on="0"/>
        <pt x="-146" y="745" on="0"/>
        <pt x="-146" y="731" on="1"/>
        <pt x="-218" y="731" on="1"/>
      </contour>
    </TTGlyph>
    <TTGlyph name="house" xMin="48" yMin="0" xMax="698" yMax="696">
      <contour>
        <pt x="48" y="419" on="1"/>
        <pt x="328" y="696" on="1"/>
        <pt x="419" y="696" on="1"/>
        <pt x="698" y="419" on="1"/>
        <pt x="698" y="0" on="1"/>
        <pt x="49" y="0" on="1"/>
      </contour>
      <contour>
        <pt x="601" y="83" on="1"/>
        <pt x="602" y="388" on="1"/>
        <pt x="374" y="617" on="1"/>
        <pt x="145" y="388" on="1"/>
        <pt x="146" y="83" on="1"/>
      </contour>
    </TTGlyph>
    <TTGlyph name="hungarumlaut" xMin="20" yMin="609" xMax="406" yMax="734">
      <contour>
        <pt x="20" y="613" on="1"/>
        <pt x="104" y="734" on="1"/>
        <pt x="215" y="734" on="1"/>
        <pt x="215" y="729" on="1"/>
        <pt x="100" y="609" on="1"/>
        <pt x="20" y="609" on="1"/>
      </contour>
      <contour>
        <pt x="210" y="613" on="1"/>
        <pt x="294" y="734" on="1"/>
        <pt x="406" y="734" on="1"/>
        <pt x="406" y="729" on="1"/>
        <pt x="291" y="609" on="1"/>
        <pt x="210" y="609" on="1"/>
      </contour>
    </TTGlyph>
    <TTGlyph name="hyphen" xMin="53" yMin="226" xMax="316" yMax="343">
      <contour>
        <pt x="53" y="343" on="1"/>
        <pt x="316" y="343" on="1"/>
        <pt x="316" y="226" on="1"/>
        <pt x="53" y="226" on="1"/>
      </contour>
    </TTGlyph>
    <TTGlyph name="i" xMin="69" yMin="0" xMax="206" yMax="743">
      <contour>
        <pt x="69" y="743" on="1"/>
        <pt x="206" y="743" on="1"/>
        <pt x="206" y="622" on="1"/>
        <pt x="69" y="622" on="1"/>
      </contour>
      <contour>
        <pt x="70" y="510" on="1"/>
        <pt x="204" y="510" on="1"/>
        <pt x="204" y="0" on="1"/>
        <pt x="70" y="0" on="1"/>
      </contour>
    </TTGlyph>
    <TTGlyph name="i.loclTRK" xMin="70" yMin="0" xMax="204" yMax="730">
      <component glyphName="dotlessi" x="0" y="0" flags="0x0"/>
      <component glyphName="uni0307" x="213" y="0" flags="0x0"/>
    </TTGlyph>
    <TTGlyph name="iacute" xMin="70" yMin="0" xMax="301" yMax="743">
      <component glyphName="dotlessi" x="0" y="0" flags="0x0"/>
      <component glyphName="acute" x="53" y="0" flags="0x0"/>
    </TTGlyph>
    <TTGlyph name="iacute_j.loclNLD" xMin="70" yMin="-200" xMax="584" yMax="743">
      <component glyphName="dotlessi" x="0" y="0" flags="0x0"/>
      <component glyphName="acutecomb" x="328" y="0" flags="0x0"/>
      <component glyphName="uni0237" x="275" y="0" flags="0x0"/>
      <component glyphName="acutecomb" x="603" y="0" flags="0x0"/>
    </TTGlyph>
    <TTGlyph name="ibreve" xMin="-11" yMin="0" xMax="284" yMax="743">
      <component glyphName="dotlessi" x="0" y="0" flags="0x0"/>
      <component glyphName="uni0306" x="304" y="0" flags="0x0"/>
    </TTGlyph>
    <TTGlyph name="icircumflex" xMin="-23" yMin="0" xMax="298" yMax="743">
      <component glyphName="dotlessi" x="0" y="0" flags="0x0"/>
      <component glyphName="circumflex" x="-43" y="0" flags="0x0"/>
    </TTGlyph>
    <TTGlyph name="idieresis" xMin="-19" yMin="0" xMax="294" yMax="730">
      <component glyphName="dotlessi" x="0" y="0" flags="0x0"/>
      <component glyphName="dieresis" x="-38" y="0" flags="0x0"/>
    </TTGlyph>
    <TTGlyph name="igrave" xMin="-23" yMin="0" xMax="205" yMax="743">
      <component glyphName="dotlessi" x="0" y="0" flags="0x0"/>
      <component glyphName="grave" x="-43" y="0" flags="0x0"/>
    </TTGlyph>
    <TTGlyph name="ij" xMin="69" yMin="-200" xMax="481" yMax="743">
      <component glyphName="i" x="0" y="0" flags="0x0"/>
      <component glyphName="j" x="275" y="0" flags="0x0"/>
    </TTGlyph>
    <TTGlyph name="imacron" xMin="5" yMin="0" xMax="268" yMax="742">
      <component glyphName="dotlessi" x="0" y="0" flags="0x0"/>
      <component glyphName="uni0304" x="322" y="0" flags="0x0"/>
    </TTGlyph>
    <TTGlyph name="infinity" xMin="56" yMin="42" xMax="978" yMax="470">
      <contour>
        <pt x="193" y="42" on="0"/>
        <pt x="94" y="90" on="0"/>
        <pt x="56" y="182" on="0"/>
        <pt x="56" y="256" on="1"/>
        <pt x="56" y="329" on="0"/>
        <pt x="94" y="421" on="0"/>
        <pt x="194" y="470" on="0"/>
        <pt x="283" y="470" on="1"/>
        <pt x="377" y="470" on="0"/>
        <pt x="485" y="399" on="0"/>
        <pt x="518" y="338" on="1"/>
        <pt x="551" y="399" on="0"/>
        <pt x="659" y="470" on="0"/>
        <pt x="753" y="470" on="1"/>
        <pt x="843" y="470" on="0"/>
        <pt x="941" y="421" on="0"/>
        <pt x="978" y="329" on="0"/>
        <pt x="978" y="256" on="1"/>
        <pt x="978" y="182" on="0"/>
        <pt x="941" y="90" on="0"/>
        <pt x="843" y="42" on="0"/>
        <pt x="753" y="42" on="1"/>
        <pt x="658" y="42" on="0"/>
        <pt x="551" y="112" on="0"/>
        <pt x="518" y="174" on="1"/>
        <pt x="485" y="112" on="0"/>
        <pt x="378" y="42" on="0"/>
        <pt x="283" y="42" on="1"/>
      </contour>
      <contour>
        <pt x="365" y="140" on="0"/>
        <pt x="440" y="202" on="0"/>
        <pt x="463" y="256" on="1"/>
        <pt x="440" y="310" on="0"/>
        <pt x="365" y="372" on="0"/>
        <pt x="289" y="372" on="1"/>
        <pt x="235" y="372" on="0"/>
        <pt x="178" y="349" on="0"/>
        <pt x="157" y="300" on="0"/>
        <pt x="157" y="256" on="1"/>
        <pt x="157" y="211" on="0"/>
        <pt x="178" y="162" on="0"/>
        <pt x="235" y="140" on="0"/>
        <pt x="289" y="140" on="1"/>
      </contour>
      <contour>
        <pt x="801" y="140" on="0"/>
        <pt x="856" y="162" on="0"/>
        <pt x="877" y="211" on="0"/>
        <pt x="877" y="256" on="1"/>
        <pt x="877" y="300" on="0"/>
        <pt x="856" y="349" on="0"/>
        <pt x="801" y="372" on="0"/>
        <pt x="748" y="372" on="1"/>
        <pt x="671" y="372" on="0"/>
        <pt x="595" y="309" on="0"/>
        <pt x="574" y="256" on="1"/>
        <pt x="595" y="203" on="0"/>
        <pt x="671" y="140" on="0"/>
        <pt x="748" y="140" on="1"/>
      </contour>
    </TTGlyph>
    <TTGlyph name="integral" xMin="36" yMin="-190" xMax="377" yMax="696">
      <contour>
        <pt x="36" y="-90" on="1"/>
        <pt x="90" y="-90" on="0"/>
        <pt x="141" y="-83" on="0"/>
        <pt x="162" y="-62" on="0"/>
        <pt x="162" y="-39" on="1"/>
        <pt x="159" y="9" on="1"/>
        <pt x="118" y="508" on="1"/>
        <pt x="116" y="536" on="0"/>
        <pt x="116" y="551" on="1"/>
        <pt x="116" y="619" on="0"/>
        <pt x="166" y="680" on="0"/>
        <pt x="268" y="696" on="0"/>
        <pt x="377" y="696" on="1"/>
        <pt x="377" y="596" on="1"/>
        <pt x="322" y="596" on="0"/>
        <pt x="271" y="589" on="0"/>
        <pt x="250" y="568" on="0"/>
        <pt x="250" y="545" on="1"/>
        <pt x="252" y="509" on="1"/>
        <pt x="294" y="4" on="1"/>
        <pt x="297" y="-29" on="0"/>
        <pt x="297" y="-45" on="1"/>
        <pt x="297" y="-113" on="0"/>
        <pt x="247" y="-174" on="0"/>
        <pt x="144" y="-190" on="0"/>
        <pt x="36" y="-190" on="1"/>
      </contour>
    </TTGlyph>
    <TTGlyph name="iogonek" xMin="30" yMin="-196" xMax="205" yMax="730">
      <contour>
        <pt x="193" y="627" on="1"/>
        <pt x="80" y="627" on="1"/>
        <pt x="80" y="730" on="1"/>
        <pt x="193" y="730" on="1"/>
      </contour>
      <contour>
        <pt x="205" y="-118" on="1"/>
        <pt x="205" y="-193" on="1"/>
        <pt x="168" y="-196" on="0"/>
        <pt x="147" y="-196" on="1"/>
        <pt x="30" y="-196" on="0"/>
        <pt x="30" y="-116" on="1"/>
        <pt x="30" y="-58" on="0"/>
        <pt x="91" y="0" on="1"/>
        <pt x="70" y="0" on="1"/>
        <pt x="70" y="510" on="1"/>
        <pt x="204" y="510" on="1"/>
        <pt x="204" y="0" on="1"/>
        <pt x="181" y="-14" on="0"/>
        <pt x="141" y="-63" on="0"/>
        <pt x="141" y="-86" on="1"/>
        <pt x="141" y="-100" on="0"/>
        <pt x="162" y="-119" on="0"/>
        <pt x="186" y="-119" on="1"/>
      </contour>
    </TTGlyph>
    <TTGlyph name="itilde" xMin="-54" yMin="0" xMax="327" yMax="744">
      <component glyphName="dotlessi" x="0" y="0" flags="0x0"/>
      <component glyphName="tildecomb" x="348" y="0" flags="0x0"/>
    </TTGlyph>
    <TTGlyph name="j" xMin="-17" yMin="-200" xMax="206" yMax="743">
      <contour>
        <pt x="69" y="743" on="1"/>
        <pt x="206" y="743" on="1"/>
        <pt x="206" y="622" on="1"/>
        <pt x="69" y="622" on="1"/>
      </contour>
      <contour>
        <pt x="-17" y="-98" on="1"/>
        <pt x="24" y="-98" on="0"/>
        <pt x="60" y="-88" on="0"/>
        <pt x="70" y="-68" on="0"/>
        <pt x="70" y="-45" on="1"/>
        <pt x="70" y="510" on="1"/>
        <pt x="204" y="510" on="1"/>
        <pt x="204" y="-16" on="1"/>
        <pt x="204" y="-101" on="0"/>
        <pt x="168" y="-177" on="0"/>
        <pt x="80" y="-200" on="0"/>
        <pt x="-17" y="-200" on="1"/>
      </contour>
    </TTGlyph>
    <TTGlyph name="jcircumflex" xMin="-23" yMin="-200" xMax="298" yMax="743">
      <component glyphName="uni0237" x="0" y="0" flags="0x0"/>
      <component glyphName="uni0302" x="318" y="0" flags="0x0"/>
    </TTGlyph>
</ttFont>
